<svg id="svg" version="1.1" xmlns="http://www.w3.org/2000/svg" xmlns:xlink="http://www.w3.org/1999/xlink" width="400" height="400" viewBox="0, 0, 400,400"><g id="svgg"><path id="path0" d="M181.300 70.300 C 191.145 70.359,207.255 70.359,217.100 70.300 C 226.945 70.240,218.890 70.192,199.200 70.192 C 179.510 70.192,171.455 70.240,181.300 70.300 M162.142 71.008 C 162.013 71.342,162.016 83.177,162.148 97.308 C 162.280 111.439,162.403 127.482,162.421 132.960 L 162.454 142.921 153.551 142.859 C 148.642 142.825,144.548 142.959,144.424 143.157 C 144.299 143.359,132.938 143.651,118.600 143.821 C 88.321 144.182,90.722 144.122,90.100 144.524 C 89.354 145.006,89.369 216.511,90.116 217.130 C 90.595 217.528,139.605 217.873,141.200 217.490 C 141.530 217.410,142.430 217.204,143.200 217.031 C 145.539 216.506,148.827 215.333,149.307 214.853 C 149.556 214.604,150.062 214.400,150.431 214.400 C 151.559 214.400,151.884 213.541,152.095 210.000 C 152.206 208.130,152.220 207.077,152.126 207.659 C 151.909 209.000,148.648 211.492,144.592 213.417 C 142.966 214.188,141.526 214.995,141.394 215.210 C 141.261 215.424,140.724 215.600,140.200 215.600 C 139.676 215.600,139.136 215.780,139.000 216.000 C 138.581 216.678,136.789 216.493,137.055 215.800 C 137.182 215.470,137.626 215.200,138.043 215.200 C 138.459 215.200,138.800 215.006,138.800 214.768 C 138.800 214.496,138.319 214.429,137.500 214.587 C 136.274 214.824,136.244 214.803,136.976 214.219 C 137.404 213.878,137.966 213.600,138.227 213.600 C 139.281 213.600,139.765 212.410,138.959 211.800 C 138.542 211.484,138.340 211.220,138.510 211.213 C 138.681 211.206,138.531 210.641,138.178 209.957 C 137.730 209.091,137.636 208.393,137.867 207.657 C 138.050 207.076,138.226 198.320,138.258 188.200 C 138.349 159.642,138.717 150.469,139.815 149.469 C 140.230 149.091,140.168 148.826,139.495 148.100 C 139.036 147.605,138.872 147.200,139.130 147.200 C 139.389 147.200,139.600 147.020,139.600 146.800 C 139.600 146.580,139.389 146.400,139.131 146.400 C 138.874 146.400,138.372 146.137,138.017 145.815 C 137.655 145.487,135.973 145.081,134.186 144.890 L 131.000 144.550 134.800 144.282 C 138.446 144.024,151.351 143.622,158.336 143.548 C 160.171 143.528,161.791 143.667,161.936 143.856 C 162.444 144.518,161.790 188.457,161.243 190.400 C 160.965 191.390,160.550 192.920,160.322 193.800 C 159.862 195.574,159.287 197.383,158.797 198.600 C 158.619 199.040,158.181 200.186,157.822 201.147 C 157.462 202.108,156.726 203.475,156.184 204.185 C 154.304 206.651,154.551 206.800,160.520 206.800 L 165.839 206.800 167.802 205.100 C 168.881 204.165,176.004 197.190,183.629 189.600 C 201.716 171.598,216.349 157.197,219.602 154.198 C 222.502 151.525,226.400 146.884,226.400 146.106 C 226.400 145.828,226.568 145.600,226.773 145.600 C 226.978 145.600,227.260 145.241,227.399 144.802 C 227.538 144.364,227.866 143.774,228.126 143.492 C 228.874 142.681,230.158 140.710,230.791 139.400 C 231.110 138.740,231.693 137.722,232.086 137.138 C 232.479 136.554,232.800 135.699,232.800 135.238 C 232.800 134.777,232.941 134.400,233.113 134.400 C 233.285 134.400,233.671 133.545,233.971 132.500 C 234.271 131.455,234.650 130.420,234.813 130.200 C 234.976 129.980,235.209 129.080,235.329 128.200 C 235.773 124.959,236.296 122.711,236.664 122.459 C 237.157 122.121,237.383 70.400,236.891 70.400 C 236.429 70.400,236.410 70.554,236.180 76.000 C 235.872 83.300,235.216 85.290,234.568 80.891 C 234.169 78.184,233.659 76.997,233.625 78.700 C 233.597 80.145,232.803 80.527,232.795 79.100 C 232.780 76.726,230.727 75.028,230.329 77.061 C 230.176 77.843,219.270 77.911,216.874 77.145 C 216.144 76.911,215.205 76.810,214.787 76.919 C 214.345 77.035,214.063 76.926,214.114 76.659 C 214.161 76.407,213.660 76.146,213.000 76.079 C 212.340 76.013,211.249 75.706,210.577 75.397 C 208.308 74.355,205.065 74.200,185.600 74.200 L 166.200 74.200 166.085 78.115 C 166.022 80.268,165.812 81.931,165.618 81.811 C 165.424 81.691,165.144 82.180,164.996 82.897 C 164.848 83.613,164.473 84.971,164.164 85.914 C 163.854 86.857,163.582 88.477,163.560 89.514 C 163.538 90.551,163.386 91.850,163.222 92.400 C 162.661 94.280,162.332 88.554,162.469 79.300 C 162.600 70.403,162.579 69.868,162.142 71.008 M230.460 72.780 C 230.548 73.044,230.750 73.247,230.910 73.230 C 231.388 73.181,231.296 72.632,230.780 72.460 C 230.516 72.372,230.372 72.516,230.460 72.780 M177.346 75.986 C 177.606 76.246,177.340 77.140,176.570 78.601 C 175.927 79.822,175.084 81.447,174.697 82.211 C 174.310 82.975,173.815 83.600,173.597 83.600 C 173.379 83.600,173.200 83.870,173.200 84.200 C 173.200 84.530,173.053 84.800,172.874 84.800 C 172.694 84.800,172.143 85.520,171.648 86.400 C 171.153 87.280,170.585 88.000,170.385 88.000 C 170.184 88.000,169.742 88.539,169.402 89.197 C 168.712 90.531,167.976 90.608,167.455 89.400 C 167.074 88.518,166.424 76.015,166.729 75.441 C 166.981 74.967,176.832 75.472,177.346 75.986 M222.526 112.517 C 224.834 114.873,225.452 115.974,226.745 120.028 C 227.343 121.904,227.347 133.597,226.750 135.081 C 226.503 135.697,226.169 136.560,226.009 137.000 C 225.848 137.440,225.331 138.660,224.859 139.711 C 224.386 140.762,224.000 141.895,224.000 142.230 C 224.000 142.565,223.640 143.584,223.200 144.494 C 222.760 145.405,222.400 146.309,222.400 146.503 C 222.400 147.091,219.970 150.429,219.675 150.247 C 219.204 149.956,219.560 110.400,220.033 110.400 C 220.264 110.400,221.385 111.353,222.526 112.517 M110.800 149.144 C 112.396 149.371,113.932 151.199,112.528 151.200 C 111.975 151.201,109.045 153.978,109.313 154.247 C 109.680 154.614,108.258 157.135,105.251 161.450 C 104.509 162.514,103.871 163.595,103.833 163.852 C 103.723 164.602,102.741 165.611,102.355 165.372 C 102.160 165.251,102.000 165.331,102.000 165.548 C 102.000 165.765,101.736 166.206,101.414 166.529 C 101.092 166.851,100.777 167.346,100.714 167.629 C 100.583 168.222,99.789 169.298,98.500 170.632 C 98.005 171.144,97.600 171.751,97.600 171.981 C 97.600 172.621,94.468 175.802,94.151 175.484 C 93.779 175.112,93.023 149.839,93.357 148.967 C 93.622 148.278,105.574 148.399,110.800 149.144 M135.266 215.951 C 134.867 216.203,134.967 216.350,135.659 216.531 C 137.638 217.049,135.793 217.588,132.987 217.312 L 130.200 217.038 132.193 216.739 C 133.290 216.574,134.250 216.251,134.327 216.020 C 134.404 215.789,134.767 215.603,135.133 215.606 C 135.651 215.611,135.681 215.688,135.266 215.951 " stroke="none" fill="#2fa0ea" fill-rule="evenodd"></path><path id="path1" d="M261.400 144.955 C 259.420 145.663,256.844 146.737,255.675 147.341 C 254.293 148.055,253.259 148.346,252.715 148.173 C 252.056 147.964,251.931 148.044,252.127 148.554 C 252.406 149.281,251.236 149.476,250.573 148.813 C 250.117 148.357,248.400 148.722,248.400 149.275 C 248.400 149.485,248.842 149.599,249.382 149.529 C 250.487 149.384,250.809 149.981,249.926 150.538 C 249.540 150.782,248.840 150.667,247.850 150.197 C 246.234 149.430,245.353 149.653,243.623 151.264 C 243.189 151.669,242.475 152.000,242.037 152.000 C 241.598 152.000,241.096 152.229,240.920 152.508 C 240.744 152.788,240.105 153.234,239.500 153.500 C 238.895 153.765,238.400 154.257,238.400 154.591 C 238.400 154.990,238.017 155.200,237.289 155.200 C 235.958 155.200,233.641 157.487,234.600 157.855 C 235.391 158.159,236.000 157.689,236.000 156.776 C 236.000 155.909,236.619 155.728,236.943 156.500 C 237.093 156.857,237.282 156.797,237.601 156.292 C 237.848 155.902,238.211 155.683,238.408 155.805 C 238.606 155.927,239.140 155.796,239.596 155.514 C 240.287 155.085,240.488 155.099,240.806 155.600 C 241.342 156.443,241.317 156.539,240.224 157.811 C 239.688 158.435,239.280 159.048,239.319 159.173 C 239.358 159.298,238.829 160.210,238.145 161.200 C 236.709 163.275,235.970 165.308,235.020 169.800 C 233.692 176.074,232.743 178.515,231.391 179.131 C 229.874 179.822,228.800 180.923,228.798 181.789 C 228.797 182.235,227.968 183.500,226.956 184.600 C 225.944 185.700,224.123 187.905,222.909 189.500 C 221.696 191.095,220.567 192.400,220.400 192.400 C 220.233 192.400,219.865 192.961,219.580 193.647 C 219.296 194.334,217.654 196.323,215.932 198.069 C 214.209 199.815,212.800 201.373,212.800 201.533 C 212.800 201.692,212.215 202.336,211.500 202.964 C 210.785 203.592,210.176 204.307,210.146 204.553 C 210.117 204.799,210.072 205.214,210.046 205.476 C 210.021 205.738,208.785 207.299,207.300 208.946 C 205.815 210.592,203.610 213.218,202.400 214.781 C 201.190 216.344,199.889 217.974,199.510 218.402 C 199.130 218.830,198.110 220.220,197.242 221.490 C 196.375 222.761,194.933 224.340,194.039 225.000 C 193.145 225.660,192.294 226.559,192.149 226.998 C 192.003 227.438,191.145 228.729,190.242 229.868 C 189.339 231.008,187.970 232.866,187.200 233.998 C 185.882 235.935,185.594 236.283,184.314 237.481 C 184.031 237.745,183.618 238.195,183.396 238.481 C 181.034 241.521,180.058 242.725,179.260 243.586 C 178.742 244.144,177.888 245.334,177.362 246.231 C 176.835 247.128,175.979 248.090,175.458 248.369 C 174.938 248.647,174.262 249.443,173.956 250.138 C 173.650 250.832,173.240 251.340,173.045 251.266 C 172.550 251.079,172.013 252.026,172.006 253.100 C 172.003 253.625,171.753 254.000,171.408 254.000 C 171.082 254.000,170.702 254.450,170.564 255.000 C 170.414 255.597,170.027 256.000,169.603 256.000 C 169.213 256.000,168.799 256.360,168.684 256.800 C 167.381 261.782,166.546 243.954,167.785 237.600 C 169.929 226.600,174.629 217.977,182.610 210.400 C 185.867 207.307,189.298 203.860,195.837 197.110 C 198.498 194.363,201.243 191.696,201.937 191.183 C 202.632 190.670,203.200 189.908,203.200 189.491 C 203.200 189.074,203.402 188.801,203.650 188.883 C 204.061 189.020,208.400 185.123,208.400 184.617 C 208.400 184.497,209.068 183.769,209.883 182.999 C 210.699 182.230,211.244 181.600,211.093 181.600 C 210.943 181.600,211.947 180.552,213.323 179.271 C 214.700 177.990,216.390 176.415,217.079 175.771 C 219.822 173.207,220.332 172.800,220.803 172.800 C 221.096 172.800,221.209 172.479,221.084 172.000 C 220.944 171.463,221.072 171.200,221.475 171.200 C 221.805 171.200,222.169 170.840,222.284 170.400 C 222.399 169.960,222.663 169.600,222.870 169.600 C 223.709 169.600,226.780 166.015,226.521 165.338 C 226.328 164.836,226.423 164.723,226.890 164.902 C 227.538 165.151,229.205 163.607,229.711 162.287 C 229.858 161.905,230.125 161.639,230.305 161.696 C 231.148 161.964,234.122 158.828,233.610 158.212 C 232.891 157.346,232.299 157.453,232.598 158.395 C 232.823 159.103,232.715 159.163,231.608 158.942 C 230.670 158.754,230.393 158.829,230.482 159.246 C 230.547 159.551,230.315 159.780,229.966 159.755 C 229.497 159.723,229.382 159.974,229.525 160.721 C 229.681 161.534,229.590 161.682,229.059 161.478 C 228.609 161.305,228.390 161.443,228.368 161.913 C 228.349 162.330,228.258 162.403,228.135 162.100 C 227.872 161.448,226.800 161.451,226.800 162.104 C 226.800 162.381,226.423 162.843,225.963 163.130 C 225.326 163.528,225.188 163.897,225.384 164.677 C 225.588 165.493,225.515 165.653,225.025 165.465 C 224.670 165.329,223.961 165.645,223.347 166.214 C 222.762 166.757,222.415 167.200,222.575 167.200 C 222.736 167.200,222.304 167.911,221.615 168.780 C 220.879 169.710,220.137 170.274,219.813 170.150 C 219.234 169.928,217.600 171.304,217.600 172.013 C 217.600 172.239,217.305 172.538,216.943 172.677 C 215.939 173.063,210.735 178.372,210.978 178.764 C 211.095 178.954,210.900 179.085,210.543 179.055 C 210.180 179.024,209.610 179.569,209.247 180.291 C 208.891 181.001,208.367 181.586,208.083 181.591 C 207.798 181.596,206.583 182.635,205.383 183.900 C 204.182 185.165,202.921 186.470,202.580 186.800 C 196.188 192.990,194.800 194.445,194.800 194.962 C 194.800 195.299,194.575 195.491,194.300 195.389 C 194.025 195.286,192.810 196.198,191.600 197.415 C 190.390 198.632,188.590 200.386,187.600 201.314 C 186.610 202.241,184.706 204.080,183.369 205.400 C 182.032 206.720,179.814 208.880,178.440 210.200 C 177.066 211.520,175.211 213.669,174.317 214.975 C 173.423 216.281,172.356 217.710,171.946 218.150 C 171.536 218.591,171.200 219.109,171.200 219.303 C 171.200 219.497,170.651 220.453,169.981 221.428 C 169.310 222.403,168.861 223.200,168.982 223.200 C 169.103 223.200,168.584 224.415,167.829 225.900 C 166.368 228.773,165.969 229.739,165.732 230.969 C 165.651 231.391,165.429 231.931,165.239 232.169 C 164.883 232.615,164.510 234.490,164.161 237.600 C 164.049 238.590,163.761 239.797,163.521 240.283 C 163.203 240.923,163.213 243.665,163.555 250.283 C 163.884 256.635,163.911 261.463,163.644 266.200 C 162.849 280.280,163.031 290.673,164.084 291.350 C 165.258 292.106,235.519 292.582,237.164 291.845 L 238.127 291.414 237.839 257.607 C 237.680 239.013,237.521 222.733,237.485 221.429 L 237.419 219.057 240.409 218.961 C 242.054 218.909,256.205 218.673,271.855 218.438 C 287.505 218.202,301.545 217.831,303.055 217.613 C 304.565 217.394,306.004 217.212,306.254 217.208 C 306.504 217.204,307.008 216.570,307.373 215.800 C 307.739 215.030,308.209 214.400,308.419 214.400 C 308.628 214.400,308.800 214.051,308.800 213.624 C 308.800 213.197,308.951 212.754,309.136 212.640 C 309.702 212.290,309.367 204.351,308.771 203.982 C 308.399 203.752,308.371 203.510,308.672 203.130 C 309.195 202.470,309.335 195.875,309.335 171.800 C 309.335 145.341,309.351 145.600,307.792 145.600 C 307.272 145.600,306.736 145.420,306.600 145.200 C 306.455 144.965,304.095 144.800,300.876 144.800 C 297.864 144.799,293.510 144.632,291.200 144.428 C 288.890 144.224,282.050 143.969,276.000 143.861 L 265.000 143.666 261.400 144.955 M247.959 152.162 C 247.883 152.981,244.000 156.182,244.000 155.426 C 244.000 155.048,244.561 154.177,245.247 153.491 C 246.258 152.480,246.413 152.112,246.062 151.550 C 245.742 151.039,245.756 150.811,246.114 150.681 C 246.691 150.471,248.017 151.536,247.959 152.162 M288.018 153.858 C 288.554 154.394,286.459 156.574,284.600 157.415 C 283.940 157.713,282.680 158.614,281.800 159.418 C 280.920 160.222,279.120 161.712,277.800 162.730 C 276.480 163.748,274.819 165.191,274.109 165.937 C 273.399 166.683,272.209 167.767,271.464 168.346 C 269.676 169.738,262.832 175.420,261.744 176.416 C 261.273 176.847,260.733 177.200,260.544 177.200 C 260.355 177.200,259.423 178.103,258.472 179.207 C 255.529 182.624,255.006 179.422,257.361 172.403 C 260.272 163.725,266.493 157.839,276.600 154.197 C 279.213 153.255,287.179 153.019,288.018 153.858 M243.319 157.146 C 242.713 157.552,241.641 159.627,240.841 161.944 C 240.056 164.218,239.645 164.267,239.819 162.066 C 239.944 160.498,241.596 157.200,242.257 157.200 C 242.508 157.200,242.845 156.885,243.004 156.500 C 243.223 155.969,243.342 155.932,243.495 156.346 C 243.607 156.647,243.527 157.007,243.319 157.146 M239.269 166.553 C 239.043 167.019,238.754 167.670,238.626 168.000 C 238.499 168.330,238.492 167.807,238.612 166.838 C 238.867 164.771,239.313 163.855,239.530 164.953 C 239.612 165.366,239.494 166.086,239.269 166.553 M213.200 178.000 C 213.200 178.220,212.930 178.400,212.600 178.400 C 212.270 178.400,212.000 178.220,212.000 178.000 C 212.000 177.780,212.270 177.600,212.600 177.600 C 212.930 177.600,213.200 177.780,213.200 178.000 M308.000 213.800 C 308.000 214.130,307.820 214.400,307.600 214.400 C 307.380 214.400,307.200 214.130,307.200 213.800 C 307.200 213.470,307.380 213.200,307.600 213.200 C 307.820 213.200,308.000 213.470,308.000 213.800 " stroke="none" fill="#1ec062" fill-rule="evenodd"></path><path id="path2" d="M161.660 70.100 C 160.928 71.487,161.191 143.000,161.928 143.000 C 162.530 143.000,162.542 140.514,162.148 97.308 L 161.906 70.816 162.979 70.408 C 164.170 69.955,232.133 69.814,235.369 70.258 L 237.249 70.515 237.145 96.358 C 237.083 112.018,236.893 122.302,236.664 122.459 C 236.296 122.711,235.773 124.959,235.329 128.200 C 235.209 129.080,234.976 129.980,234.813 130.200 C 234.650 130.420,234.271 131.455,233.971 132.500 C 233.671 133.545,233.285 134.400,233.113 134.400 C 232.941 134.400,232.800 134.777,232.800 135.238 C 232.800 135.699,232.479 136.554,232.086 137.138 C 231.693 137.722,231.110 138.740,230.791 139.400 C 230.158 140.710,228.874 142.681,228.126 143.492 C 227.866 143.774,227.538 144.364,227.399 144.802 C 227.260 145.241,226.978 145.600,226.773 145.600 C 226.568 145.600,226.400 145.828,226.400 146.106 C 226.400 146.884,222.502 151.525,219.602 154.198 C 216.105 157.422,200.505 172.790,183.845 189.423 C 176.340 196.915,169.345 203.732,168.300 204.571 C 166.089 206.346,165.947 206.800,167.601 206.800 C 168.853 206.800,226.000 150.326,226.000 149.089 C 226.000 148.807,226.360 148.317,226.800 148.000 C 227.240 147.683,227.600 147.191,227.600 146.908 C 227.600 146.625,228.140 145.828,228.800 145.137 C 229.460 144.446,230.000 143.721,230.000 143.524 C 230.000 143.327,230.360 142.780,230.800 142.308 C 231.240 141.836,231.600 141.213,231.600 140.925 C 231.600 140.636,231.780 140.400,232.000 140.400 C 232.220 140.400,232.400 140.040,232.400 139.600 C 232.400 139.160,232.580 138.800,232.800 138.800 C 233.020 138.800,233.200 138.361,233.200 137.824 C 233.200 137.287,233.380 136.736,233.600 136.600 C 233.820 136.464,234.000 136.003,234.000 135.576 C 234.000 135.149,234.180 134.800,234.400 134.800 C 234.620 134.800,234.800 134.260,234.800 133.600 C 234.800 132.940,234.980 132.400,235.200 132.400 C 235.420 132.400,235.600 131.860,235.600 131.200 C 235.600 130.540,235.780 130.000,236.000 130.000 C 236.220 130.000,236.400 129.291,236.400 128.424 C 236.400 127.557,236.580 126.736,236.800 126.600 C 237.020 126.464,237.200 125.474,237.200 124.400 C 237.200 123.326,237.380 122.336,237.600 122.200 C 238.222 121.816,238.143 70.303,237.520 69.680 C 237.154 69.314,228.184 69.200,199.588 69.200 L 162.135 69.200 161.660 70.100 M166.729 75.441 C 166.424 76.015,167.074 88.518,167.455 89.400 C 167.976 90.608,168.712 90.531,169.402 89.197 C 169.742 88.539,170.184 88.000,170.385 88.000 C 170.585 88.000,171.153 87.280,171.648 86.400 C 172.143 85.520,172.694 84.800,172.874 84.800 C 173.053 84.800,173.200 84.530,173.200 84.200 C 173.200 83.870,173.379 83.600,173.597 83.600 C 173.815 83.600,174.310 82.975,174.697 82.211 C 175.084 81.447,175.927 79.822,176.570 78.601 C 177.340 77.140,177.606 76.246,177.346 75.986 C 176.832 75.472,166.981 74.967,166.729 75.441 M219.600 110.826 C 219.600 111.060,220.500 112.129,221.600 113.200 C 222.700 114.271,223.600 115.430,223.600 115.774 C 223.600 116.118,223.735 116.401,223.900 116.403 C 224.343 116.408,225.200 118.421,225.200 119.456 C 225.200 119.949,225.380 120.464,225.600 120.600 C 225.839 120.748,226.000 123.396,226.000 127.200 C 226.000 131.004,225.839 133.652,225.600 133.800 C 225.380 133.936,225.200 134.577,225.200 135.224 C 225.200 135.871,225.020 136.400,224.800 136.400 C 224.580 136.400,224.400 136.665,224.400 136.988 C 224.400 137.311,224.040 138.217,223.600 139.000 C 223.160 139.783,222.800 140.768,222.800 141.189 C 222.800 141.609,222.620 142.064,222.400 142.200 C 222.180 142.336,222.000 142.887,222.000 143.424 C 222.000 143.961,221.820 144.400,221.600 144.400 C 221.380 144.400,221.200 144.874,221.200 145.453 C 221.200 146.032,220.868 146.797,220.462 147.153 C 219.663 147.854,219.107 149.896,219.629 150.218 C 219.957 150.420,222.400 147.145,222.400 146.503 C 222.400 146.309,222.760 145.405,223.200 144.494 C 223.640 143.584,224.000 142.565,224.000 142.230 C 224.000 141.895,224.386 140.762,224.859 139.711 C 225.331 138.660,225.848 137.440,226.009 137.000 C 226.169 136.560,226.503 135.697,226.750 135.081 C 227.347 133.597,227.343 121.904,226.745 120.028 C 225.452 115.974,224.834 114.873,222.526 112.517 C 220.521 110.470,219.600 109.938,219.600 110.826 M88.042 143.722 C 87.505 144.725,87.662 213.718,88.209 217.100 L 88.484 218.800 116.018 218.800 C 133.943 218.800,143.639 218.660,143.800 218.400 C 143.936 218.180,144.746 218.000,145.600 218.000 C 146.454 218.000,147.264 217.820,147.400 217.600 C 147.536 217.380,148.177 217.200,148.824 217.200 C 149.471 217.200,150.000 217.020,150.000 216.800 C 150.000 216.580,150.360 216.400,150.800 216.400 C 151.240 216.400,151.600 216.220,151.600 216.000 C 151.600 215.780,151.960 215.600,152.400 215.600 C 153.152 215.600,153.200 215.333,153.200 211.200 C 153.200 208.780,153.044 206.800,152.854 206.800 C 152.475 206.800,152.000 209.675,152.000 211.976 C 152.000 213.543,151.434 214.400,150.400 214.400 C 150.048 214.400,149.556 214.604,149.307 214.853 C 148.827 215.333,145.539 216.506,143.200 217.031 C 142.430 217.204,141.530 217.410,141.200 217.490 C 139.605 217.873,90.595 217.528,90.116 217.130 C 89.370 216.511,89.354 145.102,90.100 144.484 C 90.419 144.219,95.659 144.039,104.600 143.986 C 112.300 143.940,119.230 143.854,120.000 143.794 C 120.770 143.734,126.575 143.666,132.900 143.642 C 140.272 143.615,144.400 143.456,144.400 143.200 C 144.400 142.937,134.823 142.800,116.468 142.800 L 88.535 142.800 88.042 143.722 M259.400 143.200 C 259.264 143.420,258.094 143.600,256.800 143.600 C 255.506 143.600,254.336 143.780,254.200 144.000 C 254.064 144.220,253.434 144.400,252.800 144.400 C 252.166 144.400,251.536 144.580,251.400 144.800 C 251.264 145.020,250.634 145.200,250.000 145.200 C 249.366 145.200,248.736 145.380,248.600 145.600 C 248.464 145.820,247.924 146.000,247.400 146.000 C 246.876 146.000,246.336 146.180,246.200 146.400 C 246.064 146.620,245.603 146.800,245.176 146.800 C 244.749 146.800,244.400 146.944,244.400 147.120 C 244.400 147.295,243.725 147.681,242.900 147.976 C 242.075 148.271,241.310 148.622,241.200 148.756 C 240.883 149.143,238.669 150.427,237.900 150.671 C 237.515 150.793,237.200 151.052,237.200 151.247 C 237.200 151.441,236.957 151.600,236.659 151.600 C 236.362 151.600,235.554 152.140,234.863 152.800 C 234.172 153.460,233.457 154.000,233.274 154.000 C 233.091 154.000,231.978 154.900,230.800 156.000 C 229.622 157.100,228.465 158.008,228.229 158.018 C 227.993 158.028,226.900 159.040,225.800 160.268 C 221.455 165.117,216.806 170.000,216.535 170.000 C 216.228 170.000,206.800 179.432,206.800 179.739 C 206.800 180.143,204.135 182.662,203.416 182.938 C 203.077 183.069,202.800 183.362,202.800 183.591 C 202.800 184.096,197.824 189.028,196.992 189.348 C 196.667 189.473,196.400 189.851,196.400 190.187 C 196.400 190.524,196.164 190.800,195.875 190.800 C 195.405 190.800,190.800 195.307,190.800 195.767 C 190.800 196.113,185.561 201.200,185.204 201.200 C 184.603 201.200,173.200 212.809,173.200 213.421 C 173.200 213.739,173.041 214.000,172.846 214.000 C 172.651 214.000,172.204 214.605,171.853 215.345 C 171.502 216.085,170.941 216.917,170.607 217.194 C 170.273 217.471,170.000 217.946,170.000 218.249 C 170.000 218.552,169.820 218.800,169.600 218.800 C 169.380 218.800,169.200 219.160,169.200 219.600 C 169.200 220.040,169.047 220.400,168.860 220.400 C 168.673 220.400,167.934 221.615,167.218 223.100 C 166.502 224.585,165.755 226.113,165.558 226.495 C 165.361 226.877,165.200 227.464,165.200 227.800 C 165.200 228.136,165.020 228.768,164.800 229.205 C 164.580 229.642,164.220 230.358,164.000 230.795 C 163.780 231.232,163.600 232.096,163.600 232.715 C 163.600 233.334,163.438 234.011,163.241 234.220 C 162.424 235.084,162.285 239.469,162.243 265.600 L 162.200 293.000 199.954 293.102 C 235.554 293.198,237.739 293.164,238.239 292.502 C 238.669 291.932,238.770 285.424,238.775 257.914 C 238.780 233.862,238.914 223.501,239.238 222.214 L 239.695 220.400 241.747 220.352 C 242.876 220.326,257.390 220.264,274.000 220.215 C 290.610 220.166,305.234 219.990,306.497 219.826 C 309.753 219.401,311.600 217.576,311.600 214.784 C 311.600 213.719,311.780 212.736,312.000 212.600 C 312.602 212.228,312.513 204.280,311.900 203.630 C 311.500 203.206,311.500 203.063,311.900 202.917 C 312.658 202.639,312.603 144.500,311.843 143.500 C 311.221 142.680,259.903 142.387,259.400 143.200 M310.954 144.586 C 311.598 145.569,312.008 201.859,311.376 202.491 C 311.252 202.614,311.074 205.299,310.979 208.458 C 310.884 211.616,310.729 214.560,310.634 215.000 C 310.539 215.440,310.447 216.021,310.431 216.291 C 310.302 218.346,304.402 219.068,286.448 219.225 C 280.372 219.279,273.060 219.367,270.200 219.422 C 267.340 219.477,258.925 219.540,251.500 219.561 L 238.000 219.600 238.000 256.008 L 238.000 292.416 200.833 292.308 C 180.391 292.249,163.516 292.050,163.333 291.867 C 162.919 291.452,162.886 239.194,163.300 238.938 C 163.465 238.836,163.600 237.874,163.600 236.800 C 163.600 235.726,163.780 234.736,164.000 234.600 C 164.220 234.464,164.400 233.744,164.400 233.000 C 164.400 232.256,164.580 231.536,164.800 231.400 C 165.020 231.264,165.200 230.713,165.200 230.176 C 165.200 229.639,165.380 229.200,165.600 229.200 C 165.820 229.200,166.000 228.660,166.000 228.000 C 166.000 227.340,166.180 226.800,166.400 226.800 C 166.620 226.800,166.800 226.455,166.800 226.033 C 166.800 225.612,166.935 225.207,167.100 225.133 C 167.265 225.060,167.848 224.100,168.395 223.000 C 168.942 221.900,169.482 220.910,169.595 220.800 C 170.070 220.337,170.800 218.766,170.800 218.205 C 170.800 217.872,170.975 217.600,171.188 217.600 C 171.401 217.600,172.483 216.256,173.592 214.613 C 174.700 212.969,176.547 210.764,177.695 209.713 C 180.325 207.302,205.022 182.938,207.761 180.051 C 208.883 178.870,213.265 174.465,217.500 170.264 C 221.735 166.063,225.200 162.450,225.200 162.236 C 225.200 160.984,238.360 151.047,241.900 149.625 C 242.615 149.338,243.200 148.945,243.200 148.751 C 243.200 148.558,243.560 148.400,244.000 148.400 C 244.440 148.400,244.800 148.220,244.800 148.000 C 244.800 147.780,245.250 147.600,245.800 147.600 C 246.350 147.600,246.800 147.420,246.800 147.200 C 246.800 146.980,247.329 146.800,247.976 146.800 C 248.623 146.800,249.264 146.620,249.400 146.400 C 249.536 146.180,250.076 146.000,250.600 146.000 C 251.124 146.000,251.664 145.820,251.800 145.600 C 251.936 145.380,252.656 145.200,253.400 145.200 C 254.144 145.200,254.864 145.020,255.000 144.800 C 255.136 144.580,256.306 144.400,257.600 144.400 C 258.894 144.400,260.064 144.220,260.200 144.000 C 260.361 143.740,269.189 143.600,285.378 143.600 L 310.308 143.600 310.954 144.586 M93.357 148.967 C 93.023 149.839,93.779 175.112,94.151 175.484 C 94.468 175.802,97.600 172.621,97.600 171.981 C 97.600 171.751,98.005 171.144,98.500 170.632 C 99.789 169.298,100.583 168.222,100.714 167.629 C 100.777 167.346,101.092 166.851,101.414 166.529 C 101.736 166.206,102.000 165.765,102.000 165.548 C 102.000 165.331,102.160 165.251,102.355 165.372 C 102.741 165.611,103.723 164.602,103.833 163.852 C 103.871 163.595,104.509 162.514,105.251 161.450 C 108.258 157.135,109.680 154.614,109.313 154.247 C 109.045 153.978,111.975 151.201,112.528 151.200 C 113.932 151.199,112.396 149.371,110.800 149.144 C 105.574 148.399,93.622 148.278,93.357 148.967 M267.420 159.583 C 265.677 160.732,261.361 165.387,260.742 166.786 C 260.447 167.454,260.069 168.000,259.902 168.000 C 259.736 168.000,259.600 168.282,259.600 168.627 C 259.600 169.840,261.141 168.781,265.219 164.762 C 267.787 162.232,269.192 160.557,269.053 160.194 C 268.932 159.879,269.141 159.442,269.517 159.223 C 270.134 158.863,270.123 158.823,269.400 158.815 C 268.960 158.810,268.069 159.155,267.420 159.583 M199.320 196.477 C 198.139 197.738,197.301 198.400,196.885 198.400 C 196.269 198.400,191.600 202.847,191.600 203.434 C 191.600 203.745,191.409 204.000,191.175 204.000 C 190.941 204.000,189.363 205.305,187.668 206.900 C 185.973 208.495,183.418 210.880,181.990 212.200 C 178.755 215.189,176.379 218.060,175.203 220.400 C 174.706 221.390,173.615 223.370,172.780 224.800 C 171.158 227.576,169.434 232.855,169.022 236.305 C 168.884 237.463,168.668 238.678,168.543 239.005 C 168.384 239.419,168.578 239.600,169.184 239.600 C 170.334 239.600,171.600 238.899,171.600 238.261 C 171.600 237.981,172.005 237.317,172.500 236.788 C 172.995 236.258,173.720 235.189,174.110 234.412 C 174.501 233.635,175.084 232.550,175.405 232.000 C 175.726 231.450,175.991 230.505,175.994 229.900 C 175.997 229.295,176.225 228.781,176.500 228.757 C 176.775 228.734,177.343 228.689,177.763 228.657 C 178.218 228.623,178.701 228.116,178.963 227.400 C 179.431 226.114,180.672 224.054,181.372 223.400 C 182.363 222.474,184.000 220.007,184.000 219.441 C 184.000 219.104,184.360 218.635,184.800 218.400 C 185.240 218.165,185.600 217.825,185.600 217.645 C 185.600 217.040,189.713 211.136,190.460 210.670 C 190.867 210.415,191.200 210.069,191.200 209.899 C 191.200 209.730,191.965 208.501,192.900 207.168 C 193.835 205.836,194.831 204.317,195.113 203.792 C 195.395 203.267,196.070 202.489,196.613 202.061 C 197.156 201.634,197.600 201.190,197.600 201.073 C 197.600 200.957,198.158 200.304,198.839 199.622 C 199.649 198.813,199.991 198.154,199.826 197.723 C 199.687 197.361,199.781 196.935,200.035 196.778 C 200.289 196.621,200.427 196.281,200.341 196.023 C 200.244 195.733,199.855 195.906,199.320 196.477 M338.000 352.286 C 338.000 353.322,339.093 353.841,341.530 353.959 C 343.651 354.062,343.659 354.058,343.530 352.931 C 343.364 351.488,338.000 350.861,338.000 352.286 M333.192 352.610 C 332.914 352.945,332.797 353.331,332.933 353.467 C 333.224 353.757,334.400 352.863,334.400 352.351 C 334.400 351.800,333.748 351.940,333.192 352.610 " stroke="none" fill="#86d7cc" fill-rule="evenodd"></path><path id="path3" d="M260.200 144.000 C 260.064 144.220,258.894 144.400,257.600 144.400 C 256.306 144.400,255.136 144.580,255.000 144.800 C 254.864 145.020,254.144 145.200,253.400 145.200 C 252.656 145.200,251.936 145.380,251.800 145.600 C 251.664 145.820,251.124 146.000,250.600 146.000 C 250.076 146.000,249.536 146.180,249.400 146.400 C 249.264 146.620,248.623 146.800,247.976 146.800 C 247.329 146.800,246.800 146.980,246.800 147.200 C 246.800 147.420,246.350 147.600,245.800 147.600 C 245.250 147.600,244.800 147.780,244.800 148.000 C 244.800 148.220,244.440 148.400,244.000 148.400 C 243.560 148.400,243.200 148.558,243.200 148.751 C 243.200 148.945,242.615 149.338,241.900 149.625 C 238.360 151.047,225.200 160.984,225.200 162.236 C 225.200 162.450,221.735 166.063,217.500 170.264 C 213.265 174.465,208.883 178.870,207.761 180.051 C 205.022 182.938,180.325 207.302,177.695 209.713 C 176.547 210.764,174.700 212.969,173.592 214.613 C 172.483 216.256,171.401 217.600,171.188 217.600 C 170.975 217.600,170.800 217.872,170.800 218.205 C 170.800 218.766,170.070 220.337,169.595 220.800 C 169.482 220.910,168.942 221.900,168.395 223.000 C 167.848 224.100,167.265 225.060,167.100 225.133 C 166.935 225.207,166.800 225.612,166.800 226.033 C 166.800 226.455,166.620 226.800,166.400 226.800 C 166.180 226.800,166.000 227.340,166.000 228.000 C 166.000 228.660,165.820 229.200,165.600 229.200 C 165.380 229.200,165.200 229.639,165.200 230.176 C 165.200 230.713,165.020 231.264,164.800 231.400 C 164.580 231.536,164.400 232.256,164.400 233.000 C 164.400 233.744,164.220 234.464,164.000 234.600 C 163.780 234.736,163.600 235.726,163.600 236.800 C 163.600 237.874,163.451 238.845,163.268 238.958 C 162.857 239.212,162.981 275.919,163.394 276.314 C 163.559 276.471,163.574 276.042,163.428 275.360 C 163.282 274.678,163.357 270.718,163.596 266.560 C 163.917 260.954,163.906 256.696,163.555 250.085 C 163.210 243.598,163.200 240.929,163.520 240.285 C 163.761 239.798,164.049 238.590,164.161 237.600 C 164.510 234.490,164.883 232.615,165.239 232.169 C 165.429 231.931,165.651 231.391,165.732 230.969 C 165.969 229.739,166.368 228.773,167.829 225.900 C 168.584 224.415,169.103 223.200,168.982 223.200 C 168.861 223.200,169.310 222.403,169.981 221.428 C 170.651 220.453,171.200 219.497,171.200 219.303 C 171.200 219.109,171.536 218.591,171.946 218.150 C 172.356 217.710,173.423 216.281,174.317 214.975 C 175.211 213.669,177.066 211.520,178.440 210.200 C 179.814 208.880,182.032 206.720,183.369 205.400 C 184.706 204.080,186.610 202.241,187.600 201.314 C 188.590 200.386,190.390 198.632,191.600 197.415 C 192.810 196.198,194.025 195.286,194.300 195.389 C 194.575 195.491,194.800 195.299,194.800 194.962 C 194.800 194.445,196.188 192.990,202.580 186.800 C 202.921 186.470,204.182 185.165,205.383 183.900 C 206.583 182.635,207.798 181.596,208.083 181.591 C 208.367 181.586,208.891 181.001,209.247 180.291 C 209.610 179.569,210.180 179.024,210.543 179.055 C 210.900 179.085,211.095 178.954,210.978 178.764 C 210.735 178.372,215.939 173.063,216.943 172.677 C 217.305 172.538,217.600 172.239,217.600 172.013 C 217.600 171.304,219.234 169.928,219.813 170.150 C 220.137 170.274,220.879 169.710,221.615 168.780 C 222.304 167.911,222.736 167.200,222.575 167.200 C 222.415 167.200,222.762 166.757,223.347 166.214 C 223.961 165.645,224.670 165.329,225.025 165.465 C 225.515 165.653,225.588 165.493,225.384 164.677 C 225.188 163.897,225.326 163.528,225.963 163.130 C 226.423 162.843,226.800 162.381,226.800 162.104 C 226.800 161.451,227.872 161.448,228.135 162.100 C 228.258 162.403,228.349 162.330,228.368 161.913 C 228.390 161.443,228.609 161.305,229.059 161.478 C 229.590 161.682,229.681 161.534,229.525 160.721 C 229.382 159.974,229.497 159.723,229.966 159.755 C 230.315 159.780,230.547 159.551,230.482 159.246 C 230.393 158.829,230.670 158.754,231.608 158.942 C 232.715 159.163,232.823 159.103,232.598 158.395 C 232.299 157.453,232.891 157.346,233.610 158.212 C 234.122 158.828,231.148 161.964,230.305 161.696 C 230.125 161.639,229.858 161.905,229.711 162.287 C 229.205 163.607,227.538 165.151,226.890 164.902 C 226.423 164.723,226.328 164.836,226.521 165.338 C 226.780 166.015,223.709 169.600,222.870 169.600 C 222.663 169.600,222.399 169.960,222.284 170.400 C 222.169 170.840,221.805 171.200,221.475 171.200 C 221.072 171.200,220.944 171.463,221.084 172.000 C 221.209 172.479,221.096 172.800,220.803 172.800 C 220.332 172.800,219.822 173.207,217.079 175.771 C 216.390 176.415,214.700 177.990,213.323 179.271 C 211.947 180.552,210.943 181.600,211.093 181.600 C 211.244 181.600,210.699 182.230,209.883 182.999 C 209.068 183.769,208.400 184.497,208.400 184.617 C 208.400 185.123,204.061 189.020,203.650 188.883 C 203.402 188.801,203.200 189.074,203.200 189.491 C 203.200 189.908,202.632 190.670,201.937 191.183 C 201.243 191.696,198.498 194.363,195.837 197.110 C 189.298 203.860,185.867 207.307,182.610 210.400 C 170.543 221.856,165.687 236.121,167.461 254.900 C 167.710 257.538,168.265 258.401,168.684 256.800 C 168.799 256.360,169.213 256.000,169.603 256.000 C 170.027 256.000,170.414 255.597,170.564 255.000 C 170.702 254.450,171.082 254.000,171.408 254.000 C 171.753 254.000,172.003 253.625,172.006 253.100 C 172.013 252.026,172.550 251.079,173.045 251.266 C 173.240 251.340,173.650 250.832,173.956 250.138 C 174.262 249.443,174.938 248.647,175.458 248.369 C 175.979 248.090,176.835 247.128,177.362 246.231 C 177.888 245.334,178.742 244.144,179.260 243.586 C 179.777 243.028,180.827 241.768,181.594 240.786 C 183.654 238.148,184.251 237.459,185.281 236.533 C 185.566 236.277,186.430 235.138,187.200 234.004 C 187.970 232.869,189.339 231.008,190.242 229.868 C 191.145 228.729,192.003 227.438,192.149 226.998 C 192.294 226.559,193.145 225.660,194.039 225.000 C 194.933 224.340,196.375 222.761,197.242 221.490 C 198.110 220.220,199.130 218.830,199.510 218.402 C 199.889 217.974,201.190 216.344,202.400 214.781 C 203.610 213.218,205.815 210.592,207.300 208.946 C 208.785 207.299,210.021 205.738,210.046 205.476 C 210.072 205.214,210.117 204.799,210.146 204.553 C 210.176 204.307,210.785 203.592,211.500 202.964 C 212.215 202.336,212.800 201.692,212.800 201.533 C 212.800 201.373,214.209 199.815,215.932 198.069 C 217.654 196.323,219.296 194.334,219.580 193.647 C 219.865 192.961,220.233 192.400,220.400 192.400 C 220.567 192.400,221.696 191.095,222.909 189.500 C 224.123 187.905,225.944 185.700,226.956 184.600 C 227.968 183.500,228.797 182.235,228.798 181.789 C 228.800 180.923,229.874 179.822,231.391 179.131 C 232.743 178.515,233.692 176.074,235.020 169.800 C 235.970 165.308,236.709 163.275,238.145 161.200 C 238.829 160.210,239.358 159.298,239.319 159.173 C 239.280 159.048,239.688 158.435,240.224 157.811 C 241.317 156.539,241.342 156.443,240.806 155.600 C 240.488 155.099,240.287 155.085,239.596 155.514 C 239.140 155.796,238.606 155.927,238.408 155.805 C 238.211 155.683,237.848 155.902,237.601 156.292 C 237.282 156.797,237.093 156.857,236.943 156.500 C 236.613 155.713,236.000 155.916,236.000 156.813 C 236.000 157.659,235.117 158.243,234.456 157.835 C 233.745 157.395,236.106 155.200,237.289 155.200 C 238.017 155.200,238.400 154.990,238.400 154.591 C 238.400 154.257,238.895 153.765,239.500 153.500 C 240.105 153.234,240.744 152.788,240.920 152.508 C 241.096 152.229,241.598 152.000,242.037 152.000 C 242.475 152.000,243.189 151.669,243.623 151.264 C 245.353 149.653,246.234 149.430,247.850 150.197 C 248.840 150.667,249.540 150.782,249.926 150.538 C 250.753 150.017,250.366 149.400,249.300 149.539 C 248.805 149.604,248.400 149.485,248.400 149.275 C 248.400 148.722,250.117 148.357,250.573 148.813 C 251.236 149.476,252.406 149.281,252.127 148.554 C 251.932 148.045,252.056 147.964,252.713 148.172 C 253.267 148.348,254.462 147.980,256.273 147.077 C 257.773 146.328,260.305 145.325,261.900 144.847 C 263.495 144.368,264.800 143.892,264.800 143.788 C 264.800 143.411,260.440 143.611,260.200 144.000 M282.200 144.029 C 286.160 144.179,293.231 144.441,297.913 144.610 C 302.596 144.780,306.521 145.072,306.637 145.260 C 306.753 145.447,307.272 145.600,307.792 145.600 C 309.351 145.600,309.335 145.341,309.335 171.800 C 309.335 195.875,309.195 202.470,308.672 203.130 C 308.371 203.510,308.399 203.752,308.771 203.982 C 309.367 204.351,309.702 212.290,309.136 212.640 C 308.951 212.754,308.800 213.197,308.800 213.624 C 308.800 214.051,308.628 214.400,308.419 214.400 C 308.209 214.400,307.739 215.030,307.373 215.800 C 307.008 216.570,306.504 217.204,306.254 217.208 C 306.004 217.212,304.565 217.394,303.055 217.613 C 301.545 217.831,287.505 218.202,271.855 218.438 C 256.205 218.673,242.077 218.909,240.459 218.961 L 237.519 219.056 237.578 234.213 C 237.610 242.549,237.718 249.451,237.818 249.551 C 237.918 249.652,238.000 242.953,238.000 234.667 L 238.000 219.600 251.500 219.561 C 258.925 219.540,267.340 219.477,270.200 219.422 C 273.060 219.367,280.372 219.279,286.448 219.225 C 304.402 219.068,310.302 218.346,310.431 216.291 C 310.447 216.021,310.539 215.440,310.634 215.000 C 310.729 214.560,310.884 211.616,310.979 208.458 C 311.074 205.299,311.252 202.614,311.376 202.491 C 312.008 201.859,311.598 145.569,310.954 144.586 L 310.308 143.600 292.654 143.679 C 278.586 143.741,276.462 143.812,282.200 144.029 M246.114 150.681 C 245.756 150.811,245.742 151.039,246.062 151.550 C 246.413 152.112,246.258 152.480,245.247 153.491 C 244.561 154.177,244.000 155.048,244.000 155.426 C 244.000 156.182,247.883 152.981,247.959 152.162 C 248.017 151.536,246.691 150.471,246.114 150.681 M279.600 153.587 C 276.859 153.987,276.758 154.025,271.388 156.605 C 262.586 160.835,256.000 170.251,256.000 178.606 C 256.000 181.478,256.427 181.582,258.472 179.207 C 259.423 178.103,260.355 177.200,260.544 177.200 C 260.733 177.200,261.273 176.847,261.744 176.416 C 262.832 175.420,269.676 169.738,271.464 168.346 C 272.209 167.767,273.399 166.683,274.109 165.937 C 274.819 165.191,276.480 163.748,277.800 162.730 C 279.120 161.712,280.920 160.222,281.800 159.418 C 282.680 158.614,283.940 157.713,284.600 157.415 C 286.459 156.574,288.554 154.394,288.018 153.858 C 287.471 153.311,282.572 153.154,279.600 153.587 M243.004 156.500 C 242.845 156.885,242.508 157.200,242.257 157.200 C 241.596 157.200,239.944 160.498,239.819 162.066 C 239.645 164.267,240.056 164.218,240.841 161.944 C 241.641 159.627,242.713 157.552,243.319 157.146 C 243.527 157.007,243.607 156.647,243.495 156.346 C 243.342 155.932,243.223 155.969,243.004 156.500 M269.517 159.223 C 269.141 159.442,268.932 159.879,269.053 160.194 C 269.192 160.557,267.787 162.232,265.219 164.762 C 261.141 168.781,259.600 169.840,259.600 168.627 C 259.600 168.282,259.736 168.000,259.902 168.000 C 260.069 168.000,260.447 167.454,260.742 166.786 C 261.904 164.162,267.733 158.795,269.400 158.815 C 270.123 158.823,270.134 158.863,269.517 159.223 M239.105 164.638 C 238.953 164.879,238.731 165.869,238.612 166.838 C 238.492 167.807,238.499 168.330,238.626 168.000 C 238.754 167.670,239.043 167.019,239.269 166.553 C 239.716 165.629,239.569 163.903,239.105 164.638 M212.000 178.000 C 212.000 178.220,212.270 178.400,212.600 178.400 C 212.930 178.400,213.200 178.220,213.200 178.000 C 213.200 177.780,212.930 177.600,212.600 177.600 C 212.270 177.600,212.000 177.780,212.000 178.000 M200.035 196.778 C 199.781 196.935,199.687 197.361,199.826 197.723 C 199.991 198.154,199.649 198.813,198.839 199.622 C 198.158 200.304,197.600 200.957,197.600 201.073 C 197.600 201.190,197.156 201.634,196.613 202.061 C 196.070 202.489,195.395 203.267,195.113 203.792 C 194.831 204.317,193.835 205.836,192.900 207.168 C 191.965 208.501,191.200 209.730,191.200 209.899 C 191.200 210.069,190.867 210.415,190.460 210.670 C 189.713 211.136,185.600 217.040,185.600 217.645 C 185.600 217.825,185.240 218.165,184.800 218.400 C 184.360 218.635,184.000 219.104,184.000 219.441 C 184.000 220.007,182.363 222.474,181.372 223.400 C 180.672 224.054,179.431 226.114,178.963 227.400 C 178.701 228.116,178.218 228.623,177.763 228.657 C 177.343 228.689,176.775 228.734,176.500 228.757 C 176.225 228.781,175.997 229.295,175.994 229.900 C 175.991 230.505,175.726 231.450,175.405 232.000 C 175.084 232.550,174.501 233.635,174.110 234.412 C 173.720 235.189,172.995 236.258,172.500 236.788 C 172.005 237.317,171.600 237.981,171.600 238.261 C 171.600 238.899,170.334 239.600,169.184 239.600 C 168.578 239.600,168.384 239.419,168.543 239.005 C 168.668 238.678,168.884 237.463,169.022 236.305 C 169.434 232.855,171.158 227.576,172.780 224.800 C 173.615 223.370,174.706 221.390,175.203 220.400 C 176.379 218.060,178.755 215.189,181.990 212.200 C 183.418 210.880,185.973 208.495,187.668 206.900 C 189.363 205.305,190.941 204.000,191.175 204.000 C 191.409 204.000,191.600 203.745,191.600 203.434 C 191.600 202.847,196.269 198.400,196.885 198.400 C 197.301 198.400,198.139 197.738,199.320 196.477 C 199.855 195.906,200.244 195.733,200.341 196.023 C 200.427 196.281,200.289 196.621,200.035 196.778 M307.200 213.800 C 307.200 214.130,307.380 214.400,307.600 214.400 C 307.820 214.400,308.000 214.130,308.000 213.800 C 308.000 213.470,307.820 213.200,307.600 213.200 C 307.380 213.200,307.200 213.470,307.200 213.800 M162.961 282.800 C 162.961 286.210,163.022 287.605,163.097 285.900 C 163.172 284.195,163.172 281.405,163.097 279.700 C 163.022 277.995,162.961 279.390,162.961 282.800 M163.200 291.353 C 163.200 292.330,165.576 292.442,183.600 292.313 L 200.600 292.191 182.789 292.096 C 167.421 292.013,164.856 291.915,164.089 291.377 C 163.311 290.832,163.200 290.829,163.200 291.353 M236.800 292.000 C 236.315 292.314,236.372 292.389,237.100 292.394 C 237.595 292.397,238.000 292.220,238.000 292.000 C 238.000 291.499,237.576 291.499,236.800 292.000 M203.317 292.297 C 204.811 292.374,207.151 292.374,208.517 292.296 C 209.882 292.218,208.660 292.155,205.800 292.155 C 202.940 292.156,201.822 292.220,203.317 292.297 M225.300 292.294 C 226.345 292.376,228.055 292.376,229.100 292.294 C 230.145 292.212,229.290 292.144,227.200 292.144 C 225.110 292.144,224.255 292.212,225.300 292.294 " stroke="none" fill="#56de88" fill-rule="evenodd"></path><path id="path4" d="M162.668 70.698 C 162.358 71.211,162.348 89.022,162.656 91.275 C 162.996 93.761,163.491 92.797,163.560 89.514 C 163.582 88.477,163.854 86.857,164.164 85.914 C 164.473 84.971,164.848 83.613,164.996 82.897 C 165.144 82.180,165.424 81.691,165.618 81.811 C 165.812 81.931,166.022 80.268,166.085 78.115 L 166.200 74.200 185.600 74.200 C 205.065 74.200,208.308 74.355,210.577 75.397 C 211.249 75.706,212.340 76.013,213.000 76.079 C 213.660 76.146,214.161 76.407,214.114 76.659 C 214.063 76.926,214.345 77.035,214.787 76.919 C 215.205 76.810,216.144 76.911,216.874 77.145 C 219.270 77.911,230.176 77.843,230.329 77.061 C 230.727 75.028,232.780 76.726,232.795 79.100 C 232.803 80.527,233.597 80.145,233.625 78.700 C 233.659 76.997,234.169 78.184,234.568 80.891 C 235.216 85.289,235.903 83.219,236.125 76.200 C 236.201 73.780,236.340 71.530,236.432 71.200 C 236.615 70.546,163.061 70.045,162.668 70.698 M231.230 72.910 C 231.181 73.388,230.632 73.296,230.460 72.780 C 230.372 72.516,230.516 72.372,230.780 72.460 C 231.044 72.548,231.247 72.751,231.230 72.910 M159.780 143.166 C 159.571 143.367,154.066 143.659,147.546 143.814 C 141.027 143.969,134.637 144.216,133.346 144.362 L 131.000 144.627 134.169 144.914 C 136.062 145.086,137.605 145.443,138.001 145.801 C 138.365 146.130,138.874 146.400,139.131 146.400 C 139.389 146.400,139.600 146.580,139.600 146.800 C 139.600 147.020,139.389 147.200,139.130 147.200 C 138.872 147.200,139.036 147.605,139.495 148.100 C 140.168 148.826,140.230 149.091,139.815 149.469 C 138.717 150.469,138.349 159.642,138.258 188.200 C 138.226 198.320,138.050 207.076,137.867 207.657 C 137.636 208.393,137.730 209.091,138.178 209.957 C 138.531 210.641,138.681 211.206,138.510 211.213 C 138.340 211.220,138.542 211.484,138.959 211.800 C 139.765 212.410,139.281 213.600,138.227 213.600 C 137.966 213.600,137.404 213.878,136.976 214.219 C 136.244 214.803,136.274 214.824,137.500 214.587 C 138.319 214.429,138.800 214.496,138.800 214.768 C 138.800 215.006,138.459 215.200,138.043 215.200 C 137.626 215.200,137.182 215.470,137.055 215.800 C 136.789 216.493,138.581 216.678,139.000 216.000 C 139.136 215.780,139.676 215.600,140.200 215.600 C 140.724 215.600,141.261 215.424,141.394 215.210 C 141.526 214.995,142.966 214.188,144.592 213.417 C 148.713 211.461,152.000 208.943,152.000 207.742 C 152.000 206.910,152.186 206.800,153.600 206.800 C 154.822 206.800,155.200 206.644,155.200 206.138 C 155.200 205.774,155.643 204.895,156.184 204.185 C 156.726 203.475,157.462 202.108,157.822 201.147 C 158.181 200.186,158.619 199.040,158.797 198.600 C 159.559 196.708,160.379 193.854,161.152 190.400 C 161.803 187.493,161.993 181.316,162.024 162.000 L 162.053 143.800 161.020 143.673 C 160.451 143.603,160.090 143.378,160.217 143.173 C 160.511 142.696,160.272 142.692,159.780 143.166 M134.327 216.020 C 134.250 216.251,133.290 216.574,132.193 216.739 L 130.200 217.038 132.987 217.312 C 135.793 217.588,137.638 217.049,135.659 216.531 C 134.967 216.350,134.867 216.203,135.266 215.951 C 135.681 215.688,135.651 215.611,135.133 215.606 C 134.767 215.603,134.404 215.789,134.327 216.020 " stroke="none" fill="#1066c2" fill-rule="evenodd"></path></g></svg>