<svg xmlns="http://www.w3.org/2000/svg" viewBox="0 0 500 500"><path fill="#02ACEE" d="m250.75 54.625 2.886.002c15.132.04 29.587.844 44.364 4.373l2.67.617c19.458 4.638 38.223 12.412 55.38 22.668 2.866 1.8 2.866 1.8 5.95 2.715v2l6 2v2l2.168.781c3.004 1.293 5.467 2.847 8.144 4.719l2.676 1.844L383 100v2l1.688.75c2.736 1.48 4.989 3.185 7.312 5.25v2l1.793.805C400.28 114.318 408.676 123.029 411 130h2c6.06 7.121 11.009 15.402 15.954 23.327.94 1.505 1.897 3 2.855 4.493 10.067 16.322 17.11 35.283 21.316 53.93l.762 3.227c3.316 14.479 4.525 28.541 4.488 43.335l-.002 2.508C458.268 295.9 449.23 328.057 433 359h-2l-.219 2.09c-1.004 3.742-2.994 6.42-5.281 9.473l-1.366 1.859a797.95 797.95 0 0 1-2.795 3.773 382.95 382.95 0 0 0-3.581 4.93C412.059 388.974 405.705 396.017 399 403l-2.414 2.54c-5.17 5.315-10.703 9.956-16.586 14.46l-2.34 1.832C372.262 426 372.262 426 370 426v2c-2.905 2.042-4.401 3-8 3v2c-23.232 13.673-47.402 23.256-74 28l-3.383.648c-24.267 4.114-49.55 3.05-73.617-1.648l-2.181-.401C179.212 454.107 145.689 440.295 123 420v-2l-1.746-.816c-2.293-1.205-4.253-2.56-6.317-4.122l-2.035-1.527c-1.774-1.431-3.4-2.819-4.902-4.535v-2h-2v-2l-1.754-.746C80.046 388.744 63.374 347.857 55 323l-.67-1.972C37.988 272.067 42.792 216.33 65 170c2.203-4.407 4.583-8.708 7-13 .676-1.328 1.347-2.66 2-4h2l.742-2.64c1.354-3.618 3.021-6.065 5.383-9.11l2.418-3.125L87 135l2.3-3c4.05-5.212 4.05-5.212 5.7-7h2l.938-1.875L100 119h2v-2h2v-2h2v-2h2v-2a102.592 102.592 0 0 1 5.25-4.5l2.953-2.406c2.246-1.681 4.244-2.975 6.797-4.094v-2c4.385-3 4.385-3 7-3v-2c1.49-1.202 1.49-1.202 3.594-2.54l2.349-1.497 2.557-1.588 2.61-1.631C148.845 80.976 156.753 76.8 165 73l3.438-1.61C183.974 64.415 200.267 59.998 217 57l2.732-.54c10.31-1.852 20.578-1.857 31.018-1.835Z"/><path fill="#49565E" d="m250.75 54.625 2.886.002c15.132.04 29.587.844 44.364 4.373l2.67.617c19.458 4.638 38.223 12.412 55.38 22.668 2.866 1.8 2.866 1.8 5.95 2.715v2l6 2v2l2.168.781c3.004 1.293 5.467 2.847 8.144 4.719l2.676 1.844L383 100v2l1.688.75c2.736 1.48 4.989 3.185 7.312 5.25v2l1.793.805C400.28 114.318 408.676 123.029 411 130h2c6.06 7.121 11.009 15.402 15.954 23.327.94 1.505 1.897 3 2.855 4.493 10.067 16.322 17.11 35.283 21.316 53.93l.762 3.227c3.316 14.479 4.525 28.541 4.488 43.335l-.002 2.508C458.268 295.9 449.23 328.057 433 359h-2l-.219 2.09c-1.004 3.742-2.994 6.42-5.281 9.473l-1.366 1.859a797.95 797.95 0 0 1-2.795 3.773 382.95 382.95 0 0 0-3.581 4.93C412.059 388.974 405.705 396.017 399 403l-2.414 2.54c-5.17 5.315-10.703 9.956-16.586 14.46l-2.34 1.832C372.262 426 372.262 426 370 426v2c-2.905 2.042-4.401 3-8 3v2c-23.232 13.673-47.402 23.256-74 28l-3.383.648c-24.267 4.114-49.55 3.05-73.617-1.648l-2.181-.401C179.212 454.107 145.689 440.295 123 420v-2l-1.746-.816c-2.293-1.205-4.253-2.56-6.317-4.122l-2.035-1.527c-1.774-1.431-3.4-2.819-4.902-4.535v-2h-2v-2l-1.754-.746C80.046 388.744 63.374 347.857 55 323l-.67-1.972C37.988 272.067 42.792 216.33 65 170c2.203-4.407 4.583-8.708 7-13 .676-1.328 1.347-2.66 2-4h2l.742-2.64c1.354-3.618 3.021-6.065 5.383-9.11l2.418-3.125L87 135l2.3-3c4.05-5.212 4.05-5.212 5.7-7h2l.938-1.875L100 119h2v-2h2v-2h2v-2h2v-2a102.592 102.592 0 0 1 5.25-4.5l2.953-2.406c2.246-1.681 4.244-2.975 6.797-4.094v-2c4.385-3 4.385-3 7-3v-2c1.49-1.202 1.49-1.202 3.594-2.54l2.349-1.497 2.557-1.588 2.61-1.631C148.845 80.976 156.753 76.8 165 73l3.438-1.61C183.974 64.415 200.267 59.998 217 57l2.732-.54c10.31-1.852 20.578-1.857 31.018-1.835ZM165 136l-3.016 2.152C154.96 143.277 148.036 148.714 142 155v2l-1.818.79c-2.338 1.296-3.47 2.465-5.1 4.562l-1.6 2.056c-.55.732-1.102 1.463-1.67 2.217l-1.734 2.285c-5.431 7.307-9.926 15-14.078 23.09l-1.042 2c-3.308 6.45-5.637 13.14-7.958 20l-.879 2.492c-4.73 14.317-5.705 29.36-5.621 44.32l.004 2.505c.056 13.158 1.251 25.153 5.496 37.683.464 1.49.926 2.979 1.387 4.469C113.606 324.842 123.76 341.589 137 357l2.254 2.629c7.142 8.136 14.97 15.057 23.746 21.371l2.23 1.68c6.84 5.02 14.157 8.664 21.77 12.32 1.44.747 2.877 1.496 4.313 2.25 4.11 2.034 8.296 3.44 12.687 4.75l1.9.583c40.94 12.476 82.812 7.29 120.312-12.611 35.631-19.363 60.608-53.06 72.092-91.498 8.375-29.779 6.8-62.66-4.304-91.474-.458-1.263-.915-2.526-1.371-3.79-3.232-8.727-7.53-16.42-12.629-24.21l-1.996-3.254-1.879-3.059-1.68-2.738L373 168h-2l-.656-1.613c-1.838-3.265-4.297-5.858-6.844-8.575l-1.625-1.74c-6.92-7.334-14.158-13.848-22.55-19.467C337 135 337 135 334.616 133.015 287.613 96.816 211.09 102.452 165 136Z"/><path fill="#48555D" d="m250.438 57.875 3.908-.012c11.897.012 23.844.363 35.591 2.387l2.261.385C304.603 62.888 316.327 67.325 328 72l2.746 1.063C335.991 75.106 341.024 77.368 346 80l2.52 1.305C355.668 85.088 362.36 89.39 369 94l2.852 1.973c5.62 3.982 10.796 8.252 15.859 12.922a193.853 193.853 0 0 0 6.164 5.418c2.493 2.127 4.938 4.237 7.125 6.687v2h2c7.68 7.391 7.68 7.391 8.3 12.445-.3 2.18-.3 2.18-1.3 5.555l-2.688-1c-6.268-1.733-13.778-2.667-19.789.168-2.06 1.5-3.783 2.97-5.523 4.832l-2.184 2.277c-3.366 5.046-2.481 10.891-1.816 16.723 1.537 4.9 4.65 8.331 9 11 2.66.867 5.248 1.44 8 2v-7l-3.313-1.188c-2.587-1.131-3.703-1.83-5.625-4-1.407-3.725-1.78-6.881-1.062-10.812 2.289-3.815 4.857-6.343 9-8 5.063-.397 8.101.232 12 3.563 2.396 4.117 2.756 6.729 3 11.437l8 2 .875 3.438L419 170l2 1c.852 1.926.852 1.926 1.625 4.313.39 1.17.39 1.17.79 2.363C424 180 424 180 424 184l-3.184 1.39-2.05.897a8680.33 8680.33 0 0 1-4.415 1.928 858.916 858.916 0 0 0-11.726 5.222C399 195 399 195 397 195l1 1.75c1 2.25 1 2.25 1 6.25l2.323-1.01c2.853-1.236 5.708-2.465 8.566-3.69 1.841-.791 3.68-1.59 5.517-2.39l3.516-1.504 3.237-1.396C425 192 425 192 429 192c3 6.625 3 6.625 3 10l6-3v-10l4 2h2c8.009 23.171 11.678 45.435 11 70l-2.45.867L450 263c-.887 2.041-.887 2.041-1 4v-8l-2.934-.136c-3.613-.171-7.224-.36-10.836-.554-1.559-.081-3.118-.158-4.678-.23-2.25-.103-4.498-.225-6.747-.35l-2.094-.085c-4.545-.274-7.781-1.37-11.711-3.645l2-1-1.063-1.75c-1.086-2.608-.868-3.644.063-6.25v3h7l-.656-3.035-.844-4.028-.434-1.99c-.906-4.378-1.206-8.451-1.066-12.947h7c3.444 11.522 3.444 11.522 3 17l8-1-.656-2.668-.844-3.52-.844-3.48c-.571-2.9-.789-5.393-.656-8.332l8-1c.503 2.77 1.003 5.541 1.5 8.313l.434 2.38.41 2.295.38 2.11C441 240 441 240 441 243l7-1-.621-2.824C445.603 230.773 444.42 222.6 444 214c-9.02 1.066-9.02 1.066-17.875 3a64.682 64.682 0 0 1-8.164 1.57l-2.215.282c-3.248.395-6.496.777-9.746 1.148l.559 2.82c.484 3.489-.009 5.08-1.559 8.18l-3-1a82.627 82.627 0 0 1-1.875-7.75c-7.186-33.174-29.253-66.353-57.418-85.523L340 135l-3.176-2.04A433.024 433.024 0 0 0 327 127l-2.672-1.625C311.984 118.193 297.822 114.262 284 111l-2.964-.762c-9.545-2.294-18.592-2.797-28.349-2.738l-2.373.005c-29.801.149-68.235 8.416-90.314 30.495h-3l-1 3c-7.525 7.669-7.525 7.669-12.219 8.297C141.875 149 141.875 149 139 148c-.338-1.582-.67-3.166-1-4.75l-.563-2.672C137 138 137 138 137 134c5.508.59 10.649 1.567 16 3l1-3a90.223 90.223 0 0 1 4-4l-3.125-.25c-6.46-.781-12.665-2.875-18.875-4.75-1.283-7.411-2.255-14.473-2-22-2.986 1.555-4.232 2.209-6 5-.548 5.048-.344 9.942 0 15l-2.188-.445c-6.355-1.332-6.355-1.332-12.812-1.555-3.152 2.23-3.152 2.23-5 5l2.438.313c3.62.698 6.897 1.783 10.37 2.988 2.7.86 5.385 1.34 8.192 1.699 1 3 1.116 4.974 1.098 8.105l-.01 2.979-.025 3.103-.014 3.14c-.012 2.557-.028 5.115-.049 7.673-6.646.244-12.733-.679-19.25-1.938l-2.969-.552c-7.066-1.328-7.066-1.328-9.955-2.065-2.083-.508-3.936-.543-6.076-.507L88 151l-1 2h-3c-.688-2.313-.688-2.313-1-5 1.813-2.538 2.985-2.995 6-4 1.225-3.008 1.225-3.008 2-6l-2-1c1.225-1.566 2.455-3.127 3.688-4.688l2.074-2.636c2.284-2.73 4.693-5.187 7.238-7.676 1.127-1.135 2.252-2.272 3.375-3.41l3.625-3.653 1.828-1.853c3.233-3.25 6.433-6.407 10.172-9.084h2v-2c2.426-2.24 5.193-4.081 7.875-6l2.45-1.758C145.432 85.714 158.435 78.9 172 73l2.14-.957c3.562-1.572 7.165-2.827 10.86-4.043l1.99-.674c21.1-7.131 41.152-9.518 63.447-9.451Z"/><path fill="#00ACEE" d="m259.156 222.66 3.73-.002c3.326.002 6.65.017 9.977.038 3.494.019 6.988.02 10.482.024 6.594.01 13.187.034 19.781.064 8.256.037 16.512.053 24.769.07 14.701.029 29.403.089 44.105.146v83c-27.75.437-27.75.437-36.499.568l-6.86.116-3.602.05-3.444.06-2.988.048A28.402 28.402 0 0 0 312 308v2l-5.273 2.832c-2.032 1.216-2.032 1.216-3.727 4.168-.33 2.85-.33 2.85-.319 6.124l-.06 3.875-.035 4.075-.054 3.744c-.063 4.623-.109 9.246-.157 13.87L302 380h-85c-1.503-3.005-1.13-6.093-1.114-9.387v-2.306c0-2.522.009-5.043.016-7.565l.005-5.238c.003-4.6.013-9.2.024-13.8.01-4.691.015-9.383.02-14.075.01-9.21.028-18.42.049-27.629h12v-3l36-1v-2l3.625-1.25c3.859-1.434 6.993-3.39 10.375-5.75l3-1c1.087-2.214 1.087-2.214 2-5l1.562-3.563c2.09-4.995 2.593-8.956 2.754-14.39l.063-2c.066-2.1.125-4.198.183-6.297l.131-4.281c.107-3.49.209-6.98.307-10.469h-12v28h-1v-29c-6.126-.03-6.126-.03-12.375-.063l-3.837-.027c-9.972-.265-9.972-.265-19.788 1.09l-1.521 1.543C236 243 236 243 232 243c-2.25 3.612-2.293 6.716-2.379 10.918l-.051 1.993a924.08 924.08 0 0 0-.133 6.276c-.043 2.103-.09 4.206-.142 6.309-.047 1.9-.084 3.8-.121 5.7C229 277 229 277 228 278a91.472 91.472 0 0 1-5.063.062l-2.785-.027L218 278c-.175-4.925-.3-9.849-.385-14.777a320.133 320.133 0 0 0-.143-5.012c-.428-12.012.606-19.634 9.042-28.868 8.27-7.172 22.33-6.782 32.642-6.684Z"/><path fill="#00ADEE" d="M216 151h60v68h12c-2 2-2 2-3.873 2.24l-2.301-.013h-2.609l-2.819-.032-2.883-.008a1961.62 1961.62 0 0 1-9.14-.062c-2.062-.01-4.125-.02-6.188-.027-5.062-.022-10.125-.057-15.187-.098v2l-2.375.688C230.371 227.37 230.371 227.37 223 235l-2.063 3.13c-2.345 4.134-2.539 7.75-2.546 12.429l-.05 2.391c-.049 2.496-.07 4.991-.091 7.488a2452.35 2452.35 0 0 1-.09 5.107c-.073 4.152-.123 8.303-.16 12.455l10-1 .044-2.69c.061-3.303.136-6.605.218-9.908.034-1.427.062-2.855.084-4.283.034-2.056.086-4.11.142-6.166l.08-3.745c.458-3.398.905-4.906 3.432-7.208h4l1-3c6.903-3.451 16.981-2.153 24.5-2.125l3.281-.012 3.125.004 2.823.004C273 238 273 238 275 239c.124 4.732.215 9.463.275 14.197.025 1.608.059 3.216.102 4.824.061 2.319.09 4.636.111 6.956l.078 2.16c.003 3.91-.572 5.873-2.722 9.177-6.455 6.096-12.157 6.109-20.633 6.027h-3.579c-3.224 0-6.449-.016-9.674-.037-3.375-.019-6.75-.02-10.126-.024-6.385-.01-12.77-.034-19.155-.064-7.986-.037-15.972-.053-23.958-.07-14.24-.029-28.48-.089-42.719-.146v-59c22.813-.25 22.813-.25 29.945-.298 1.9-.03 3.8-.06 5.7-.093l2.904-.003c9.62-.2 20.107-3.06 27.451-9.606 5.743-7.104 6.88-13.411 6.805-22.352l.04-3.067c.043-3.735.033-7.47.03-11.206L216 151Z"/><path fill="#47555D" d="M332 388h4a109.402 109.402 0 0 1 3.29 14.254l.327 2.012c.225 1.392.449 2.784.67 4.177.338 2.119.685 4.235 1.033 6.352.22 1.361.438 2.722.657 4.084l.596 3.705c.398 3.184.507 6.212.427 9.416l7-4-.176-2.047c-.371-7.34-.371-7.34 2.238-10.265L355 414c1.278-.906 2.55-1.823 3.813-2.75L362 409c3.605 1.664 6.888 3.525 10 6 .688 2.375.688 2.375 0 5-3.26 5.107-7.263 7.62-12.484 10.574-2.102 1.191-4.078 2.454-6.079 3.801-4.137 2.606-8.521 4.665-12.937 6.75l-2.158 1.021c-6.86 3.189-13.887 5.757-21.076 8.104-1.455.481-2.903.98-4.344 1.5-5.591 1.988-11.238 3.29-17.056 4.448-2.328.483-4.65 1.003-6.953 1.594-11.416 2.75-22.758 2.63-34.45 2.544-3.484-.024-6.967-.02-10.451-.014-2.233-.005-4.466-.012-6.7-.021l-3.128.003c-5.48-.054-9.994-.55-15.184-2.304a84.332 84.332 0 0 0-3.98-.746l-2.07-.344-2.137-.348C203.776 455.368 196.885 453.9 190 452l-2.781-.75c-6.563-1.853-6.563-1.853-9.582-3.68-3.031-1.805-6.079-2.975-9.387-4.195C162.1 441.1 162.1 441.1 161 440c.066-1.462.205-2.921.375-4.375.405-3.583.738-7.154 1-10.75.472-5.312 1.438-10.498 2.462-15.725 1.3-6.686 2.266-13.398 3.163-20.15 1.398.73 1.398.73 2.824 1.477 3.02 1.65 3.02 1.65 5.988 1.898 3.031.594 4.427 1.253 7 2.813 11.558 6.71 25.244 9.944 38.188 12.812l2.054.54c8.62 2.067 17.384 1.858 26.196 1.835l2.565-.004c24.44-.094 60.712-3.898 79.185-22.371ZM318 69c9.89 1.866 19.15 6.313 28 11l2.512 1.3c7.15 3.785 13.845 8.088 20.488 12.7l2.852 1.973c5.62 3.982 10.796 8.252 15.859 12.922a193.853 193.853 0 0 0 6.164 5.418c2.493 2.127 4.938 4.237 7.125 6.687v2h2c7.68 7.391 7.68 7.391 8.3 12.445-.3 2.18-.3 2.18-1.3 5.555l-2.688-1c-6.268-1.733-13.778-2.667-19.789.168-2.06 1.5-3.783 2.97-5.523 4.832l-2.184 2.277c-3.366 5.046-2.481 10.891-1.816 16.723 1.537 4.9 4.65 8.331 9 11 2.66.867 5.248 1.44 8 2v-7l-3.313-1.188c-2.587-1.131-3.703-1.83-5.625-4-1.407-3.725-1.78-6.881-1.062-10.812 2.289-3.815 4.857-6.343 9-8 5.063-.397 8.101.232 12 3.563 2.396 4.117 2.756 6.729 3 11.437l8 2 .875 3.438L419 170l2 1c.852 1.926.852 1.926 1.625 4.313.26.78.52 1.56.79 2.363C424 180 424 180 424 184l-3.184 1.39-2.05.897a8680.33 8680.33 0 0 1-4.415 1.928 858.916 858.916 0 0 0-11.726 5.222C399 195 399 195 397 195l1 1.75c1 2.25 1 2.25 1 6.25l2.323-1.01c2.853-1.236 5.708-2.465 8.566-3.69 1.841-.791 3.68-1.59 5.517-2.39l3.516-1.504 3.237-1.396C425 192 425 192 429 192c3 6.625 3 6.625 3 10l6-3v-10l4 2h2c8.009 23.171 11.678 45.435 11 70l-2.45.867L450 263c-.887 2.041-.887 2.041-1 4v-8l-2.934-.136c-3.613-.171-7.224-.36-10.836-.554-1.559-.081-3.118-.158-4.678-.23-2.25-.103-4.498-.225-6.747-.35l-2.094-.085c-4.545-.274-7.781-1.37-11.711-3.645l2-1-1.063-1.75c-1.086-2.608-.868-3.644.063-6.25v3h7l-.656-3.035-.844-4.028-.434-1.99c-.906-4.378-1.206-8.451-1.066-12.947h7c3.444 11.522 3.444 11.522 3 17l8-1-.656-2.668-.844-3.52-.844-3.48c-.571-2.9-.789-5.393-.656-8.332l8-1c.503 2.77 1.003 5.541 1.5 8.313l.434 2.38.41 2.295.38 2.11C441 240 441 240 441 243l7-1-.621-2.824C445.603 230.773 444.42 222.6 444 214c-9.02 1.066-9.02 1.066-17.875 3a64.682 64.682 0 0 1-8.164 1.57l-2.215.282c-3.248.395-6.496.777-9.746 1.148l.559 2.82c.484 3.489-.009 5.08-1.559 8.18l-3-1a82.627 82.627 0 0 1-1.875-7.75c-7.186-33.174-29.253-66.353-57.418-85.523L340 135l-3.176-2.04A421.821 421.821 0 0 0 327 127l-2.777-1.66c-7.123-4.09-14.446-6.774-22.223-9.34l4-1v-3l7 2 .48-1.8c1.893-6.725 4.495-12.91 7.52-19.2 2.782 2.782 3.142 5.969 4 9.688.332 1.4.665 2.8 1 4.199l.492 2.083c.488 1.948 1.059 3.875 1.633 5.8C329 118 329 118 329 122l7 1 1.066-2.684 1.497-3.754.799-2.006a822.616 822.616 0 0 1 4.595-11.267l.969-2.326c.626-1.502 1.256-3.003 1.889-4.502 1.618-3.607 1.618-3.607 2.185-7.461l-7-3-.309 1.98c-.899 3.928-2.307 7.578-3.753 11.332l-.854 2.245c-.691 1.815-1.387 3.63-2.084 5.443h-2c-.182-.8-.364-1.598-.55-2.422-1.542-6.732-3.153-13.435-4.9-20.117C327 82 327 82 327 79l-3.875-.625-2.18-.352L319 78l-2 2-1-4h2l-.563-2.938L317 70l1-1Z"/><path fill="#EEFBFD" d="M204 139h84v79h-12v-67h-60c.237 16.663.237 16.663.54 33.326.018 2.107.033 4.215.046 6.322l.093 3.248c.005 7.786-1.871 12.95-6.679 19.104-2.676 2.402-2.676 2.402-5.313 3.938l-2.613 1.59c-7.84 3.755-14.56 4.902-23.234 4.765l-2.772-.01c-3.377-.015-6.754-.057-10.13-.095L143 223v59c22.381-.067 22.381-.067 44.762-.172 8.004-.044 16.009-.083 24.013-.099 6.338-.013 12.676-.04 19.013-.084 3.355-.022 6.709-.038 10.063-.037 3.75-.002 7.498-.03 11.247-.062l3.352.015c6.404-.087 10.33-.769 15.55-4.561 4.279-4.421 4.128-9.719 4.316-15.613l.127-3.78.12-3.92.13-3.978c.106-3.236.207-6.473.307-9.709h12c.075 4.09.129 8.178.165 12.268.015 1.387.035 2.774.061 4.16.195 10.584.048 21.18-7.226 29.572-9.816 8.117-17.477 9.301-29.912 9.227h-3.904c-3.516.002-7.032-.01-10.548-.024-3.681-.013-7.362-.014-11.043-.016-6.963-.006-13.925-.023-20.888-.043-9.414-.027-18.827-.037-28.241-.049-14.822-.019-29.643-.059-44.464-.095v-85c30.188-.313 30.188-.313 39.7-.388 2.49-.032 4.979-.066 7.468-.1l3.914-.02 3.75-.06 3.25-.033c3.35-.458 5.208-1.404 7.918-3.399 3.737-4.982 5.112-8.5 5.205-14.665l.061-3.567.05-3.748c.02-1.138.038-2.275.057-3.446.068-4.254.128-8.508.19-12.762L204 139Z"/><path fill="#E91E27" d="m259.156 222.66 3.73-.002c3.326.002 6.65.017 9.977.038 3.494.019 6.988.02 10.482.024 6.594.01 13.187.034 19.781.064 8.256.037 16.512.053 24.769.07 14.701.029 29.403.089 44.105.146v83c-27.75.437-27.75.437-36.499.568l-6.86.116-3.602.05-3.444.06-2.988.048A28.402 28.402 0 0 0 312 308v2l-1.898.988-2.477 1.324-2.46 1.301c-2.433 1.355-2.433 1.355-4.165 4.387-.33 2.728-.33 2.728-.319 5.848l-.06 3.69-.035 3.88-.054 3.565c-.063 4.401-.109 8.803-.157 13.204L300 378h-82v-77h10v67h62c-.197-16.663-.197-16.663-.45-33.326-.015-2.107-.028-4.215-.038-6.322l-.078-3.248c-.004-7.524 1.609-12.716 5.566-19.104l1.08-1.8c3.433-4.883 8.395-6.61 13.92-8.2 3.987-.49 7.902-.47 11.914-.39l2.948.012c3.588.02 7.175.076 10.763.128L360 296v-60c-22.195.067-22.195.067-44.389.172-7.938.044-15.875.083-23.813.099-6.286.013-12.57.04-18.855.084-3.327.022-6.653.036-9.98.037a1362 1362 0 0 0-11.153.062l-3.324-.015c-6.349.087-10.35.713-15.486 4.561-1.426 2.557-1.426 2.557-2 5l-1 1a157.84 157.84 0 0 0-.281 6.625l-.056 2.006A1777.15 1777.15 0 0 0 229.5 262c-.067 2.792-.141 5.583-.219 8.375l-.092 3.773C229 277 229 277 228 278a91.472 91.472 0 0 1-5.063.062l-2.785-.027L218 278c-.175-4.925-.3-9.849-.385-14.777a320.133 320.133 0 0 0-.143-5.012c-.428-12.012.606-19.634 9.042-28.868 8.27-7.172 22.33-6.782 32.642-6.684Z"/><path fill="#47555D" d="m439.766 213.945 2.415.024L444 214c.675 3.54 1.339 7.082 2 10.625l.578 3.027c.897 4.839 1.692 9.402 1.422 14.348l-7 1c-1.711-4.522-2.352-8.556-2.625-13.375l-.227-3.773L438 223l-8 1 .656 2.922.844 3.828.844 3.797C433 238 433 238 433 242c-2.709 1.354-5.01 1.065-8 1-.504-2.27-1.003-4.541-1.5-6.813l-.844-3.832C422 229 422 229 422 226h-7l.656 3.543.844 4.644.434 2.33c.698 3.877 1.256 7.524 1.066 11.483h-7l.563 2.438L412 253l-1 1c3.881 1.781 7.186 2.342 11.438 2.598l3.71.24 3.852.224c2.521.155 5.042.313 7.563.473l3.378.2c2.758.239 5.36.66 8.059 1.265l1 4 5-2c.628 23.665-3.444 45.952-12 68l-.84 2.185C438.408 340.85 434.15 350 429 359h-3v-3l-1.375 1.938C423 360 423 360 421 361v3h-2l-1 2c.573-3.845 1.675-6.477 3.75-9.75l1.617-2.617L425 351a321.93 321.93 0 0 0 2.875-4.875l1.242-2.117c1.151-2.253 1.151-2.253.883-6.008-2.427-1.79-2.427-1.79-5-3l-.809 2.145c-1.24 2.974-2.69 5.725-4.253 8.543-2.02 3.629-2.02 3.629-3.938 7.312-2.938-.75-2.938-.75-6-2-.906-1.695-.906-1.695-1-4 1.434-2.945 1.434-2.945 3.438-6.125 2.61-3.68 2.61-3.68 3.562-7.875l-6-3-.805 2.168c-1.224 2.901-2.675 5.462-4.32 8.144l-1.633 2.676L402 345c-2.938-.813-2.938-.813-6-2-1-3-1-3-.18-4.98l1.305-2.207 1.395-2.383c2.13-3.496 4.272-6.982 6.48-10.43l-7-2-1.32 2.527c-3.23 6.102-6.53 12.019-10.516 17.668-1.336 1.908-1.336 1.908-2.164 4.805l1.688.313c2.813.836 4.933 1.97 7.312 3.687v3l-3 2 2 3-2 3-2.625-2c-3.698-2.192-5.18-2.7-9.375-2-6.904 3.375-12.86 10.19-16.582 16.816L360 376c-2.84 0-5.237-.403-8-1 2.322-3.192 4.797-5.738 7.813-8.25 3.873-3.28 6.79-6.915 9.742-11.027L371 354h2l.766-2.18c1.332-3.045 2.958-5.315 4.984-7.945 3.992-5.385 7.252-10.887 10.25-16.875l1.27-2.504c9.907-20.601 13.927-42.023 13.86-64.745-.005-2.18 0-4.361.007-6.542.003-7.782-.228-15.471-1.137-23.209h2l1-10c5.53-1.8 11.038-2.663 16.79-3.492a92.167 92.167 0 0 0 7.96-1.633c3.07-.732 5.861-.97 9.016-.93Z"/><path fill="#E1E2E4" d="m250.75 54.625 2.886.002c15.132.04 29.587.844 44.364 4.373l2.67.617c19.458 4.638 38.223 12.412 55.38 22.668 2.866 1.8 2.866 1.8 5.95 2.715v2l6 2v2l2.168.781c3.004 1.293 5.467 2.847 8.144 4.719l2.676 1.844L383 100v2l1.688.75c2.736 1.48 4.989 3.185 7.312 5.25v2l1.793.805C400.28 114.318 408.676 123.029 411 130h2c6.06 7.121 11.009 15.402 15.954 23.327.94 1.505 1.897 3 2.855 4.493 10.067 16.322 17.11 35.283 21.316 53.93l.762 3.227c3.316 14.479 4.525 28.541 4.488 43.335l-.002 2.508C458.268 295.9 449.23 328.057 433 359h-2l-.219 2.09c-1.004 3.742-2.994 6.42-5.281 9.473l-1.366 1.859a797.95 797.95 0 0 1-2.795 3.773 382.95 382.95 0 0 0-3.581 4.93C412.059 388.974 405.705 396.017 399 403l-2.414 2.54c-5.17 5.315-10.703 9.956-16.586 14.46l-2.34 1.832C372.262 426 372.262 426 370 426v2c-2.905 2.042-4.401 3-8 3v2c-23.232 13.673-47.402 23.256-74 28l-3.383.648c-24.267 4.114-49.55 3.05-73.617-1.648l-2.181-.401C179.212 454.107 145.689 440.295 123 420v-2l-1.746-.816c-2.293-1.205-4.253-2.56-6.317-4.122l-2.035-1.527c-1.774-1.431-3.4-2.819-4.902-4.535v-2h-2v-2l-1.754-.746C80.046 388.744 63.374 347.857 55 323l-.67-1.972C37.988 272.067 42.792 216.33 65 170c2.203-4.407 4.583-8.708 7-13 .676-1.328 1.347-2.66 2-4h2l.742-2.64c1.354-3.618 3.021-6.065 5.383-9.11l2.418-3.125L87 135l2.3-3c4.05-5.212 4.05-5.212 5.7-7h2l.938-1.875L100 119h2v-2h2v-2h2v-2h2v-2a102.592 102.592 0 0 1 5.25-4.5l2.953-2.406c2.246-1.681 4.244-2.975 6.797-4.094v-2c4.385-3 4.385-3 7-3v-2c1.49-1.202 1.49-1.202 3.594-2.54l2.349-1.497 2.557-1.588 2.61-1.631C148.845 80.976 156.753 76.8 165 73l3.438-1.61C183.974 64.415 200.267 59.998 217 57l2.732-.54c10.31-1.852 20.578-1.857 31.018-1.835ZM175 72l-2.031.852C155.549 80.327 137.328 89.38 123 102v2l-1.707.746c-10.908 5.965-20.373 17.838-28.031 27.434a233.972 233.972 0 0 1-4.617 5.578c-4.409 5.183-8.032 10.242-11.063 16.344-1.349 2.471-2.79 4.638-4.406 6.933-3.765 5.579-6.251 11.572-8.801 17.778l-1.406 3.33C42.596 230.973 42.852 285.789 62 335c2.356 5.498 5.113 10.766 8 16l1.004 1.846C75.564 361.194 80.6 369.171 86 377l1.543 2.3c1.097 1.606 2.268 3.161 3.457 4.7h2l.738 1.664c3.708 6.865 9.429 13.123 15.559 17.922C111 405 111 405 113.223 407.266c3.32 3.268 6.841 6.185 10.465 9.109l2.155 1.74C134.46 425.028 143.166 430.942 153 436l1.886.974c7.897 4.064 15.769 7.955 24.114 11.026l2.207.832c1.93.727 3.861 1.448 5.793 2.168l2.164.96c3.891 1.427 7.843 2.215 11.899 3.04l2.548.529a339.451 339.451 0 0 0 17.139 3.076C223 459 223 459 226 460c1.555.107 3.114.159 4.673.177l2.878.039 3.125.022 3.26.025c2.29.014 4.58.024 6.871.032 2.303.012 4.606.032 6.909.062 21.46.278 40.992-2.344 61.284-9.357l2.124-.69c14.049-4.566 27.305-10.56 39.876-18.31l2.918-1.777c6.59-4.1 12.875-8.568 19.082-13.223l2.516-1.887c6.57-5.015 11.992-10.615 17.421-16.832a124.11 124.11 0 0 1 4.52-4.726C414.571 382.39 423.831 369.008 431 355l.881-1.689C439.658 338.38 445.633 323.259 450 307l.906-3.332c8.133-32.327 6.585-70.144-3.34-101.834-.502-1.628-.961-3.27-1.414-4.912-.72-2.684-.72-2.684-2.152-5.922-1.951-.703-1.951-.703-4-1l-2-1v10l-6 3-.375-1.625c-.747-2.839-1.678-5.597-2.625-8.375-4.27.579-7.875 1.603-11.836 3.285l-3.223 1.358-3.316 1.42-3.387 1.431A2165.816 2165.816 0 0 0 399 203l-.438-2.875c-.391-3.018-.391-3.018-1.562-5.125.766-.235 1.531-.47 2.32-.71 4.957-1.737 9.738-3.826 14.555-5.915l2.953-1.273c2.392-1.032 4.782-2.066 7.172-3.102-.616-4.552-1.217-8.741-3-13l-3-2c-.688-3.125-.688-3.125-1-6l-8-2-.297-2.047c-.65-3.875-1.206-7.137-3.265-10.516-3.712-2.189-7.142-2.878-11.438-2.437-4.07 1.882-6.527 4.291-9 8-.466 4.736-.449 7.068 1.625 11.375 2.673 2.955 4.534 3.752 8.375 4.625v7c-5.78-1.096-9.953-2.2-13.563-7.063-4.202-6.393-4.46-12.342-3.437-19.937 2.71-5.076 6.876-8.472 12-11 6.841-.805 13.537-.405 20 2 .922-3.112 1.39-4.836 1-8-2.23-3.74-4.863-6.98-8-10h-2l-1-3c-1.462-1.486-1.462-1.486-3.25-2.875-3.099-2.56-5.906-5.281-8.75-8.125-6.64-6.354-13.859-11.675-21.397-16.89a439.959 439.959 0 0 1-4.08-2.868c-4.96-3.445-10.136-6.18-15.57-8.808a154.537 154.537 0 0 1-5.344-2.711C333.761 73.545 325.404 70.827 317 68l-2.777-.941c-1.427-.48-2.857-.951-4.29-1.414a84.186 84.186 0 0 1-3.835-1.383c-5.138-1.923-10.334-2.96-15.723-3.887l-2.113-.373c-12.504-2.031-25.187-2.165-37.825-2.127l-3.92-.012C221.373 57.888 198.104 61.913 175 72Z"/><path fill="#46545C" d="M61 206c.154 5.01-.36 9.374-1.5 14.25-1.14 4.83-1.14 4.83-1.5 9.75 3.986 1.766 7.844 2.647 12.125 3.438A198.574 198.574 0 0 1 89 238l1 5 5-1c-2.393 5.68-7.553 6.982-12.932 9.22a939.778 939.778 0 0 1-9.818 3.905c-2.225.876-4.449 1.754-6.672 2.633l-2.956 1.16C59.237 260.31 59.237 260.31 56 262c-.696 1.954-.696 1.954-.75 4.125L55 270l2.558.812c3.585 1.237 7.049 2.673 10.52 4.192l1.978.859c2.066.897 4.13 1.798 6.194 2.7l4.203 1.826C90.622 284.81 90.622 284.81 93 286v-9l-2.313-.438C88 276 88 276 85 275c-.08-2.792-.14-5.582-.188-8.375l-.076-2.406c-.026-2.075.11-4.15.264-6.219 3-2 3-2 5.563-1.938L93 256c2.307-2.715 2.307-2.715 1.625-5.188L94 249l4-1 .044 2.01c.53 21.693 2.484 42.7 10.538 63.06.591 2.73.33 4.274-.582 6.93-2.573 1.973-2.573 1.973-5.977 3.848l-1.828 1.026a531.666 531.666 0 0 1-5.82 3.188 1814.11 1814.11 0 0 0-3.855 2.143 1086.16 1086.16 0 0 1-7.17 3.951A647.681 647.681 0 0 0 73 340l2 7 2.484-1.313L80.75 344l3.234-1.688C87 341 87 341 91 341c1.703 2.082 1.703 2.082 3.25 4.813l1.578 2.707C97 351 97 351 97 354c-2.117 1.605-2.117 1.605-4.875 3.188l-2.742 1.605C87 360 87 360 85 360c.775 2.992.775 2.992 2 6 2.887 1.331 2.887 1.331 5.157.075l2.484-1.462 2.746-1.595 2.863-1.705 2.816-1.647c3.363-1.967 6.723-3.939 10.063-5.945 3.492-2.066 5.754-3.22 9.871-2.721l1 2 2 1c-1.578 4.002-4.198 6.232-7.375 9.063l-3.227 2.898-1.684 1.503c-2.844 2.55-5.652 5.138-8.464 7.724l-3.047 2.792L100 380c.573 2.867.861 3.861 3 6 .625 2.625.625 2.625 1 5-3.01.934-3.867 1.044-7 0-4-4.457-4-4.457-4-7h-2c-9.902-12.552-17.693-26.83-25-41l-1-1.879c-2.706-5.193-4.68-10.499-6.5-16.058l-.917-2.798c-11.162-34.689-15.803-77.293-3.743-112.324C55.577 207.035 57.637 206 61 206Z"/><path fill="#47555D" d="M109 317c2.68 3.286 4.424 6.744 6.25 10.563 13.244 26.964 34.446 48.95 60.75 63.437l-3 2v-2l-4-1-.351 2.34c-.526 3.49-1.056 6.982-1.587 10.473l-.552 3.681-.537 3.526-.492 3.253C165 416 165 416 164 419a363.943 363.943 0 0 0-1 7.938c-.993 8.618-.993 8.618-2 12.062-5.318-1.131-8.994-3.098-13.398-6.27-2.258-1.5-4.498-2.757-6.887-4.027-4.7-2.58-8.693-5.687-12.778-9.14a2226.22 2226.22 0 0 0-3.972-3.31c-.648-.538-1.295-1.078-1.962-1.634-2.671-2.16-5.433-4.183-8.22-6.19-2.48-1.988-4.41-4.3-6.404-6.761-1.537-1.913-1.537-1.913-4.129-4.418C101 395 101 395 99 392l4-1c-1.27-4.415-1.27-4.415-4-8 .293-3.614 1.942-5.254 4.535-7.645l2.205-2.052 2.323-2.115 2.24-2.08a419.225 419.225 0 0 1 13.164-11.67c1.648-1.38 1.648-1.38 2.533-3.438l-4 1v-3c-5.718.468-9.552 2.805-14.313 5.75l-4.53 2.719a808.847 808.847 0 0 0-7.126 4.375l-2.344 1.406-1.925 1.203C90 368 90 368 87.832 367.172 86 366 86 366 85 365a99.984 99.984 0 0 1 0-5 488379439.73 488379439.73 0 0 1 6.738-3.809C94 355 94 355 97 354l-1.277-2.336-1.66-3.039-1.653-3.023A157.118 157.118 0 0 1 90 341c-3.074 1.118-5.827 2.45-8.625 4.125C78 347 78 347 75 347l-3-7 3.121-1.836 2.062-1.213 4.546-2.671c4.046-2.377 8.086-4.763 12.115-7.17l2.334-1.39c1.49-.887 2.977-1.777 4.462-2.67 5.135-3.05 5.135-3.05 7.36-3.05l1-3Z"/><path fill="#49565E" d="M332 388h4a109.402 109.402 0 0 1 3.29 14.254l.327 2.012c.225 1.392.449 2.784.67 4.177.338 2.119.685 4.235 1.033 6.352.22 1.361.438 2.722.657 4.084l.596 3.705c.398 3.184.507 6.212.427 9.416l7-4-.176-2.047c-.371-7.34-.371-7.34 2.238-10.265L355 414c1.278-.906 2.55-1.823 3.813-2.75L362 409c3.605 1.664 6.888 3.525 10 6 .688 2.375.688 2.375 0 5-3.26 5.107-7.263 7.62-12.484 10.574-2.102 1.191-4.078 2.454-6.079 3.801-4.137 2.606-8.521 4.665-12.937 6.75l-2.158 1.021c-6.86 3.189-13.887 5.757-21.076 8.104-1.455.481-2.903.98-4.344 1.5-6.829 2.428-13.83 3.81-20.922 5.25l-2.945.668-2.618.582-2.253.516c-2.583.277-4.674-.148-7.184-.766l1-3c.047-2.035.047-2.035-.121-4.23l-.147-2.432-.17-2.526-.158-2.56c-.13-2.084-.266-4.168-.404-6.252l-14 1-1 16h-8a2402.75 2402.75 0 0 1-1.5-12.188l-.434-3.427c-.937-7.833-1.242-15.499-1.066-23.385h10l1-2h-18v2c-8.893.485-17.31-1.324-26-3 3.708-1.92 6.923-3.448 11.158-2.534 3.625.681 7.194.734 10.87.772l2.354.03c32.526.328 60.17-4.579 88.618-21.268l1-1Z"/><path fill="#48555D" d="M398 320c4.75 1.875 4.75 1.875 7 3-1.699 4.587-4.061 8.474-6.66 12.598-1.22 2.187-1.883 3.957-2.34 6.402l6 2 8-14 6 2c0 4.417-.811 5.839-3 9.563-2.429 3.954-2.429 3.954-3 8.437l6 3 .625-2.375c1.577-4.157 3.7-7.684 6.035-11.453 1.345-2.109 1.345-2.109 2.34-4.172 2.438.688 2.438.688 5 2 .922 2.73 1.24 4.336.25 7.07l-1.25 2.055-1.387 2.324a699.068 699.068 0 0 1-7.258 11.266c-1.525 2.129-1.525 2.129-1.355 4.285h2l.25-2.25c.89-3.262 2.235-4.56 4.75-6.75l1 2-1 2h2c-1.606 4.753-4.219 8.547-7.063 12.625l-1.479 2.134C413.874 381.73 407.9 389.121 401 396a524.213 524.213 0 0 0-4.188 4.75c-4.616 5.152-9.544 9.773-14.812 14.25l-2.527 2.152c-4.546 3.721-4.546 3.721-6.473 4.848l-3-1 1-5-7-6c-4.91 1.534-9.696 4.002-13 8-.324 2.668-.132 5.047.11 7.719-.11 2.281-.11 2.281-2.985 4.906C345 432 345 432 343 432c-.626-3.729-1.251-7.458-1.875-11.188l-.558-3.33a840.88 840.88 0 0 1-2.692-17.045c-.642-4.289-1.533-8.314-2.875-12.437 3.084-3.217 6.359-6.012 9.875-8.75l3.055-2.422c3.418-2.035 5.17-2.206 9.07-1.828h2a147.57 147.57 0 0 0 5.375-6.25c10.103-12.29 10.103-12.29 16.5-13.125 3.907.469 6.03 2.017 9.125 4.375l1-3-2-2 4-2c-.67-3.064-.67-3.064-2.848-4.168l-2.214-1.02-2.223-1.042L384 346c.642-3.631 2.21-6.082 4.25-9.125 2.957-4.526 5.481-9.099 7.805-13.977C397 321 397 321 398 320Z"/><path fill="#45535B" d="m177 73 3 2v3c-1.647 1.611-3.434 2.92-5.273 4.305-3.38 3.319-4.064 7.282-4.227 11.882.147 6.407 2.21 11.064 6.5 15.813 5.56 3.909 12.403 4.953 19 6-2.561 3.015-5.407 4.245-9 5.813-9.131 4.119-17.458 8.356-25.125 14.867C160 138 160 138 157 138l-1 3c-7.525 7.669-7.525 7.669-12.219 8.297C141.875 149 141.875 149 139 148c-.338-1.582-.67-3.166-1-4.75l-.563-2.672C137 138 137 138 137 134c5.508.59 10.649 1.567 16 3l1-3a90.223 90.223 0 0 1 4-4l-3.125-.25c-6.46-.781-12.665-2.875-18.875-4.75-1.283-7.411-2.255-14.473-2-22-2.986 1.555-4.232 2.209-6 5-.548 5.048-.344 9.942 0 15l-2.188-.445c-6.355-1.332-6.355-1.332-12.812-1.555-3.152 2.23-3.152 2.23-5 5l2.438.313c3.62.698 6.897 1.783 10.37 2.988 2.7.86 5.385 1.34 8.192 1.699 1 3 1.116 4.974 1.098 8.105l-.01 2.979-.025 3.103-.014 3.14c-.012 2.557-.028 5.115-.049 7.673-6.646.244-12.733-.679-19.25-1.938l-2.969-.552c-7.066-1.328-7.066-1.328-9.955-2.065-2.083-.508-3.936-.543-6.076-.507L88 151l-1 2h-3c-.688-2.313-.688-2.313-1-5 1.813-2.538 2.985-2.995 6-4 1.225-3.008 1.225-3.008 2-6l-2-1c1.225-1.566 2.455-3.127 3.688-4.688l2.074-2.636c2.284-2.73 4.693-5.187 7.238-7.676 1.127-1.135 2.252-2.272 3.375-3.41l3.625-3.653 1.828-1.853c3.233-3.25 6.433-6.407 10.172-9.084h2v-2c2.426-2.24 5.193-4.081 7.875-6l2.45-1.758C141.521 88.468 150.077 83.552 159 79l1.969-1.005C172.045 72.419 172.045 72.419 177 73Z"/><path fill="#47545D" d="M403 147c3.678 3.141 5.185 5.667 5.813 10.375L409 161l8 2 .875 3.438L419 170l2 1c.852 1.926.852 1.926 1.625 4.313.26.78.52 1.56.79 2.363C424 180 424 180 424 184l-3.184 1.39-2.05.897a8680.33 8680.33 0 0 1-4.415 1.928 858.916 858.916 0 0 0-11.726 5.222C399 195 399 195 397 195l1 1.75c1 2.25 1 2.25 1 6.25l2.323-1.01c2.853-1.236 5.708-2.465 8.566-3.69 1.841-.791 3.68-1.59 5.517-2.39l3.516-1.504 3.237-1.396C425 192 425 192 429 192c3 6.625 3 6.625 3 10l6-3v-10l4 2h2c8.009 23.171 11.678 45.435 11 70l-2.45.867L450 263c-.887 2.041-.887 2.041-1 4v-8l-2.934-.136c-3.613-.171-7.224-.36-10.836-.554-1.559-.081-3.118-.158-4.678-.23-2.25-.103-4.498-.225-6.747-.35l-2.094-.085c-4.545-.274-7.781-1.37-11.711-3.645l2-1-1.063-1.75c-1.086-2.608-.868-3.644.063-6.25v3h7l-.656-3.035-.844-4.028-.434-1.99c-.906-4.378-1.206-8.451-1.066-12.947h7c3.444 11.522 3.444 11.522 3 17l8-1-.656-2.668-.844-3.52-.844-3.48c-.571-2.9-.789-5.393-.656-8.332l8-1c.503 2.77 1.003 5.541 1.5 8.313l.434 2.38.41 2.295.38 2.11C441 240 441 240 441 243l7-1-.621-2.824C445.603 230.773 444.42 222.6 444 214c-9.02 1.066-9.02 1.066-17.875 3a64.682 64.682 0 0 1-8.164 1.57l-2.215.282c-3.248.395-6.496.777-9.746 1.148l.559 2.82c.484 3.489-.009 5.08-1.559 8.18l-3-1a82.627 82.627 0 0 1-1.875-7.75c-2.54-11.723-6.793-22.183-12.534-32.696-2.133-4.04-3.007-6.987-2.591-11.554 3.01-.934 3.867-1.044 7 0 2.143-.39 2.143-.39 4-1 .062-3.411.062-3.411-1-7-3.373-1.684-3.373-1.684-7-3-3.032-3.423-3.535-6.637-3.352-11.074.751-4.113 3.509-6.203 6.54-8.801 4.134-1.654 7.585-1.488 11.812-.125Z"/><path fill="#48555D" d="M134 103c.338 2.541.67 5.083 1 7.625.095.713.19 1.426.29 2.16.526 4.103.815 8.067.71 12.215 2.729.647 5.458 1.293 8.188 1.938l2.33.552c3.816.901 7.629 1.776 11.482 2.51-2.4 5.353-2.4 5.353-5 7-5.526-.281-10.668-1.572-16-3l.438 2.047.562 2.703.563 2.672C139 144 139 144 139 148l6 1-2.313 2.688-1.652 1.937a733.226 733.226 0 0 1-4.601 5.313C124.046 173.209 115.173 188.577 108 206l-4-2 1-2c.143-2.523.143-2.523-1-5-2.38-1.248-4.406-2.073-6.938-2.875a1961.86 1961.86 0 0 1-4.34-1.5l-2.315-.785c-4.18-1.458-8.289-3.094-12.407-4.715l-4.625-1.805L70 184l-1 3-4-2-4 4c4.156-13.934 10.985-26.056 18.858-38.176 1.15-1.837 2.198-3.709 3.24-5.61 2.273-3.841 4.387-5.577 7.902-8.214 1 3 1 3-.25 5.688L89 145h-3c-1.765 3.088-2 4.233-2 8h3l1-3c5.355-.124 10.1.234 15.375 1.313 1.382.275 2.765.548 4.148.82l2.183.43c4.086.778 8.19 1.45 12.294 2.125.796.13 1.592.262 2.412.397 1.862.307 3.725.611 5.588.915l-.494-1.688c-.549-2.507-.62-4.732-.604-7.296l.01-2.832.025-2.934.014-2.98c.012-2.424.028-4.847.049-7.27l-1.738-.146c-4.866-.465-9.192-1.266-13.825-2.917l-3.128-1.097L108 126c1.15-3.452 1.908-4.21 5-6 5.134-.309 10.396.698 15 3l-.5-2.438c-1.19-8.48-1.19-8.48-.5-12.562 3.878-5 3.878-5 7-5Z"/><path fill="#CCEDF3" d="m251.063 106.5 2.373-.01c19.536.006 38.69 3.314 56.564 11.51l2.34.988c2.244.959 4.452 1.972 6.66 3.012l2.797 1.3c24.15 11.607 44.386 30.52 59.203 52.7l2.086 3.102c15.431 23.635 22.268 50.762 22.289 78.773l.006 2.09c-.005 15.219-2.024 29.462-6.381 44.035l-1.09 3.75c-4.212 13.614-11.07 25.407-18.91 37.25l-1.7 2.676-1.613 2.512-1.425 2.23L373 354h-2l-.691 1.645c-1.694 3.048-3.895 5.496-6.247 8.043l-1.47 1.596C357.804 370.378 352.55 374.75 347 379l-2.082 1.64c-33.487 25.917-75.03 34.824-116.685 29.916-6.549-1.058-12.889-2.634-19.233-4.556l-3.488-.977c-2.905-.885-5.692-1.897-8.512-3.023l-1.796-.71C165.782 389.518 140.584 369.395 123 343l-2.207-3.305c-21.429-33.515-27.463-73.882-20.236-112.76.558-2.438 1.42-4.657 2.443-6.935.465-1.627.93-3.255 1.39-4.883L105 213l.734-2.555C114.07 183.468 132.526 155.982 156 140l1-2a154.248 154.248 0 0 1 5-3c1.57-1.034 3.139-2.069 4.705-3.108 14.253-9.394 29.359-16.166 45.857-20.58l2.288-.613c12.042-3.094 23.82-4.172 36.213-4.199ZM165 136l-3.016 2.152C154.96 143.277 148.036 148.714 142 155v2l-1.818.79c-2.338 1.296-3.47 2.465-5.1 4.562l-1.6 2.056c-.55.732-1.102 1.463-1.67 2.217l-1.734 2.285c-5.431 7.307-9.926 15-14.078 23.09l-1.042 2c-3.308 6.45-5.637 13.14-7.958 20l-.879 2.492c-4.73 14.317-5.705 29.36-5.621 44.32l.004 2.505c.056 13.158 1.251 25.153 5.496 37.683.464 1.49.926 2.979 1.387 4.469C113.606 324.842 123.76 341.589 137 357l2.254 2.629c7.142 8.136 14.97 15.057 23.746 21.371l2.23 1.68c6.84 5.02 14.157 8.664 21.77 12.32 1.44.747 2.877 1.496 4.313 2.25 4.11 2.034 8.296 3.44 12.687 4.75l1.9.583c40.94 12.476 82.812 7.29 120.312-12.611 35.631-19.363 60.608-53.06 72.092-91.498 8.375-29.779 6.8-62.66-4.304-91.474-.458-1.263-.915-2.526-1.371-3.79-3.232-8.727-7.53-16.42-12.629-24.21l-1.996-3.254-1.879-3.059-1.68-2.738L373 168h-2l-.656-1.613c-1.838-3.265-4.297-5.858-6.844-8.575l-1.625-1.74c-6.92-7.334-14.158-13.848-22.55-19.467C337 135 337 135 334.616 133.015 287.613 96.816 211.09 102.452 165 136Z"/><path fill="#46545C" d="M229 60v5l-7 1v2c-1.71 1.602-3.533 3.013-5.371 4.465-2.328 2.194-2.603 4.111-2.797 7.242-.163 9.726-.163 9.726 4.48 17.98 5.502 4.734 9.57 5.863 16.688 6.313l-3 2 2 2-2.089.396c-3.2.61-6.4 1.23-9.599 1.854l-3.485.674c-5.89 1.17-11.452 2.485-17.077 4.576-6.742 2.253-12.195.857-18.75-1.5l-2.16-.754c-5.601-2.548-8.664-7.73-10.84-13.246-1.028-6.23-.66-11.7 3-17 2.563-2.875 2.563-2.875 5-5h2v-3l-5-2c3.18-2.69 6.05-3.746 10-5l4.32-1.438C202.758 62.16 214.755 59.587 229 60Z"/><path fill="#E5E6E7" d="M249.023 54.74c2.933.01 5.866 0 8.8-.013 1.88 0 3.761.003 5.642.007l2.633-.012c4.698.036 8.484.47 12.902 2.278v1l-3.817.076c-4.738.095-9.475.195-14.213.296-2.038.043-4.077.085-6.115.125-28.092.559-53.829 3.14-79.855 14.503l-2.031.852c-16.25 6.972-32.641 15.138-46.114 26.714C125 102 125 102 123 102v2c-1.37 1.182-2.8 2.294-4.25 3.375-4.37 3.403-8.348 7.02-12.25 10.938l-1.563 1.562c-2.251 2.282-4.153 4.448-5.937 7.125h-2l-.837 1.795c-1.1 2.086-2.255 3.694-3.772 5.49l-1.53 1.841-1.611 1.937c-4.208 5.146-7.857 10.168-10.773 16.18-1.3 2.427-2.708 4.53-4.29 6.777-3.769 5.584-6.26 11.58-8.812 17.793l-1.406 3.33C43.596 230.973 43.852 285.789 63 335c2.356 5.498 5.113 10.766 8 16l1.004 1.846c5.088 9.313 10.473 18.658 17.23 26.869C91 382 91 382 91 384h2a90.62 90.62 0 0 1 3.937 4.813c2.745 3.588 2.745 3.588 5.817 6.886C104 397 104 397 104 399l4 2v2l4 2v2l1.779.825c2.175 1.15 3.876 2.393 5.76 3.968l1.993 1.65 2.093 1.745C132.946 422.844 142.252 429.47 153 435l1.886.974c7.897 4.064 15.769 7.955 24.114 11.026l2.207.832c1.93.727 3.861 1.448 5.793 2.168l2.164.96c3.891 1.427 7.843 2.215 11.898 3.04l2.55.529a339.451 339.451 0 0 0 17.138 3.076C223 458 223 458 226 459c1.518.141 3.04.235 4.563.297l2.79.121 3.002.117 3.082.13c3.25.137 6.5.267 9.75.398 2.203.09 4.405.183 6.608.275 5.401.225 10.803.445 16.205.662v1c-19.317 3.58-39.734 2.438-58.913-1.567-2.132-.442-4.27-.841-6.411-1.238-28.808-5.59-61.589-19.438-83.676-39.195v-2l-1.746-.816c-2.293-1.205-4.253-2.56-6.317-4.121l-2.035-1.528c-1.774-1.431-3.4-2.819-4.902-4.535v-2h-2v-2l-1.754-.746C80.046 388.744 63.374 347.857 55 323l-.67-1.972C37.988 272.067 42.792 216.33 65 170c2.203-4.407 4.583-8.708 7-13 .676-1.328 1.347-2.66 2-4h2l.742-2.64c1.354-3.618 3.021-6.065 5.383-9.11l2.418-3.125L87 135l2.3-3c4.05-5.212 4.05-5.212 5.7-7h2l.937-1.875L100 119h2v-2h2v-2h2v-2h2v-2a102.592 102.592 0 0 1 5.25-4.5l2.953-2.406c2.246-1.681 4.244-2.975 6.797-4.094v-2c4.385-3 4.385-3 7-3v-2c1.49-1.202 1.49-1.202 3.594-2.54l2.349-1.497 2.557-1.588 2.61-1.631C148.845 80.976 156.753 76.8 165 73l3.437-1.61C183.977 64.413 200.267 60.007 217 57l2.69-.544c9.757-1.783 19.45-1.76 29.333-1.717Z"/><path fill="#48555D" d="M332 388h4a109.402 109.402 0 0 1 3.29 14.254l.327 2.012c.225 1.392.449 2.784.67 4.177.338 2.119.685 4.235 1.033 6.352.22 1.361.438 2.722.657 4.084l.596 3.705c.398 3.184.507 6.212.427 9.416l7-4-.176-2.047c-.371-7.34-.371-7.34 2.238-10.265L355 414c1.278-.906 2.55-1.823 3.813-2.75L362 409c3.605 1.664 6.888 3.525 10 6 .688 2.375.688 2.375 0 5-3.26 5.107-7.263 7.62-12.484 10.574-2.102 1.191-4.078 2.454-6.079 3.801-4.137 2.606-8.521 4.665-12.937 6.75l-2.158 1.021c-13.578 6.312-13.578 6.312-19.342 6.041l-2.313-.082L315 448c1-2 1-2 3.5-2.938L321 444l1-3c1.65-1.026 3.32-2.023 5-3 2.895-2.493 4.453-4.17 5-8l-1.813-.438c-1.749-.45-3.474-.99-5.187-1.562l-.625 2.313c-1.849 3.613-3.605 4.31-7.375 5.687-3.99.582-5.691.157-9.313-1.688C305 432 305 432 304.125 429.25L304 427h-2c-.67-7.768-.67-7.768 2.313-11.375 4.678-4.57 4.678-4.57 9.125-4.813 2.744.145 4.97.359 7.562 1.188l.938-2.375C323 407 323 407 324 405h-2l-1-3h3l-.063-3.313C324 395 324 395 325 392a100.679 100.679 0 0 1 6-3l1-1Z"/><path fill="#E91C26" d="M219 301h9v67l62-1c.21-15.048.21-15.048.388-30.097.032-1.882.066-3.764.1-5.645l.02-2.979.06-2.83.033-2.462C291 321 291 321 294 319h3l2-2v60h-80v-76Z"/><path fill="#4D5961" d="M410 134c3.44 1.229 4.86 2.992 6.742 6.05 1.587 2.46 3.364 4.745 5.133 7.075 4.135 5.668 7.128 11.553 10.125 17.875 1.716 3.443 3.458 6.874 5.197 10.305 5.903 11.754 5.903 11.754 5.49 15.632L442 193l-3-2 .313 3.813c.011 2.207.011 2.207-.313 4.187-2.409 2.028-3.83 3-7 3a751.916 751.916 0 0 1-1.5-3.875l-.844-2.18C429 194 429 194 429 192c-8.44 3.082-16.775 6.178-24.863 10.117C402 203 402 203 399 203l-2-8a884.189 884.189 0 0 1 18.563-8.313l3.566-1.55C422 184 422 184 424 184l-.656-1.828-.844-2.422-.844-2.39C421 175 421 175 421 171l-4-2v-6l-3.938-.438c-3.937-.437-3.937-.437-5.062-1.562-.495-2.51-.9-5.029-1.305-7.555-.779-2.739-1.408-3.778-3.695-5.445-4.657-1.482-8.076-1.47-12.438.75-3.471 3.048-4.498 4.462-4.875 9.125.127 3.83.704 6.179 3.313 9.125 2.298 1.267 4.513 2.109 7 3l-1 7-10-2-1-3-3-1c-4.399-5.404-4.835-10.67-4.652-17.543 1.262-6.688 5.715-10.333 11.023-14.172 5.348-2.614 12.368-2.208 18.031-.605 1.91.82 1.91.82 4.598 2.32l-.563-2.375C409 136 409 136 410 134Z"/><path fill="#48555D" d="M318 69c9.89 1.866 19.15 6.313 28 11l2.512 1.3c7.15 3.785 13.845 8.09 20.488 12.7l2.465 1.668c3.822 2.688 6.41 4.554 7.535 9.332-2.75.688-2.75.688-6 1-2.375-1.438-2.375-1.438-4-3-3.122 1.309-3.122 1.309-5 4h-2l-.75 1.688c-1.48 2.736-3.185 4.989-5.25 7.312h-2c-.235.541-.47 1.083-.71 1.64-1.648 3.016-3.717 5.472-5.915 8.11l-2.477 2.984L343 131l3 1v2c-4.094 1.365-5.691.08-9.469-1.691-3.48-1.8-6.802-3.825-10.144-5.868C318.679 121.787 310.49 118.91 302 116l4-1v-3l7 2 .48-1.8c1.893-6.725 4.495-12.91 7.52-19.2 2.782 2.782 3.142 5.969 4 9.688.332 1.4.665 2.8 1 4.199l.492 2.083c.488 1.948 1.059 3.875 1.633 5.8C329 118 329 118 329 122l7 1 1.066-2.684 1.497-3.754.799-2.006a822.616 822.616 0 0 1 4.595-11.267l.969-2.326c.626-1.502 1.256-3.003 1.889-4.502 1.618-3.607 1.618-3.607 2.185-7.461l-7-3-.309 1.98c-.899 3.928-2.307 7.578-3.753 11.332l-.854 2.245c-.691 1.815-1.387 3.63-2.084 5.443h-2c-.182-.8-.364-1.598-.55-2.422-1.542-6.732-3.153-13.435-4.9-20.117C327 82 327 82 327 79l-3.875-.625-2.18-.352L319 78l-2 2-1-4h2l-.563-2.938L317 70l1-1Z"/><path fill="#F5F7F8" d="M245 68c3.897 3.464 6.75 6.181 7.477 11.477.363 6.847.633 12.367-4.04 17.835-6.017 5.513-11.63 7.34-19.718 7.106-5.638-.867-9.27-3.932-13.156-7.918-2.648-4.236-2.738-8.584-2.813-13.5l-.078-3.063C213.25 74.764 216.155 71.35 220 68h2v-2c8.008-1.792 15.767-2.195 23 2Z"/><path fill="#F5F7F7" d="M411 256c4.608.262 9.217.529 13.824.8 1.567.091 3.133.181 4.7.27 2.256.128 4.513.261 6.769.395l2.11.117c3.611.218 7.07.603 10.597 1.418.833 20.15.833 20.15-6.375 28.875-4.678 3.787-8.45 5.68-14.61 5.41-6.114-.865-10.035-3.752-14.015-8.285l-1.622-1.794c-1.783-2.855-1.722-4.717-1.671-8.065l.03-3.38.075-3.511.042-3.559c.035-2.897.084-5.794.146-8.691Z"/><path fill="#D02734" d="m259.156 222.66 3.73-.002c3.326.002 6.65.017 9.977.038 3.494.019 6.988.02 10.482.024 6.594.01 13.187.034 19.781.064 8.256.037 16.512.053 24.769.07 14.701.029 29.403.089 44.105.146v83c-27.75.437-27.75.437-36.499.568l-6.86.116-3.602.05-3.444.06-2.988.048A28.402 28.402 0 0 0 312 308v2l-1.898.988-2.477 1.324-2.46 1.301c-2.433 1.355-2.433 1.355-4.165 4.387-.33 2.728-.33 2.728-.319 5.848l-.06 3.69-.035 3.88-.054 3.565c-.063 4.401-.109 8.803-.157 13.204L300 378h-82v-77h1v76h80l-1-58-6 2-1 46h-1a2230.4 2230.4 0 0 1-.275-21.24c-.025-2.406-.059-4.81-.102-7.216-.061-3.47-.09-6.94-.111-10.411l-.078-3.224c-.003-7.443 1.665-12.588 5.566-18.909l1.08-1.802c3.434-4.88 8.395-6.608 13.92-8.198 3.987-.49 7.902-.47 11.914-.39l2.948.012c3.588.02 7.175.076 10.763.128L360 296v-60h1v61c-22.688.312-22.688.312-29.827.388-1.874.032-3.748.066-5.622.1l-2.932.02c-5.012.106-8.535.235-12.619 3.492 3.242 2.903 5.374 3.385 9.687 3.432l3.505.06 3.667.02 3.384.05c4.169.058 8.338.09 12.507.125L371 305v-80c-23.161.149-23.161.149-46.322.307-9.444.066-18.888.131-28.332.19-6.877.043-13.755.09-20.632.14-3.642.026-7.283.051-10.925.072-4.065.023-8.13.054-12.196.086l-3.657.017-3.361.03-2.914.02c-2.644.137-5.083.55-7.661 1.138v2l-7 2-1 4-4-1c5.248-7.192 10.764-8.725 19.247-10.415 5.66-.883 11.19-.98 16.909-.926Z"/><path fill="#F4F6F7" d="M386.094 356.98c3.764 2.217 6.365 3.786 7.906 8.02.195 2.36.195 2.36.125 4.75l-.055 2.422L394 374l2.773.148 3.602.227 3.586.21C407 375 407 375 409 377c-1.604 2.334-2.893 4.165-5 6-5.463.84-10.704-.655-16-2l-.938 1.875L385 387l8 7c-2.394 4.668-2.394 4.668-4.762 5.965-3.01.047-4.196-1.313-6.299-3.332l-1.502-1.508a902.307 902.307 0 0 0-3.19-3.063l-1.63-1.562c-3.247-3.013-6.756-5.7-10.242-8.43-2.476-2.158-4.403-4.45-6.375-7.07 1.748-2.085 3.498-4.168 5.25-6.25l1.488-1.777c11.798-14 11.798-14 20.356-9.993Z"/><path fill="#F3F5F6" d="m319 77 8 2c.996 3.715 1.99 7.43 2.977 11.148a948.937 948.937 0 0 0 1.734 6.454c.944 3.545 1.519 6.723 1.289 10.398h2l.309-2.508c.8-4.045 2.17-7.576 3.753-11.367l.854-2.086c.69-1.682 1.386-3.36 2.084-5.039 3.375.547 5.082 1.055 8 3-1.772 6.513-4.003 12.688-6.672 18.887a232.153 232.153 0 0 0-2.656 6.508l-1.297 3.293-1.164 3.011C337 123 337 123 334 124c-2.563-.313-2.563-.313-5-2-.772-2.435-1.155-4.823-1.54-7.348-.422-2.432-1.034-4.437-1.96-6.715-1.475-3.65-2.316-7.293-3.07-11.152-.269-1.798-.269-1.798-1.43-2.785l-8 20c-5-1-5-1-8-2 .596-3.341 1.416-6.36 2.672-9.512l1.008-2.534 1.07-2.641 1.086-2.7c2.446-6.018 5.042-11.91 8.164-17.613Z"/><path fill="#F4F6F7" d="M269 65c3.292-.17 5.03-.254 8 1 2.614 3.36 4.22 7.15 6 11 1.11 2.07 2.235 4.133 3.375 6.188L289 88l.938-1.875L292 82c.388-2.203.737-4.412 1.063-6.625l.535-3.602L294 69l8 1c-.284 3.022-.577 6.042-.875 9.063l-.238 2.568c-.503 5.005-1.402 9.542-2.887 14.369a195.832 195.832 0 0 0-1.125 5.938l-.508 2.902L296 107h-7c-1.61-2.85-3.212-5.706-4.813-8.563l-1.369-2.423C280.255 91.429 277.968 86.87 276 82h-1l-4 21c-6 0-6 0-8-1-.385-6.423.772-12.053 2.203-18.309 1.012-4.688 1.707-9.395 2.367-14.144C268 67 268 67 269 65Z"/><path fill="#F3F6F6" d="M161.313 387.75c3.284.306 4.514.755 6.687 3.25.312 5.266-.352 10.21-1.25 15.375l-.396 2.333c-1.433 8.18-3.345 16.237-5.354 24.292l-7-4c-.143-7.429-.143-7.429 1-11l-2.125-.75C150 416 150 416 147 413.875c-3.122-1.951-4.42-2.552-8-1.875l-1.438 1.563C136 415 136 415 132.938 414.938c-2.937-.938-2.937-.938-4.312-3L128 410c4.59-3.83 9.497-7.145 14.438-10.5l2.525-1.723a918.65 918.65 0 0 1 10.572-7.12c4.047-2.72 4.047-2.72 5.778-2.907Z"/><path fill="#F3F5F6" d="M398 320c4.75 1.875 4.75 1.875 7 3-1.699 4.587-4.061 8.474-6.66 12.598-1.22 2.187-1.883 3.957-2.34 6.402l6 2 8-14 6 2c0 4.417-.811 5.839-3 9.563-2.429 3.954-2.429 3.954-3 8.437l6 3 .625-2.375c1.577-4.157 3.7-7.684 6.035-11.453 1.345-2.109 1.345-2.109 2.34-4.172 2.438.688 2.438.688 5 2 .899 2.682 1.247 4.308.285 7l-1.223 2-1.382 2.309L426 351c-.707 1.157-1.412 2.315-2.117 3.473-1.945 3.186-3.91 6.359-5.883 9.527-5.655-1.562-10.314-4.337-15.313-7.313-1.62-.955-3.241-1.91-4.863-2.863l-2.397-1.412c-3.776-2.197-7.598-4.31-11.427-6.412.802-3.622 2.175-6.03 4.25-9.125 2.957-4.526 5.481-9.099 7.805-13.977C397 321 397 321 398 320Z"/><path fill="#F3F6F6" d="M342 386c4.699 1.584 8.368 4.165 12.375 7 1.413.987 2.827 1.972 4.242 2.957l2.183 1.522c3.538 2.446 7.117 4.83 10.7 7.209l1.978 1.314c1.507 1 3.014 2 4.522 2.998-2.25 2.5-2.25 2.5-5 5-4.68 0-5.621-.996-9-4-4.91 1.534-9.696 4.002-13 8-.324 2.668-.132 5.047.11 7.719-.11 2.281-.11 2.281-2.985 4.906C345 432 345 432 343 432a9062.24 9062.24 0 0 1-4-24c-.19-1.154-.19-1.154-.386-2.332-.293-1.784-.579-3.57-.864-5.356-.15-.931-.3-1.863-.453-2.824-.306-2.565-.523-4.91-.297-7.488 2.5-2.313 2.5-2.313 5-4Z"/><path fill="#F4F6F7" d="M106 321c1.563 2.813 1.563 2.813 3 6-1.22 3.66-2.126 3.923-5.438 5.688l-2.433 1.324C99 335 99 335 97 335l1.277 2.3 1.66 3.012 1.653 2.989C103 346 103 346 104 349l2.266-1.313L109.25 346l2.953-1.688C115 343 115 343 119 343c1.308 2.155 2.055 3.446 1.802 5.994-1.06 2.652-2.152 3.098-4.689 4.354a175.187 175.187 0 0 0-10.445 5.836l-2.729 1.619a526.781 526.781 0 0 0-5.562 3.351l-2.709 1.592-2.429 1.459C90 368 90 368 87.771 367.203 86 366 86 366 85 365a99.984 99.984 0 0 1 0-5 488379439.73 488379439.73 0 0 1 6.738-3.809C94 355 94 355 97 354l-1.277-2.336-1.66-3.039-1.653-3.023A157.118 157.118 0 0 1 90 341c-3.074 1.118-5.827 2.45-8.625 4.125C78 347 78 347 75 347l-3-7 3.191-1.871 4.371-2.567c.762-.446 1.523-.892 2.307-1.353a861.03 861.03 0 0 0 11.53-6.877l2.064-1.254a780.503 780.503 0 0 0 3.889-2.384C103.779 321 103.779 321 106 321Z"/><path fill="#46545C" d="M168 389c1.398.73 1.398.73 2.824 1.477 3.02 1.65 3.02 1.65 5.988 1.898 4.593.9 8.21 3.23 12.188 5.625-.313 1.938-.313 1.938-1 4l-3 1c-.902 1.732-.902 1.732-1.46 3.89l-.75 2.467L182 412a729.983 729.983 0 0 1-1.79 5.297l-1.835 5.453-.945 2.785-.907 2.7-.815 2.412c-1.467 4.874-1.76 8.328-.708 13.353-5.656.566-9.226-1.286-14-4 .09-.891.09-.891.184-1.8l.254-2.512.285-2.793c.173-1.814.33-3.629.46-5.446.461-6.193 1.461-12.212 2.654-18.3 1.3-6.685 2.266-13.397 3.163-20.149Z"/><path fill="#F4F6F7" d="M275 414h8c3.585 12.427 3.128 25.185 3 38h-8l-1-15-14 1-1 16h-8a2402.75 2402.75 0 0 1-1.5-12.188l-.434-3.427c-.937-7.833-1.242-15.499-1.066-23.385h9v15h16l-1-7a94.649 94.649 0 0 1-.063-4.938l.028-2.34L275 414ZM126 355a158.814 158.814 0 0 1 6 5v2l3 1c1.684 1.707 1.684 1.707 3.438 3.813 2.419 2.855 4.86 5.592 7.562 8.187-1.049 2.622-1.65 3.794-4.125 5.25L140 381l-2-4h-2c-1.82-2.008-3.471-4.122-5.148-6.25-1.912-2.208-1.912-2.208-5.852-1.75l-2 1c.532 4.138 2.78 6.27 5.563 9.25l2.503 2.703L133 384c-1.52 3.367-2.521 4.608-6 6v-2h-2c-1.621-1.68-1.621-1.68-3.438-3.875-2.146-2.587-3.73-4.237-6.562-6.125l-3 1v2h-2v3h2c1.586 1.61 1.586 1.61 3.375 3.75 1.974 2.345 3.841 4.445 6.125 6.5 1.5 1.75 1.5 1.75 1.5 3.813-1.24 2.404-2.82 3.385-5 4.937l-1.421-1.513-6.391-6.8-2.237-2.38-2.158-2.295-1.984-2.11c-1.742-1.905-1.742-1.905-3.609-3.403C99 383 99 383 99.094 381.04c1.104-2.484 2.407-3.807 4.406-5.648l2.178-2.028L108 371.25l2.336-2.16c5.162-4.761 10.355-9.492 15.664-14.09Z"/><path fill="#F2F4F5" d="m439.766 213.945 2.415.024L444 214c.675 3.54 1.339 7.082 2 10.625l.578 3.027c.897 4.839 1.692 9.402 1.422 14.348l-7 1c-1.711-4.522-2.352-8.556-2.625-13.375l-.227-3.773L438 223l-8 1 .656 2.922.844 3.828.844 3.797C433 238 433 238 433 242c-2.709 1.354-5.01 1.065-8 1-.504-2.27-1.003-4.541-1.5-6.813l-.844-3.832C422 229 422 229 422 226h-7l.656 3.543.844 4.644.434 2.33c.698 3.877 1.256 7.524 1.066 11.483h-7c-2.786-9.37-4.668-18.16-5-28 5.53-1.8 11.038-2.663 16.79-3.492a92.167 92.167 0 0 0 7.96-1.633c3.07-.732 5.861-.97 9.016-.93Z"/><path fill="#F3F6F6" d="M93 246v9l-7 3-1 17 5 1 3 1v9c-7.52-2.343-14.624-5.354-21.813-8.563L67.8 275.94C58.959 272.02 58.959 272.02 55 270v-8c6.24-3.238 12.6-5.952 19.125-8.563 7.302-2.91 7.302-2.91 14.43-6.214C91 246 91 246 93 246Z"/><path fill="#F2F5F5" d="M367 102c3.628 1.14 5.818 2.6 8.406 5.363 2.172 2.23 4.472 4.3 6.781 6.387l2.606 2.36c2.057 1.916 2.057 1.916 4.207 2.89-.398 2.886-.79 3.822-3.063 5.75L384 126c-2-1.375-2-1.375-4-3v-2l-1.734-.805c-2.374-1.252-4.388-2.689-6.516-4.32l-2.14-1.633L368 113c-1.46 2.647-2 3.894-2 7 2.455 2.17 5.07 4.034 7.715 5.965 2.34 2.083 3.103 2.946 3.285 6.035-1.188 1.813-1.188 1.813-3 3-4.08-.329-6.248-2.786-9.125-5.5-3.183-3.114-3.183-3.114-6.875-5.5l-.875 1.813C356 128 356 128 354 131l1.75.813c2.306 1.216 4.27 2.49 6.25 4.187v2l1.813.813c2.16 1.172 3.545 2.38 5.187 4.187l-3 6c-3.399-1.523-6.058-3.524-8.938-5.875l-2.527-2.055L352 139l-2.672-2.117c-2.27-1.836-4.303-3.783-6.328-5.883 1.451-3.27 3.277-5.617 5.688-8.25l2.144-2.367L353 118a954.04 954.04 0 0 0 3.875-4.375l1.68-1.898c1.623-1.876 1.623-1.876 3.445-4.727h2l.938-1.938C366 103 366 103 367 102Z"/><path fill="#F4F6F6" d="M96 150c2.531.371 5.054.81 7.563 1.313l2.055.407c1.413.282 2.826.566 4.239.852 2.145.428 4.293.83 6.444 1.225l4.074.766 3.71.69C127 156 127 156 129 158l-4 6-10-1-2 4-2.125 2.938c-1.948 3.182-2.542 4.44-1.875 8.062l1.563 2.063C112 182 112 182 111.936 184c-1.191 2.543-2.93 4.062-4.937 6-1.607-2.227-3.21-4.457-4.813-6.688l-1.369-1.896A142.085 142.085 0 0 1 94 171c-2.072-3.031-4.16-6.05-6.258-9.063-1.665-2.807-2.459-4.71-2.742-7.937 2.101-5.182 6.15-4.312 11-4Z"/><path fill="#F4F6F7" d="M134 103c.338 2.541.67 5.083 1 7.625.095.713.19 1.426.29 2.16.526 4.103.815 8.067.71 12.215 2.729.647 5.458 1.293 8.188 1.938l2.33.552c3.816.901 7.629 1.776 11.482 2.51-2.4 5.353-2.4 5.353-5 7-5.526-.281-10.668-1.572-16-3l.477 1.625c1.045 4.743 1.141 9.565.523 14.375-2.375 2.75-2.375 2.75-5 4h-2l-2-23-9-1a96.232 96.232 0 0 1-6.563-2.063l-3.128-1.097L108 126c1.15-3.452 1.908-4.21 5-6 5.134-.309 10.396.698 15 3l-.5-2.438c-1.19-8.48-1.19-8.48-.5-12.562 3.878-5 3.878-5 7-5Z"/><path fill="#F3F6F6" d="M322.36 404.027 324 405c-1.875 4.75-1.875 4.75-3 7l-2.23-.14c-6.202-.311-6.202-.311-11.832 1.952-2.753 3.109-4.16 5.278-4.563 9.375L302 427h2l1.25 2.875c2.052 3.676 2.052 3.676 5.75 5.125 4.415.384 7.984-.083 12-2 1.44-2.51 1.44-2.51 2-5a84.76 84.76 0 0 1 7 2c-.261 4.44-1.99 6.723-5.133 9.64-5.525 4.023-12.207 5.206-18.867 4.36-5.892-2.618-10.282-6.37-13.07-12.262-1.944-5.724-2.301-12.577.132-18.187 6.263-8.935 16.55-14.203 27.297-9.524Z"/><path fill="#728BB3" d="M216 300h13v67h60v-49h1v50h-62v-67h-10v77h82c-.158-19.566-.158-19.566-.36-39.132a5490.4 5490.4 0 0 1-.03-7.352l-.063-3.864-.001-3.69-.027-3.203c.595-3.415 1.852-4.59 4.481-6.759l-1 3a141.053 141.053 0 0 0-.205 6.124l-.061 3.875-.05 4.075c-.02 1.236-.038 2.471-.057 3.744-.068 4.623-.128 9.246-.19 13.87L302 380h-85c-1.503-3.005-1.13-6.093-1.114-9.387v-2.306c0-2.522.009-5.043.016-7.565l.005-5.238c.003-4.6.013-9.2.024-13.8.01-4.691.015-9.383.02-14.075.01-9.21.028-18.42.049-27.629Z"/><path fill="#F3F5F6" d="m190.063 74.813 3.16.019C196 75 196 75 199 76c-.875 5.75-.875 5.75-2 8l-2.45-.176c-6.713-.348-6.713-.348-12.8 2.114-2.388 4.18-2.244 7.367-1.75 12.062l.25 2.938c.56 2.194.56 2.194 2.516 3.175 2.415.959 4.146 1.155 6.734 1.137l2.281.016c3.628-.435 5.657-1.584 7.969-4.391L201 99l7 2c-.9 4.802-3.5 7.715-7 11-5.735 3.14-13.854 3.069-20.121 1.453-5.537-2.614-8.697-7.92-10.879-13.453-.84-5.09-.51-9.411 1.063-14.313 4.9-6.798 10.493-10.99 19-10.874Z"/><path fill="#F3F6F7" d="M403 138c6.163 3.015 10.49 7.67 13 14 .287 3.036.248 5.964 0 9h-8l-.332-2.082-.48-2.73-.458-2.708c-.808-2.744-1.432-3.807-3.73-5.48-4.657-1.482-8.076-1.47-12.438.75-3.471 3.048-4.498 4.462-4.875 9.125.127 3.83.704 6.179 3.313 9.125 2.298 1.267 4.513 2.109 7 3l-1 7-10-2-1-3-3-1c-4.399-5.404-4.835-10.67-4.652-17.543 1.26-6.678 5.704-10.351 11.03-14.156 5.005-2.484 10.202-2.193 15.622-1.301Z"/><path fill="#F3F5F6" d="M63 203c2-.043 4-.04 6 0l1 1c-.475 7.237-2.12 14.01-4 21h8l.313-2.938c.633-4.548 2.135-8.756 3.687-13.062l7 1c-.688 6.192-2.28 12.02-4 18l3.625.375c3.651.448 6.92 1.33 10.375 2.625-.875 5.75-.875 5.75-2 8-6.725-1.075-13.35-2.541-20-4l-3.695-.793c-1.729-.38-1.729-.38-3.493-.77l-3.167-.69C60 232 60 232 57 230c1.179-9.336 3.226-18.019 6-27Z"/><path fill="#14A5E1" d="m251.81 235.546 3.55-.002c3.858.003 7.716.034 11.574.065 2.68.008 5.36.014 8.04.018 6.326.012 12.651.045 18.976.085 7.912.05 15.824.07 23.736.093 14.105.039 28.209.119 42.314.195v60c-24.625.437-24.625.437-32.37.568l-6.107.116-3.178.05c-4.877.097-9.551.256-14.345 1.266v-3h7v-2h47v-55h-70v2h-12v28h-1v-29c-6.126-.03-6.126-.03-12.375-.063l-3.837-.027c-9.972-.265-9.972-.265-19.788 1.09l-1.521 1.543C236 243 236 243 232 243c1.171-3.514 2.535-4.473 5.751-6.184 4.55-1.65 9.277-1.333 14.06-1.27Z"/><path fill="#F4F6F7" d="m214 411 5.434.68L222 412l15.86 1.982 3.171.397L246 415l-1 8-12-1-.367 4.531-.508 5.969-.238 2.977c-.495 5.709-1.324 11.007-2.887 16.523h-8c-.273-7.027.777-13.591 2-20.5l.578-3.36c.468-2.714.942-5.427 1.422-8.14l-1.898.035c-.818.01-1.635.018-2.477.027l-2.46.036C216 420 216 420 214 419v-8Z"/><path fill="#F1F4F5" d="m428 170 1.39 3.402 1.86 4.536.963 2.358c1.665 4.059 3.394 8.057 5.287 12.017 1.5 3.687 1.5 3.687 1.285 5.84C438 200 438 200 434.937 201.25L432 202a751.916 751.916 0 0 1-1.5-3.875l-.844-2.18C429 194 429 194 429 192c-8.44 3.082-16.775 6.178-24.863 10.117C402 203 402 203 399 203l-2-8a884.189 884.189 0 0 1 18.563-8.313l3.566-1.55C422 184 422 184 424 184l-.656-1.863-.844-2.45-.844-2.425C421 175 421 175 421 172c4.75-2 4.75-2 7-2Z"/><path fill="#F3F5F6" d="m185 402 7 1c1.517 3.89.401 6.138-1.188 9.875-2.817 6.933-4.873 13.9-6.812 21.125a255.27 255.27 0 0 0 6.727 1.613l2.898.7 2.914.675C199 438 199 438 200.461 439.793c.725 2.968-.122 4.529-1.461 7.207-17.448-3.867-17.448-3.867-25-8-1.335-3.252-.843-5.283.328-8.52l.926-2.6.996-2.692.95-2.659A241.724 241.724 0 0 1 183 408c.688-1.993 1.363-3.99 2-6Z"/><path fill="#C83647" d="M222 235h1v5l3.188-1.625c2.926-1.279 3.524-1.455 6.75-.563L235 239l-2 2a208.063 208.063 0 0 0-2 5l-1 1a157.84 157.84 0 0 0-.281 6.625l-.056 2.006A1777.15 1777.15 0 0 0 229.5 262c-.067 2.792-.141 5.583-.219 8.375l-.092 3.773C229 277 229 277 228 278a91.472 91.472 0 0 1-5.063.063l-2.785-.028L218 278c-.1-4.999-.172-9.997-.22-14.996-.02-1.699-.047-3.397-.082-5.095-.049-2.45-.071-4.9-.089-7.35l-.062-2.277c-.003-5.525 1.39-8.685 4.453-13.282Z"/><path fill="#AF465A" d="m259.156 222.66 3.73-.002c3.326.002 6.65.017 9.977.038 3.494.019 6.988.02 10.482.024 6.594.01 13.187.034 19.781.064 8.256.037 16.512.053 24.769.07 14.701.029 29.403.089 44.105.146v83c-27.75.437-27.75.437-36.499.568l-6.86.116-3.602.05-3.444.06-2.988.048A28.402 28.402 0 0 0 312 308v2l-8 4c1.452-4.357 4.102-5.501 7.99-7.73 5.333-2.25 10.528-2.007 16.237-1.856 1.636.01 1.636.01 3.305.018 4.031.032 8.062.115 12.093.193L371 305v-80c-23.161.149-23.161.149-46.322.307-9.444.066-18.888.131-28.332.19-6.877.043-13.755.09-20.632.14-3.642.026-7.283.051-10.925.072-4.065.023-8.13.054-12.196.086l-3.657.017-3.361.03-2.914.02c-2.644.137-5.083.55-7.661 1.138v2l-7 2-1 4-4-1c5.248-7.192 10.764-8.725 19.247-10.415 5.66-.883 11.19-.98 16.909-.926Z"/><path fill="#4B5860" d="M238.188 73.188c3.243 2.09 4.407 3.22 5.812 6.812.644 3.869.91 7.378-1.055 10.879-2.317 2.845-4.238 4.886-7.933 5.394-4.43.194-6.349.25-9.95-2.585-3.482-4.539-4.51-6.86-4.382-12.465.48-3.336 1.873-4.98 4.32-7.223 4.278-2.995 8.44-2.581 13.188-.813Z"/><path fill="#48555E" d="m284 409-2.938.875c-3.169.767-3.169.767-4.062 3.125h7l-1 4v-3h-8l1 16h-16c-.25-13.625-.25-13.625 2-17h-18v2c-8.893.485-17.31-1.324-26-3 3.692-1.912 6.915-3.46 11.132-2.53 3.774.697 7.494.692 11.317.698l2.463.01c1.717.005 3.434.007 5.151.007 2.598.002 5.196.02 7.794.04 11.227.085 11.227.085 22.244-1.892 2.24-.393 3.752-.019 5.899.667Z"/><path fill="#4B575F" d="M418 265c3.271.139 6.542.287 9.813.438l2.814.119 2.705.127 2.491.11C438 266 438 266 441 267c.45 6.403-.144 9.79-4 15-3.691 2.531-7.543 2.297-11.84 1.645-2.795-.835-4.655-2.167-6.363-4.547-1.706-4.49-1.14-9.384-.797-14.098Z"/><path fill="#34ACD9" d="m204 216 2 1a442.624 442.624 0 0 1-4.125 2.875l-2.32 1.617c-6.313 3.726-12.075 3.78-19.203 3.703l-2.722-.006c-3.335-.01-6.67-.038-10.005-.064L145 225v56h119v1H143v-59c22.813-.25 22.813-.25 29.945-.298 1.9-.03 3.8-.06 5.7-.093l2.904-.003c8.192-.17 15.577-2.023 22.451-6.606Z"/><path fill="#4C5860" d="m131 96 2 1-2 3 .625 1.938L132 104l-1.96 1.645c-2.797 3.23-2.49 6.052-2.29 10.105l.055 2.113c.047 1.713.118 3.425.195 5.137l-2.188-.445c-6.355-1.332-6.355-1.332-12.812-1.555-3.152 2.23-3.152 2.23-5 5l4 1h-5l-1-2-6 2c.582-3.455 1.724-5.091 4.203-7.531l1.973-1.957 2.074-2.012 2.027-2.012C119.917 104 119.917 104 123 104v-2c1.75-1.508 1.75-1.508 4-3.125l2.25-1.633L131 96Z"/><path fill="#269FD5" d="M229 300h2v65h56c-.08-14.345-.08-14.345-.18-28.69l-.015-5.392-.031-2.832-.001-2.706-.014-2.349C287 321 287 321 289 318v49h-60v-67Z"/><path fill="#F3F6F6" d="M70 184c4.5.747 8.714 2.17 13 3.688l2.25.793c6.783 2.441 13.276 5.344 19.75 8.519-.875 5.75-.875 5.75-2 8-6.007-1.687-11.784-3.646-17.55-6.027-2.378-.944-4.764-1.756-7.2-2.536-3.606-1.165-6.906-2.636-10.25-4.437.523-2.763 1.109-5.326 2-8Z"/><path fill="#7983A9" d="M372 223h2v85l-40 1c-12.574.222-12.574.222-25 2l3-1v-2c3.304-1.973 5.772-2.244 9.595-2.227h3.444l3.602.032 3.323.006c4.096.01 8.19.038 12.286.064L372 306v-83Z"/><path fill="#7C93B9" d="m251.81 235.546 3.55-.002c3.858.003 7.716.034 11.574.065 2.68.008 5.36.014 8.04.018 6.326.012 12.651.045 18.976.085 7.912.05 15.824.07 23.736.093 14.105.039 28.209.119 42.314.195v60h-47l1-2h45v-57c-21.101.127-21.101.127-42.202.272-7.546.056-15.093.108-22.64.15-6.613.036-13.226.083-19.84.136-2.524.019-5.048.034-7.571.045-3.534.017-7.067.046-10.601.078l-3.165.007c-8.481-.088-8.481-.088-15.606 3.937L236 243h-4c1.171-3.514 2.535-4.473 5.751-6.184 4.55-1.65 9.277-1.333 14.06-1.27Z"/><path fill="#E6E7E8" d="m252.625 54.625 2.917-.006c2.77 0 5.54.019 8.31.045l2.525.007c4.588.074 8.304.588 12.623 2.329v1l-3.817.076c-4.738.095-9.475.195-14.213.296-2.038.043-4.077.085-6.115.125C217.419 57.387 217.419 57.387 184 70c-2 .04-4 .043-6 0 5.714-7.663 19.27-8.811 28-11l2.782-.707c14.492-3.491 29.018-3.655 43.843-3.668Z"/><path fill="#30ABDA" d="M132 295h132c-4.385 2.193-6.557 2.234-11.39 2.195l-2.136-.008c-2.241-.011-4.483-.037-6.724-.062-1.523-.01-3.047-.02-4.57-.027-3.727-.022-7.453-.057-11.18-.098v3h-10v-2l-86-1v-2Z"/><path fill="#DFE0E3" d="M275 56c28.255 1.128 58.325 11.756 82 27-1.7 1.168-1.7 1.168-4 2-2.332-1.012-2.332-1.012-4.813-2.688C341.894 78.12 335.055 75.596 328 73c-3.912-1.439-7.78-2.904-11.605-4.563-15.812-6.695-33.38-8.71-50.395-9.437v-1l9-1v-1Z"/><path fill="#19A6DA" d="M216 151h60v67h-1v-65l-57 1c-.29 16.694-.29 16.694-.568 33.388l-.116 6.26-.05 3.306-.06 3.137-.048 2.732C217 205 217 205 216 207h-2l.487-1.673c.567-2.573.674-4.92.718-7.555l.061-3.197.05-3.34c.02-1.019.038-2.037.057-3.086.068-3.8.128-7.6.19-11.399L216 151Z"/><path fill="#CBEFF5" d="M234 107c26.365-.873 51.509-.23 76 11l2.34.988c9.018 3.852 17.877 7.998 25.66 14.012-2.385.86-3.51 1.226-5.86.145l-1.89-1.333C311.043 118.996 286.629 112.846 264 110v-1l-30-1v-1Z"/><path fill="#EB1B24" d="m223 248 1 3 3-1v27h-8v-26l1 3h2l-.063-2.438C222 249 222 249 223 248Z"/><path fill="#43545B" d="M119 336c2.451 2.923 4.624 5.924 6.688 9.125C131.496 353.92 138.371 361.746 146 369l-4 2c-2-1.375-2-1.375-4-3v-2l-3-1c-1.684-1.742-1.684-1.742-3.438-3.875-2.32-2.814-4.568-5.032-7.562-7.125l-2 1v-3l-2-2c-.4-2.323-.74-4.657-1-7l-6 1v-2l2.438-.75c2.733-.972 2.733-.972 3.374-3.375L119 336Z"/><path fill="#CDEBF0" d="M119 181h1c-.221 4.865-1.493 8.24-3.75 12.563-3.448 6.605-5.91 13.374-8.25 20.437l-.871 2.477c-5.63 16.974-5.772 34.828-6.129 52.523h-1c-1.821-33.855-1.821-33.855 2-47l.54-1.966c3.805-13.773 9.327-26.64 16.46-39.034Z"/><path fill="#CB2836" d="M251.912 223.773h3.904c3.516-.002 7.032.01 10.548.024 3.681.013 7.362.014 11.043.016 6.963.006 13.925.023 20.888.043 7.93.022 15.86.033 23.79.043 16.305.021 32.61.056 48.915.101v1l-2.032.013c-16.317.103-32.633.212-48.95.326-7.89.056-15.78.11-23.672.158-6.877.043-13.755.09-20.632.14-3.642.026-7.283.051-10.925.072-4.065.023-8.13.054-12.196.086l-3.657.017-3.361.03-2.914.02c-2.644.137-5.083.55-7.661 1.138v2l-7 2-1 4-4-1c7.503-10.282 17.126-10.297 28.912-10.227Z"/><path fill="#E3FDFE" d="M205 140h82v1h-81c.079 17.785.079 17.785.18 35.57l.015 6.715.031 3.49c.003 13.668.003 13.668-4.351 18.662L200 207l-2-1 1.875-2.688c3.038-4.735 4.366-8.297 4.444-13.928l.06-3.382.035-3.522.054-3.26c.062-4.011.109-8.022.157-12.032L205 140Z"/><path fill="#4C575E" d="M130 144h1v10l2.375-2c2.625-2 2.625-2 4.625-2v-6l1 4 6 1-2.313 2.688c-2.166 2.524-4.32 5.058-6.464 7.601l-1.482 1.755-2.957 3.511c-1.871 2.218-3.731 4.392-5.784 6.445-1.362-7.306-1.362-7.306.5-10.875L128 158l-1-2h3l-.563-1.5c-.638-3.65.014-6.84.563-10.5Z"/><path fill="#23A8DB" d="M391 201c9.153 17.76 12.177 37.405 12.188 57.188l.037 3.462c.033 19.88.033 19.88-4.225 27.35-.027-1.48-.046-2.958-.063-4.438l-.035-2.496C399 280 399 280 400 279c.126-2.648.189-5.268.203-7.918l.017-2.451c.01-1.724.016-3.448.02-5.173.01-2.59.04-5.179.072-7.769.07-11.06-.783-21.1-4.312-31.689l1-3h-2l-1-6h-1v-7h-2v-7Z"/><path fill="#B93247" d="M360 236h1v61c-24 .313-24 .313-31.531.388-1.99.032-3.98.066-5.969.1l-3.082.02c-6.177.123-10.76.996-16.418 3.492l-3 1v2h-2l-.313 1.938L298 308l-3 1-1 3-1-2c1.188-2.313 1.188-2.313 3-5l1.563-2.563c4.893-4.893 11.352-6.642 18.162-6.891 2.063 0 4.126.022 6.19.063l2.947.013c3.588.02 7.175.076 10.763.128L360 296v-60Z"/><path fill="#4C575F" d="M380.688 364.375c2.756.745 3.832 1.158 5.312 3.625-.24 3.852-.84 5.76-3 9h-2l-2 4c-2.954-1.372-5.44-2.989-8-5 .976-5.25 4.315-10.376 9.688-11.625Z"/><path fill="#DBDCDD" d="M449 200h1c8.629 34.195 8.629 34.195 8 51h-1l-1 16h-1l-.044-2.13c-.639-28.564-.639-28.564-6.503-56.433-.563-3.027-.096-5.447.547-8.437Z"/><path fill="#669BCA" d="m251.81 235.546 3.55-.002c3.858.003 7.716.034 11.574.065 2.68.008 5.36.014 8.04.018 6.326.012 12.651.045 18.976.085 7.204.045 14.409.067 21.613.087 14.813.041 29.625.112 44.437.201l-1 2-1.764-.006c-14.172-.044-28.344-.077-42.516-.098-6.854-.01-13.708-.024-20.561-.047-6.614-.022-13.227-.034-19.841-.039-2.524-.003-5.048-.01-7.571-.021-3.534-.015-7.067-.017-10.601-.016l-3.165-.022c-8.48-.152-8.48-.152-15.606 3.874L236 243h-4c1.171-3.514 2.535-4.473 5.751-6.184 4.55-1.65 9.277-1.333 14.06-1.27Z"/><path fill="#509ECC" d="M321.778 305.773h3.518l3.782.032 3.884.008c3.4.008 6.8.028 10.2.05 3.472.02 6.944.03 10.416.04 6.807.02 13.615.055 20.422.097v2l-3.354.076c-24.424.5-24.424.5-48.833 1.424l-2.29.107c-3.59.194-7.02.577-10.523 1.393l3-1v-2c3.354-2.017 5.894-2.244 9.778-2.227Z"/><path fill="#BDEDF9" d="M276 240h12c.05 4.126.086 8.252.11 12.378.01 1.4.023 2.8.04 4.201.09 7.39.171 14.329-2.15 21.421h-1l1-36h-8c.01.656.02 1.312.032 1.988.041 2.962.067 5.924.093 8.887l.05 3.129.02 2.988.032 2.761C278 264 278 264 276 266v-26Z"/><path fill="#18A8DF" d="m204 216 2 1a442.624 442.624 0 0 1-4.125 2.875l-2.32 1.617c-6.313 3.726-12.075 3.78-19.203 3.703l-2.722-.006c-3.335-.01-6.67-.038-10.005-.064L145 225v56h-1v-57c20.75-.25 20.75-.25 27.222-.298 10.865-.151 20.987-.408 30.46-6.398L204 216Z"/><path fill="#D1F1F6" d="m275.75 406.938 2.113.013c1.713.012 3.425.03 5.137.049-8.414 5.61-19.935 4.309-29.66 4.26-2.598-.01-5.195 0-7.793.013-1.667 0-3.333-.003-5-.007l-2.33.012c-4.454-.039-8.018-.603-12.217-2.278v-1l3.425.016c4.197.018 8.394.03 12.59.039 1.816.005 3.632.012 5.448.02 2.611.013 5.223.018 7.834.023l2.456.015c6.108 0 11.863-1.25 17.997-1.175Z"/><path fill="#4F5B62" d="M318 69c5.568 1.172 10.71 2.922 16 5l-4 4 2 2-2 1v11c-1.737-3.474-2.3-5.076-2.625-8.75l-.227-2.422L327 79l-3.875-.625-2.18-.352L319 78l-2 2-1-4h2l-.563-2.938L317 70l1-1Z"/><path fill="#EFF2F3" d="M418.625 304.313C422 305 422 305 423 306c.292 3.282.299 5.403-1.188 8.375C420 316 420 316 417.563 316.5c-3.416-.667-4.601-1.634-6.562-4.5.063-3.125.063-3.125 1-6 3-2 3-2 6.625-1.688Z"/><path fill="#EEF1F3" d="M81.938 303.75C85 304 85 304 88 306c.552 3.63.426 5.36-1.625 8.438C84 316 84 316 80.875 315.938 78 315 78 315 76 312c.637-7.799.637-7.799 5.938-8.25Z"/><path fill="#535E64" d="M145 423h2v7c2.437-.27 2.437-.27 5-1l2-3 1 3c2.498 1.699 2.498 1.699 5 3l2-7h1a1135.59 1135.59 0 0 1-.438 4.75c-.08.882-.162 1.763-.246 2.672A44.11 44.11 0 0 1 161 439c-6.33-1.347-10.77-4.27-16-8l-3-2h2l1-6Z"/><path fill="#D7D9DB" d="M303 457v1c-24.684 5.186-24.684 5.186-36 5v-1l-24-1v-1l2.883-.044c3.607-.06 7.213-.136 10.82-.218 1.546-.033 3.092-.061 4.639-.084 9.42-.144 18.2-.861 27.379-3.052 4.875-.895 9.425-.44 14.279.398Z"/><path fill="#4A555C" d="m338 133 2.813.563c3.2.678 3.2.678 6.187-.563v2l1.719.758c2.616 1.424 4.576 3.116 6.781 5.117l2.281 2.055A209.797 209.797 0 0 1 364 149l-2 2-1 2-1.8-1.906c-5.327-5.5-10.645-10.13-16.95-14.5C340 135 340 135 338 133Z"/><path fill="#616B72" d="M229.285 409.707c6.204.67 12.48.682 18.715.855l4.371.131c3.543.107 7.086.208 10.629.307v1l-19 1v2c-8.893.485-17.31-1.324-26-3 4.396-2.198 6.31-2.994 11.285-2.293Z"/><path fill="#E4E4E3" d="M51 209c1.625 1 1.625 1 3 3a211.98 211.98 0 0 1-1.404 5.473c-1.202 5.097-1.638 10.33-2.221 15.527l-.406 3.504c-.328 2.831-.65 5.663-.969 8.496h-1l-1 6h-1c-.74-14.337 1.434-28.118 5-42Z"/><path fill="#515B63" d="M378 101a306.48 306.48 0 0 1 4 2.813l2.25 1.582L386 107v3h-2l1 5 4-1-1 5a220.739 220.739 0 0 1-15-12c3-2 3-2 5-3v-3Z"/><path fill="#515D65" d="m194 68-2 1 1 3-3 1 4 2-2.047.184-2.703.254c-.882.08-1.763.162-2.672.246A44.11 44.11 0 0 0 180 77v-2l-5-2c3.136-2.653 6.09-3.81 10-5 3.069-1.534 5.7-.55 9 0Z"/><path fill="#648CB6" d="M224 232c-1.664 5.633-1.664 5.633-3.542 7.687-2.126 3.372-1.937 6.71-1.97 10.579l-.054 2.404a927.56 927.56 0 0 0-.121 7.58 3309.4 3309.4 0 0 1-.104 5.148c-.085 4.2-.152 8.401-.209 12.602h-2c-.05-4.177-.086-8.353-.11-12.53a788.76 788.76 0 0 0-.04-4.245c-.243-20.062-.243-20.062 2.15-27.225 2.162-1.495 3.378-2 6-2Z"/><path fill="#C2E1E7" d="M395 204c4.445 8.516 6.486 17.641 8.313 27l.556 2.789.494 2.649.447 2.37c.201 2.32-.115 3.984-.81 6.192h-2l-.304-1.89c-2.663-16.433-2.663-16.433-7.06-32.465-.651-2.708-.59-4.066.364-6.645Z"/><path fill="#535F66" d="M374 163c1.75.063 1.75.063 4 1 1.009 1.725 2.012 3.454 2.95 5.219 1.979 3.355 4.456 5.261 8.148 6.465 1.953.499 3.927.914 5.902 1.316l1-2 1 3-6 1v-2c-2.445.188-2.445.188-5 1-1.185 1.994-1.185 1.994-2 4l-1.934-2.809-2.503-3.629-1.276-1.853c-1.975-2.99-1.975-2.99-4.287-5.709a99.984 99.984 0 0 1 0-5Z"/><path fill="#505C63" d="M115 377c7.483 6.15 7.483 6.15 10 10h-3l-1 2v-2h-4l-1 3a90.488 90.488 0 0 1-4-4v-2h-2v-3h2v-2l3-2Z"/><path fill="#4F5A62" d="M109 317c3.33 3.647 5.175 8.164 6 13-1.313 2.563-1.313 2.563-3 4l-3-1c-2.84 0-5.237.403-8 1 2.294-2.524 3.765-3.383 7-5l-2-9h2l1-3Z"/><path fill="#30AEDD" d="m195 203 4 1c-1 3-1 3-3.177 4.666-3.257 1.54-5.4 1.697-8.99 1.675l-3.7-.001-3.965-.047a1750.084 1750.084 0 0 1-14.789-.087c-3.646-.03-7.293-.044-10.94-.06-7.146-.032-14.293-.083-21.439-.146v-1l62-1 1-5Z"/><path fill="#FAFBFB" d="M230 461h42v1c-13.618 2.33-28.435 3.286-42 0v-1Z"/><path fill="#BFDAE1" d="M234 107c4.834-.1 9.667-.172 14.502-.22a526.02 526.02 0 0 0 4.91-.082c11.502-.24 21.573.933 32.588 4.302v1c-2.73-.141-5.458-.288-8.188-.438l-2.33-.119c-3.915-.218-7.653-.53-11.482-1.443v-1l-30-1v-1Z"/><path fill="#4F5C62" d="M430 342c1.073 3.22.8 3.902 0 7l1 2-3 3h2l-1 5h-3v-3l-1.375 1.938C423 360 423 360 421 361v3h-2l-1 2c.573-3.845 1.675-6.477 3.75-9.75 2.905-4.673 5.614-9.422 8.25-14.25Z"/><path fill="#2D9ED4" d="M231 245c1.48 2.958 1.122 5.955 1.098 9.195l-.005 2.144a2158.7 2158.7 0 0 1-.03 6.786c-.006 1.533-.01 3.065-.014 4.598-.01 3.759-.03 7.518-.049 11.277h-14v-1l10-1 .06-2.722c.078-3.329.165-6.657.257-9.986.039-1.44.074-2.882.105-4.324.045-2.07.103-4.14.164-6.21l.095-3.777C229 247 229 247 231 245Z"/><path fill="#1CA1DE" d="m308 311 1 3a90.488 90.488 0 0 1-4 4h-2v60h-1c-.093-7.867-.164-15.734-.207-23.601-.021-3.654-.05-7.307-.095-10.96a1124.6 1124.6 0 0 1-.078-10.582 582.32 582.32 0 0 0-.073-5.99l-.001-3.7-.027-3.25c.6-3.634 1.952-5.291 4.481-7.917l2-1Z"/><path fill="#515C64" d="m399 332 2 4 1.875-.625L405 335l2 2-5 8c-2.938-.813-2.938-.813-6-2-1-3-1-3-.223-5.043l1.16-2.144 1.153-2.168L399 332Z"/><path fill="#4B5760" d="m205 107 3 1 1 5c-8.272 3.138-14.446 4.858-23 2v-1l1.723-.113c6.11-.52 11.438-1.414 16.214-5.575L205 107Z"/><path fill="#697277" d="M78 261v10c-4.389-.665-7.981-2.188-12-4v-2c1.623-.67 3.249-1.337 4.875-2l2.742-1.125C76 261 76 261 78 261Z"/><path fill="#1EA1DD" d="M311 293h48v1l-1.668.018c-5.743.064-11.486.148-17.228.244-2.142.034-4.284.062-6.425.084-3.084.034-6.166.086-9.25.142l-2.888.02c-5.36.117-8.786.805-13.541 3.492h-4v-3h7v-2Z"/><path fill="#D3E9EA" d="M99 242h1l1 34h-2c-1.083-3.25-1.13-5.64-1.133-9.059l-.004-3.607.012-3.772-.012-3.76.004-3.61.004-3.307c.11-2.476.41-4.526 1.129-6.885Z"/><path fill="#57646A" d="M393 319c1 3 1 3 0 6h2c-1.413 4.827-3.43 8.716-6 13l-3-2-2 1c1.544-4.14 3.51-7.936 5.625-11.813l.984-1.81c.795-1.46 1.593-2.919 2.391-4.377Z"/><path fill="#556066" d="M159 399c-.857 8.571-.857 8.571-3 12l-7-4v-3c1.68-1.387 1.68-1.387 3.875-2.688.72-.436 1.439-.873 2.18-1.324C157 399 157 399 159 399Z"/><path fill="#27ADE1" d="M187 124v2l-2.375.25L182 127l-.89 1.922c-1.436 2.688-2.669 3.03-5.485 4.078-2.954 1.192-4.528 1.903-6.813 4.188-2.425 2.425-4.47 2.508-7.812 2.812 3.792-4.128 7.723-6.894 12.563-9.688l1.998-1.181C184.287 124 184.287 124 187 124Z"/><path fill="#435158" d="m288 409-1 3 6-2v4l-3.375.313L286 415l-2 3v-5h-7l1-3c3.653-1.623 6.194-2.464 10-1Z"/><path fill="#586269" d="M119 336c3.991 4.605 6.945 9.755 10 15l-2 1c-1.5-1.375-1.5-1.375-3-3v-2h-2v4l-2-1a108.817 108.817 0 0 1-1-7l-6 1v-2l2.438-.75c2.733-.972 2.733-.972 3.374-3.375L119 336Z"/><path fill="#E4E5E6" d="m78 147 4 2a1614.84 1614.84 0 0 1-3.813 6.313c-.356.594-.712 1.19-1.08 1.802-3.58 5.879-3.58 5.879-6.107 7.885h-2c1.31-4.234 2.944-8.074 5-12h2l2-6Z"/><path fill="#C7E9F2" d="M402 272h1c1.84 10.385-.25 19.04-3 29-2.466-3.699-2.02-4.615-1.25-8.875l.602-3.473L400 285c.381-2.437.756-4.874 1.125-7.313L402 272Z"/><path fill="#3CB1DE" d="M220 405h14v2l30 1v1c-31.171.464-31.171.464-42-2l-2-2Z"/><path fill="#515B61" d="M346 398c4.435 1.394 6.874 3.606 10 7-2.813 2.063-2.813 2.063-6 4l-3-1-1-10Z"/><path fill="#E61E24" d="M245 226c-1.313 2-1.313 2-3 4h-3l-1 5h7v1l-10 3v-7h2l.375-2.938L238 226c2.667-1.333 4.167-.671 7 0Z"/><path fill="#FAFCFD" d="M279 58c-13.37.138-26.651-.256-40-1v-1c4.002-.169 8.003-.33 12.006-.482 1.358-.053 2.717-.109 4.076-.166 1.963-.083 3.927-.157 5.89-.23l3.571-.144c5.165.033 9.958.323 14.457 3.022Z"/><path fill="#F5F5F5" d="M456 242h1c.857 5.894 1.11 11.679 1.125 17.625l.014 2.17c-.013 4.476-.244 8.8-1.139 13.205l-2 1 1-34Z"/><path fill="#A3E2F3" d="M103 226h1c-1 8-1 8-1.5 11.406-.771 6.17-.863 12.385-1.063 18.594l-.13 3.793c-.106 3.069-.208 6.138-.307 9.207h-1c-.169-4.305-.329-8.61-.482-12.915-.053-1.463-.109-2.925-.166-4.388-.083-2.11-.158-4.22-.23-6.33l-.144-3.84c.053-8.558.053-8.558 3.022-11.527.643-2.069.643-2.069 1-4Z"/><path fill="#556167" d="M358 124c1.938.625 1.938.625 4 2 1.027 3.634 1.24 6.419 0 10-2.954-1.372-5.44-2.989-8-5a56.54 56.54 0 0 1 4-7Z"/><path fill="#C2EAF4" d="M370 352c.667 1.784.667 1.784 1 4-1.048 1.74-1.048 1.74-2.676 3.453l-1.76 1.875-1.877 1.922-1.841 1.969c-3.314 3.478-3.314 3.478-4.846 4.781h-2c.563-3.729 2.033-5.331 4.75-7.875 3.35-3.218 6.35-6.5 9.25-10.125Z"/><path fill="#4C5860" d="M96 159c7.625.875 7.625.875 11 2-1.204 3.426-2.359 5.533-5 8a617.075 617.075 0 0 1-3-3.875l-1.688-2.18C96 161 96 161 96 159Z"/><path fill="#4B575F" d="m108 118 4 2c-.998 2.993-1.752 3.948-4 6l4 1h-5l-1-2-6 2c.385-2.54.701-3.728 2.629-5.484l1.933-1.266 1.942-1.297L108 118Z"/><path fill="#425058" d="M352 375c3.716-.2 4.772-.152 8 2v2l2 2c-4.122 1.63-6.707 2.263-11 1l1-7Z"/><path fill="#29AADE" d="M398 291h1c-.823 12.352-5.659 22.962-11 34h-1v-5h2l.332-1.723c.895-4.36 1.986-8.186 3.875-12.242 1.455-3.734 2.245-7.66 3.145-11.558C397 292 397 292 398 291Z"/><path fill="#5E656E" d="M136.953 360.71c2.26 1.424 3.946 2.993 5.797 4.915l1.86 1.914L146 369l-4 2c-2-1.375-2-1.375-4-3v-2l-3-1c-1.688-2.063-1.688-2.063-3-4 3-1 3-1 4.953-.29Z"/><path fill="#E0E0E1" d="M235 58v1l-2.71.184c-5.565.385-11.12.772-16.665 1.379-4.234.448-8.37.516-12.625.437 9.174-6.116 21.573-3.849 32-3Z"/><path fill="#E4E6E6" d="M171 446c7.309.653 13.53 2.496 20 6v1c-7.321.851-13.35-2.2-20-5v-2Z"/><path fill="#E8E9E9" d="m442 184 3 1a68.968 68.968 0 0 1 2.813 7.313l.732 2.052c1.666 5.028 1.666 5.028.592 8.115L448 204c-3.442-6.228-6-12.847-6-20Z"/><path fill="#26ABDB" d="M119 331h2v2h2l1.242 2.371 1.633 3.067 1.617 3.058c1.265 2.605 1.265 2.605 3.508 3.504l1 3c1.401 1.429 1.401 1.429 3.063 2.688L138 353l-1 4c-18-20.471-18-20.471-18-26Z"/><path fill="#BEEAF5" d="M291.25 111.688c4.6.951 8.618 2.066 12.75 4.312l1 3-22-6c3.557-2.371 4.216-2.107 8.25-1.313Z"/><path fill="#1CAEE0" d="M340 138c3.707 1.62 6.573 3.939 9.688 6.5l2.949 2.406C355 149 355 149 356 151l-5-1v-2l-5-1v-3l-7-1 1-5Z"/><path fill="#23AADF" d="M108 303c1.087 2.163 2.16 4.33 3.219 6.508l1.281 2.617 1.281 2.633c1.143 2.355 1.143 2.355 3.219 4.242.387 2.325.718 4.66 1 7 .309 1.34.63 2.677 1 4-4.237-3.707-5.853-8.921-8-14l-.988-2.324c-1.474-3.667-2.384-6.712-2.012-10.676Z"/><path fill="#D1D4D6" d="M275 56c1.917.115 3.834.242 5.75.375 1.067.07 2.135.14 3.234.21 2.818.388 4.599.972 7.016 2.415l-1 2-24-2v-1l9-1v-1Z"/><path fill="#525A63" d="m235 411-1 3a600.893 600.893 0 0 1-5.75-.375c-1.067-.07-2.135-.14-3.234-.21-2.818-.388-4.599-.972-7.016-2.415 5.903-2.872 10.891-1.413 17 0Z"/><path fill="#535F66" d="m103 387 6 5-3 1 1 2c-.438 2.125-.438 2.125-1 4h-2c-1.29-1.531-1.29-1.531-2.625-3.5l-1.352-1.969L99 392l4-1-1-2 1-2Z"/><path fill="#22A9DC" d="M288 240h1c.05 4.911.086 9.822.11 14.734.01 1.67.024 3.34.04 5.01.025 2.404.036 4.806.045 7.21l.032 2.257c0 3.758-.123 6.6-2.227 9.789l-2-1 .96-3.031c1.673-6.689 1.51-13.614 1.665-20.469l.117-4.227c.094-3.424.18-6.848.258-10.273Z"/><path fill="#555F66" d="M275 81c2.523 1.974 2.993 2.967 3.688 6.188L279 90h-3l1 5h-2v-3h-2c.14-1.646.287-3.292.438-4.938.08-.916.162-1.833.246-2.777C274 82 274 82 275 81Z"/><path fill="#E8E9EA" d="M315 452c-2.597 2.875-4.186 4.337-8 5a84.748 84.748 0 0 1-4.75.063l-2.422-.028L298 457c4.118-4.786 10.936-5.391 17-5Z"/><path fill="#5D676D" d="m287 104 2 2c2.323.4 4.657.74 7 1l1-3v4h-3v4l-10-1c1-2 1-2 3-3v-4Z"/><path fill="#D6D7D8" d="m216 459 27 1v1l-8 1v1c-6.55-.458-12.675-1.21-19-3v-1Z"/><path fill="#D0D2D3" d="M455 236c3.154 4.205 3.362 4.85 3.188 9.75l-.083 2.984L458 251h-1l-1 16h-1v-31Z"/><path fill="#1EAFE6" d="M126 175c1.443 2.887.634 4.895 0 8l-1 3-3 1a396.178 396.178 0 0 0-3 5h-2c1.31-4.462 3.07-7.996 5.625-11.875l1.914-2.93L126 175Z"/><path fill="#30B0DF" d="m283 281 1 2c-.938 2.125-.938 2.125-2 4h-2l-1 4-7 2v2h-8c3-2 3-2 6.375-3.375 3.42-1.533 5.765-3.256 8.625-5.625h2l2-5Z"/><path fill="#DEDEDE" d="M51 209c1.547 1.273 1.547 1.273 3 3-.75 3.625-.75 3.625-1.383 5.727-1.004 3.697-1.282 7.466-1.617 11.273-1.512-1.309-1.512-1.309-3-3 .152-2.489.474-4.584 1-7l.523-2.68c.478-2.443.972-4.882 1.477-7.32Z"/><path fill="#556168" d="M154 134c2 1 2 1 3 2l3 1-3 1-1 3c-2.375 2.25-2.375 2.25-5 4l-3-1v-2h2l2-3-2-2h3l1-3Z"/><path fill="#425156" d="M384 348c.688 1.813.688 1.813 1 4-1.438 1.75-1.438 1.75-3 3l-1-3-4 1v2h-3l1-5 6.152-.684c1.86-.135 1.86-.135 2.848-1.316Z"/><path fill="#E7E8E9" d="M453 222c1.457 1.05 1.457 1.05 3 3 .512 3.355.512 3.355.688 7.188l.199 3.855L457 239l-3 1c-.896-6.048-1.113-11.89-1-18Z"/><path fill="#4D565D" d="m342 382 2 2 2-2-1 5-1.813.375c-3.058.874-4.812 1.954-6.375 4.75L336 394l-1-7 7-5Z"/><path fill="#E6E6E5" d="m431 356 2 3h-2l-.25 2.188c-.907 3.401-2.35 5.267-4.75 7.812h-2c.34-5.442 3.703-8.937 7-13Z"/><path fill="#B6495F" d="M243 225c-2.906 1.257-4.796 2-8 2v2l-7 2-1 4-4-1c4.399-6.028 12.073-12.17 20-9Z"/><path fill="#565D67" d="m356 142 8 6-2 3-1 2-7-7 2-1v-3Z"/><path fill="#5C696D" d="M162 383c5.001 2.658 9.705 5.259 14 9l-3 1v-2c-3.05-1.011-3.05-1.011-6 0a100.644 100.644 0 0 1-6-3l2-2-1-3Z"/><path fill="#5F6B73" d="M130 144h1v10l3-1-1 5-3 1c-1.699 2.498-1.699 2.498-3 5l-2-1 1.563-2.375L128 158l-1-2h3l-.563-1.5c-.638-3.65.014-6.84.563-10.5Z"/><path fill="#505C62" d="M91 137c1 3 1 3-.25 5.688L89 145h-3l-1 3h-2c.507-4.397 3.12-6.838 6-10l2-1Z"/><path fill="#E8E9EA" d="M446 319h2c.407 5.42-.96 9.07-3 14h-2c.412-4.97.796-9.445 3-14Z"/><path fill="#D2F5FC" d="M353 146c3.903 1.587 6.335 4.134 9.25 7.125l2.703 2.758L367 158l-2 2a1491.833 1491.833 0 0 1-6-5.875l-1.734-1.684c-1.46-1.442-2.867-2.938-4.266-4.441v-2Z"/><path fill="#747F86" d="m284 409-2.938.875c-3.169.767-3.169.767-4.062 3.125h7l-1 4v-3h-8v-2l-5-1c4.468-2.578 9.022-3.723 14-2Z"/><path fill="#28ADDF" d="m200 399 2.5.438c1.816.291 3.637.575 5.469.746 4.606.434 7.947 1.468 12.031 3.816-3.67 1.306-6.275.7-10-.25l-3.125-.766c-2.819-.965-4.627-2.06-6.875-3.984Z"/><path fill="#545F65" d="M436 174c2.228 2.228 2.692 3.658 3.625 6.625.26.817.52 1.635.79 2.477L441 185l-3-1-1 2-1-1-2 2v-5h2l1-5-3-1h2v-2Z"/><path fill="#586268" d="M390.203 380.969c2.29.259 4.535.595 6.797 1.031v1h-6l-1 4-5 1c0-3 0-3 .938-5.25C388 381 388 381 390.202 380.969Z"/><path fill="#55656A" d="M373.813 356.188 377 357c-2.615 2.12-5.196 4.13-8 6l-4-2c4.062-5.046 4.062-5.046 8.813-4.813Z"/><path fill="#4D5B60" d="M127 354c2.25-.375 2.25-.375 5 0 2.313 3 2.313 3 4 6-1.688.813-1.688.813-4 1-2.75-2.313-2.75-2.313-5-5v-2Z"/><path fill="#566066" d="M75 263v5c-2.788 1.033-3.868 1.045-6.75.063L66 267v-2c3.135-1.858 5.375-2.201 9-2Z"/><path fill="#C9EFF6" d="M366 159c3.392 1.416 5.097 3.042 7.25 6l1.578 2.125C376 169 376 169 376 171l-3-1v-2h-2c-1.508-1.75-1.508-1.75-3.125-4l-1.633-2.25L365 160l1-1Z"/><path fill="#26ACDD" d="m361 156 5 5 2.813 2.688C371 166 371 166 371 168h2l1 4-2-1v-2h-3c-1.976-2.845-3.499-5.883-5-9l-3 1-1-2 1-3Z"/><path fill="#25AEE1" d="M159 140v3l-3 1 1 6c-1.361-.03-1.361-.03-2.75-.063-2.677.052-4.72.285-7.25 1.063 3.804-3.92 7.816-7.491 12-11Z"/><path fill="#535E65" d="m368 113 5 2-2 1v2l2 1c-2.763.597-5.16 1-8 1 .613-2.962 1.254-4.38 3-7Z"/><path fill="#449ACE" d="M224 232c-1.168 3.954-2.434 6.792-5 10a158.348 158.348 0 0 0-2 4c.06-1.96.149-3.918.25-5.875l.14-3.305c.61-2.82.61-2.82 2.532-4.203C222 232 222 232 224 232Z"/><path fill="#5C666E" d="M296 62c1.44.284 2.876.577 4.313.875l2.425.492C305 64 305 64 308 66l-2.438.875c-2.695.858-2.695.858-3.562 3.125h-6l2-1.875c2.228-1.881 2.228-1.881 2-4.125l-4-1v-1Z"/><path fill="#B7E8F3" d="m214 404 3.375.938c4.83 1.22 9.668 1.676 14.625 2.062v1c-6.856 1.003-11.662 1.17-18-2v-2Z"/><path fill="#536068" d="M306 112c3.438.813 3.438.813 7 2l1 3c-4.69 1.117-7.538.806-12-1l4-1v-3Z"/><path fill="#445059" d="M231.688 73.313 235 74l-2 4c-2.875.125-2.875.125-6 0l-2-2c2.107-3.099 2.82-3.015 6.688-2.688Z"/><path fill="#556066" d="M189 399c5.75.75 5.75.75 8 3l-3 1-1 3-1-2c-2.527-.656-2.527-.656-5-1l2-4Z"/><path fill="#B6DEE4" d="M400 230c4.5 4.5 4.5 4.5 4.75 9.75l.172 2.984L405 245h-3l-2-15Z"/><path fill="#29ACE2" d="M109 207h1a611.71 611.71 0 0 1-.375 5.688c-.07 1.055-.14 2.111-.21 3.199-.403 3.02-1.156 5.354-2.415 8.113h-2c.643-5.913 2.19-11.342 4-17Z"/><path fill="#20ACE2" d="M116 192h1v5h-2l.188 2.125c-.23 3.528-1.48 5.815-3.188 8.875l-2-1c1.64-5.233 3.39-10.152 6-15Z"/><path fill="#31B0E1" d="M138 159c.688 1.813.688 1.813 1 4-1.313 1.75-1.313 1.75-3 3h-2c-1.206 2.332-2.165 4.496-3 7-2.063.688-2.063.688-4 1 3.406-5.266 6.877-10.27 11-15Z"/><path fill="#DCDBDC" d="m99 121 2 3-2 3-1.813.313C93.665 128.42 92.213 131.11 90 134c0-4.316 2.133-5.928 5-9h2l2-4Z"/><path fill="#525D63" d="m347 121 3 1-1.277 1.46-1.66 1.915-1.653 1.898c-1.48 1.683-1.48 1.683-2.41 3.727l3 1-4 1v-6h2l.375-2.438L345 122l2-1Z"/><path fill="#405058" d="M393 396h4l-1 4-4-2 1-2Zm-2 3 1 2 3 1h-3v2l-5-1 2-1v-2l2-1Z"/><path fill="#5F6770" d="m356 370 3 2 3 1-2 4-8-2 4-5Z"/><path fill="#5D676C" d="M145 87c0 3 0 3-1.61 4.64l-2.14 1.61-2.11 1.64C137 96 137 96 134.735 95.673L133 95c1.624-1.147 3.25-2.293 4.875-3.438l2.742-1.933C143 88 143 88 145 87Z"/><path fill="#EAEAEA" d="M302 62c4.824-.193 8.496.243 13 2l-1 2-9-1v-2l-3-1Z"/><path fill="#525F64" d="m174 439 11 3c-4 1-4 1-7 0v2h-2l-1 2-4-2h4l-1-5Z"/><path fill="#576168" d="M93 347c2 1.813 2 1.813 4 4v3c-2.5 1.688-2.5 1.688-5 3-.125-7.75-.125-7.75 1-10Z"/><path fill="#C2E6EE" d="M391 317h3c-1.225 4.053-2.699 7.444-5 11l-2-1c1.11-3.487 2.263-6.775 4-10Z"/><path fill="#D4D4D5" d="M457 268h1c.105 5.786-.007 11.293-1 17l-3-1v-8l2-1c.407-2.322.744-4.657 1-7Z"/><path fill="#13ABE6" d="M380 181c2.799 2.528 4.458 4.204 5 8l-7-2 2-6Z"/><path fill="#E6E7E9" d="M95 127h2c-2.05 4.844-5.04 9.042-9.813 11.375L85 139c1.561-4.215 4.587-6.227 8-9l2-3Z"/><path fill="#C2E4EB" d="M209 115c-1.323.686-2.66 1.348-4 2l-2.438 1.188c-2.952.936-4.62.653-7.562-.188 4.148-4.148 8.507-4.308 14-3Z"/><path fill="#29AEE1" d="M149 369c2.169.506 4 1 6 2v2h5l1 6c-8.446-6.15-8.446-6.15-12-10Z"/><path fill="#C3E2E8" d="M364 362c-1.44 3.362-3.248 5.592-6 8h-2c.677-4.742 3.047-8 8-8Z"/><path fill="#4F5A61" d="M55 270c3.912 1.156 6.875 2.355 10 5h-5l-1 2-3-1-1-6Z"/><path fill="#DEDDDD" d="M395 112a271.11 271.11 0 0 1 3.5 2.813l1.969 1.582C402 118 402 118 402 121c-3.653-1.25-4.78-1.671-7-5v-4Z"/><path fill="#5A656C" d="m378 101 6 4-8 4-3-3 5-2v-3Z"/><path fill="#C9CBCF" d="M211 457c8.571-.286 8.571-.286 12 2-3.353 2.236-3.907 2.173-7.688 1.625l-2.449-.336L211 460v-3Z"/><path fill="#EAECEC" d="M390 409v3c-1.531 1.387-1.531 1.387-3.5 2.688l-1.969 1.324L383 417v-4c4.222-4 4.222-4 7-4Z"/><path fill="#EEF0F0" d="M55 317c2.034 1.415 2.904 2.55 3.422 4.98.24 2.002.413 4.011.578 6.02-3.88-2.586-4.045-4.545-5-9l1-2Z"/><path fill="#B7E5F1" d="M104 294c2.4 3.6 4.322 6.961 3.625 11.375L107 307v-3h-3c-1.125-6.625-1.125-6.625 0-10Z"/><path fill="#319FD5" d="m234 223 4 1c-2.658 2.658-5.543 3.57-9 5-1.34.653-2.677 1.312-4 2l-1-4h6v-2h4v-2Z"/><path fill="#DCDFDE" d="M73 156c1.188 1.688 1.188 1.688 2 4-1.188 2.75-1.188 2.75-3 5h-3c1.059-3.403 2.009-6.014 4-9Z"/><path fill="#DCDDDE" d="m415 134 1.813 2.313c1.657 2.035 3.29 3.885 5.187 5.687l-1 2c-5.759-3.308-5.759-3.308-6.938-6.688L414 135l1-1Z"/><path fill="#EBECEC" d="M158 78c-1 3-1 3-3.938 4.688C151 84 151 84 149 84v-3c3.333-2.5 4.733-3 9-3Z"/><path fill="#D8DBDD" d="m217 57 18 1v1l-17 1-1-3Z"/><path fill="#CAEAF0" d="M148 370c4.435 1.394 6.874 3.606 10 7l-3 1c-1.824-1.145-1.824-1.145-3.688-2.813l-1.886-1.644C148 372 148 372 148 370Z"/><path fill="#24ADD9" d="m385 326 2 1a1735.407 1735.407 0 0 1-3.438 6l-1.933 3.375L380 339h-1v-6l3-1c1.709-3 1.709-3 3-6Z"/><path fill="#556067" d="m417 288 2.25 1.438c2.36 1.34 4.116 2.074 6.75 2.562v2l-5 2-1-4h-2l-1-4Z"/><path fill="#6D86AE" d="M242.438 236.25 244 237l-5.371 2.93c-1.795.984-1.795.984-2.629 3.07h-4c1.282-3.846 2.786-4.42 6.21-6.281 1.79-.719 1.79-.719 4.227-.469Z"/><path fill="#CEF2F7" d="M125 173h2c-1.45 4.11-3.511 7.433-6 11-.645-1.766-.645-1.766-1-4 .926-1.922.926-1.922 2.313-3.75l1.363-1.86L125 173Z"/><path fill="#30B0DA" d="M138 357c2 0 2 0 4.625 2.375C145 362 145 362 145 364l3 1c.688 2.063.688 2.063 1 4-4.123-3.37-7.88-6.633-11-11v-1Z"/><path fill="#556069" d="M137.125 360.688C139 362 139 362 139.75 364.125L140 366c-3.242-.35-4.615-.562-6.813-3.063L132 361c3-1 3-1 5.125-.313Z"/><path fill="#1AB0E2" d="M213 207c.826 2.892 1 4.887 1 8h-3l-2-2 4-6Z"/><path fill="#1AAAE0" d="m195 203 4 1c-1 3-1 3-4 5-2.332.08-4.668.088-7 0v-1h6l1-5Z"/><path fill="#2DAFE4" d="M146 151c.75 1.75.75 1.75 1 4-1.688 2.313-1.688 2.313-4 4-2.25-.25-2.25-.25-4-1l3-1c1.092-1.933 1.092-1.933 2-4l2-2Z"/><path fill="#D0F0F5" d="M183 124v2l-10 5c1-4 1-4 3.875-5.75C180 124 180 124 183 124Z"/><path fill="#68757A" d="m199 112 1 4c-3.404 1.137-5.775.84-9.25.063l-2.703-.59L186 115v-1c.94-.09.94-.09 1.898-.184l2.477-.254c.812-.08 1.624-.162 2.46-.246 2.312-.337 3.83-1.316 6.165-1.316Z"/><path fill="#E3E4E7" d="M203 456h8v2l3 1-3.813.063-2.144.035C206 459 206 459 203 458v-2Z"/><path fill="#DADADD" d="M376 422c-2.363 2.526-3.665 3.888-7 5l-2-2c2.61-3.48 4.831-3.278 9-3Z"/><path fill="#D6D7DA" d="M69 348c3.2 4.8 3.2 4.8 4 7-.875 2.25-.875 2.25-2 4-2.995-4.58-2.995-4.58-4-7 .75-2.438.75-2.438 2-4Z"/><path fill="#EDEFEE" d="M118 343c1.563 1.75 1.563 1.75 3 4-.125 2.188-.125 2.188-1 4l-3 1c-1.6-3.2-.032-5.723 1-9Z"/><path fill="#26A7DE" d="M228 297v3h-10v-2c3.435-.625 6.49-1 10-1Z"/><path fill="#D42730" d="m237 232 1 3h7v1l-10 3c0-5 0-5 2-7Z"/><path fill="#DEE0E1" d="M431 159c2.455 2.135 3.681 3.707 4 7l-2 2-4-8 2-1Z"/><path fill="#5C686E" d="m138 144 .313 1.938L139 148l3 1-1 3-7 1 2-3h2v-6Z"/><path fill="#4D5A62" d="m359 129 4 2-1 5c-3.875-1.75-3.875-1.75-5-4l2-3Z"/><path fill="#CEF0F7" d="M304 116c3.487 1.11 6.775 2.263 10 4v2a259.725 259.725 0 0 1-4.438-1.313l-2.496-.738L305 119l-1-3Z"/><path fill="#52616C" d="M319 117v5l-9-3v-1c5.625-2.125 5.625-2.125 9-1Z"/><path fill="#E1E0E1" d="M116 104c0 4.055-1.549 5.848-4 9h-3l-1-2 8-7Z"/><path fill="#E5E5E7" d="M166 75v2l-8 3-1-3c3.135-1.858 5.375-2.201 9-2Z"/><path fill="#405059" d="M322 442h3l-1 2a139.595 139.595 0 0 0-1 4h-8c1.39-2.78 3.187-2.875 6-4l1-2Z"/><path fill="#E2E5E5" d="M409 386h3c-.398 2.886-.79 3.822-3.063 5.75L407 393l-2-2c1.813-2.5 1.813-2.5 4-5Z"/><path fill="#1DACDE" d="m350 369 4 1-8 6-1-5h5v-2Z"/><path fill="#15A8E2" d="m359 360 3 1-6 7-1-3h2l-1-3 3-2Z"/><path fill="#24ABDC" d="M401 273h1c.207 5.789-.408 10.43-2 16h-1c-.236-5.778.132-10.513 2-16Z"/><path fill="#D9F8FB" d="m399 221 2 1c.633 2.504.633 2.504 1.125 5.563l.508 3.066L403 233c-2.042-1.692-2.918-2.637-3.512-5.262l-.175-2.425-.2-2.45L399 221Z"/><path fill="#5B6670" d="M104 200c2 3 2 3 2 5l.625 1.875c.474 2.689-.236 3.837-1.625 6.125l-.375-3.438L104 206l-2-1 2-5Z"/><path fill="#DDDEDE" d="M440 176c1.991 2.986 2.941 5.597 4 9l-3 2a441.573 441.573 0 0 1-1.063-4.375l-.597-2.46C439 178 439 178 440 176Z"/><path fill="#424F57" d="M137 152v6l-3 1-2 2 .563-1.875c.674-2.167.674-2.167-.563-4.125h2v-2l3-1Z"/><path fill="#D7F3F6" d="m213.688 111.813 2.449.082L218 112c-3.035 2.024-4.194 2.321-7.688 2.625l-2.449.227L206 115c2.419-2.983 3.898-3.352 7.688-3.188Z"/><path fill="#525E64" d="M321 93c2 2 2 2 2.25 5-.25 3-.25 3-2.25 5-1.491-2.982-1.12-5.716-1-9l1-1Z"/><path fill="#5A646A" d="m87 367 3 2-3 2c-.73 2.563-.73 2.563-1 5l-4-5 1.938-.875c2.214-.953 2.214-.953 3.062-3.125Z"/><path fill="#DDDEDE" d="M50 289h1c.197 1.728.382 3.458.563 5.188l.316 2.917c.119 2.837-.201 5.15-.879 7.895h-1c-.826-5.606-1.068-10.423 0-16Z"/><path fill="#565E65" d="m429 192 1 4c-3.375.125-3.375.125-7 0l-2-2c3.088-1.765 4.233-2 8-2Z"/><path fill="#DCDEDE" d="M59 184c1.532 4.084.63 7.795 0 12l-3-1c.551-3.95 1.39-7.35 3-11Z"/><path fill="#2FADDD" d="M198.375 119.313 200 120l-4 1v2l-9 1c7.747-5.165 7.747-5.165 11.375-4.688Z"/><path fill="#455259" d="M206 111c-1.188 2-1.188 2-3 4-2.688.25-2.688.25-5 0 1-3 1-3 3.438-4.25C204 110 204 110 206 111Z"/><path fill="#555A62" d="m306 402 1 3-7 3 1-5c3-1 3-1 5-1Z"/><path fill="#414F56" d="M106 192h4l1 6-5-1v-5Z"/><path fill="#E9EBEC" d="m333 73 8 1 1 3c-5.538-.615-5.538-.615-7.875-2.563L333 73Z"/><path fill="#D9D8DA" d="M169 71c2 1 2 1 3 3-5.415 2.215-5.415 2.215-8.375 1.125L162 74a135.916 135.916 0 0 1 7-3Z"/><path fill="#F7F9FA" d="M216 459c1.604-.054 3.208-.093 4.813-.125l2.707-.07C226 459 226 459 229 461c-4.845 1.514-8.26.366-13-1v-1Z"/><path fill="#576167" d="m127 418 8 1v3c-4 0-4 0-6.25-2l-1.75-2Z"/><path fill="#434F56" d="m106 392 3 1c.688 2.063.688 2.063 1 4h-2v2l-3-1c0-4 0-4 1-6Z"/><path fill="#59646B" d="M422 355c.553 2.076 1 3.844 1 6h-2v3h-2l-1 2c.607-4.128 2.038-7.332 4-11Z"/><path fill="#535D64" d="M393 319c1 3 1 3 0 6h2l-1 3-4-2 3-7Z"/><path fill="#D8F6FB" d="M398 298h1c-.114 1.46-.242 2.917-.375 4.375-.07.812-.14 1.624-.21 2.46C398 307 398 307 396 309c-.286-7.429-.286-7.429 2-11Z"/><path fill="#566067" d="m54 259 5 1-3 2c-.577 1.964-.577 1.964-.688 4.125L55 270h-1a490.71 490.71 0 0 1-.563-4.375l-.316-2.46C53 261 53 261 54 259Z"/><path fill="#F3F4F6" d="M446 195c2.063 1.688 2.063 1.688 4 4-.25 2.75-.25 2.75-1 5l-2-1c-.594-2.649-.742-5.292-1-8Z"/><path fill="#5E6A74" d="m361 146 3 3-2 2-1 2c-1.5-1.313-1.5-1.313-3-3v-3l3-1Z"/><path fill="#E8EAEB" d="M357 83c2.625.938 2.625.938 5 2v3c-2.375-.313-2.375-.313-5-1l-2-3 2-1Z"/><path fill="#D8DADC" d="m149 82 1 3-6 3v-2l-2-1c4.75-3 4.75-3 7-3Z"/><path fill="#DBDDDE" d="M167 443c1.945.242 1.945.242 4.125.875l2.195.617L175 445c-1.625 1.125-1.625 1.125-4 2-3.25-.875-3.25-.875-6-2l2-2Z"/><path fill="#44535B" d="M362 367v5l-4 1-1-3c2.75-3 2.75-3 5-3Z"/><path fill="#525C5F" d="m101 334 1 3c-1.438 2.188-1.438 2.188-3 4-2-3-2-3-2-6 2-1 2-1 4-1Z"/><path fill="#5094C3" d="M304 295h9c-3.188 2.125-5.265 2.502-9 3v-3Z"/><path fill="#E2E2E2" d="M449 200h1c.222 1.623.427 3.249.625 4.875l.352 2.742L451 210l-2 2c-1.286-8.571-1.286-8.571 0-12Z"/><path fill="#F0F3F4" d="M62 180c.688 1.625.688 1.625 1 4-1.438 3.25-1.438 3.25-3 6-1.61-3.218-.075-5.716 1-9l1-1Z"/><path fill="#1AAAE2" d="M166 135c2.313.188 2.313.188 4 1-1.974 2.523-2.967 2.993-6.188 3.688L161 140c2.25-2.563 2.25-2.563 5-5Z"/><path fill="#53606A" d="m338 133 2.813.563c3.2.678 3.2.678 6.187-.563l-1 4c-3.908 0-5.116-1.506-8-4Z"/><path fill="#EAEBEC" d="m390 109 5 2v4l-3-1v-2h-2v-3Z"/><path fill="#F1F2F3" d="M183 450c2.343.256 4.678.593 7 1l1 2h-7l-1-3Z"/><path fill="#E0E7EA" d="m343 426 5 3c-1.375 1.5-1.375 1.5-3 3h-2v-6Z"/><path fill="#ECEDEE" d="M134 425c2.938.813 2.938.813 6 2l1 3c-2.375-.25-2.375-.25-5-1-1.313-2.063-1.313-2.063-2-4Z"/><path fill="#B9E6EF" d="M310.438 398.875 312 400c-6.4 2.215-6.4 2.215-9.438 1.125L301 400c6.4-2.215 6.4-2.215 9.438-1.125Z"/><path fill="#626B6F" d="m337 385 1 2 3 1-3 2c-1.192 2.05-1.192 2.05-2 4-.625-3.375-.625-3.375-1-7l2-2Z"/><path fill="#23ADDF" d="M371 346h3c-1.25 3.653-1.671 4.78-5 7v-4h2v-3Z"/><path fill="#D02A39" d="M296 305h3l-2 4h-2l-1 3-1-2c1.25-2.625 1.25-2.625 3-5Z"/><path fill="#D82531" d="m230 237 5 2-5 5v-4l-2-1h2v-2Z"/><path fill="#2DB3E4" d="M395 213c2.762 2.762 2.579 5.207 3 9l-3-1v-8Z"/><path fill="#BDE3EB" d="M111 196c1.125 1.688 1.125 1.688 2 4-.875 2.75-.875 2.75-2 5-1.125-1.688-1.125-1.688-2-4 .875-2.75.875-2.75 2-5Z"/><path fill="#596368" d="m96 159 8 1-1.938.313L100 161l-1 3c-1.5-1.375-1.5-1.375-3-3v-2Z"/><path fill="#0DAAE2" d="M311 124c1.48.114 2.96.241 4.438.375.823.07 1.647.14 2.496.21L320 125l1 2-3.875.188-2.18.105L313 127l-2-3Z"/><path fill="#505964" d="m187 117 1 2 2 1-6 2-1-4 4-1Z"/><path fill="#E6EAED" d="M180 78c0 2 0 2-2.313 4.563C175 85 175 85 172 86c1.517-3.54 3.753-8 8-8Z"/><path fill="#6F797D" d="m212 74 2 1-1 13h-1c-.194-2.145-.38-4.291-.563-6.438l-.316-3.62L211 75l1-1Z"/><path fill="#D9D9DA" d="M329 70c4.75.75 4.75.75 7 3-2.875.625-2.875.625-6 1l-2-2 1-2Z"/><path fill="#C7C9C9" d="m292 456 11 1v1l-8 1v-2l-3-1Z"/><path fill="#E8E9EA" d="M344 438h5l-1 3-3 1-2-1 1-3Z"/><path fill="#EAE9EA" d="m365 426 5 1c-1.25 1.563-1.25 1.563-3 3-2.188-.313-2.188-.313-4-1l2-3Z"/><path fill="#656F78" d="m224 409 3 1h-2l1 3-8-1 6-3Z"/><path fill="#3AB1DF" d="M188 395c7.508.615 7.508.615 10 2.563l1 1.437c-3.806-.672-7.352-1.727-11-3v-1Z"/><path fill="#D9DADA" d="m413 381 3 1c-1.152 2.468-2.048 4.048-4 6v-2l-2-1 3-4Z"/><path fill="#1EA9DC" d="m364 354 4 1-5 6c0-2.621.313-4.51 1-7Z"/><path fill="#BDE5F3" d="m378 341 2 3-4 4-2-2 4-5Z"/><path fill="#546266" d="m395 312 1 4h2v3l2 1-3 1-.375-1.938L396 317l-2-1 1-4Z"/><path fill="#A9DBEB" d="M399 289h1c.223 1.435.428 2.873.625 4.313l.352 2.425C401 298 401 298 399 301c-1.16-4.256-.762-7.684 0-12Z"/><path fill="#2CAEE2" d="m121 183 1 2a135.916 135.916 0 0 1-3 7h-2c1.059-3.403 2.009-6.014 4-9Z"/><path fill="#BDE4EC" d="m381 179 3 1c.688 2.063.688 2.063 1 4h-3l-2-4 1-1Z"/><path fill="#ECEDEF" d="m400 119 6 4-1 3-2-1v-2h-2l-1-4Z"/><path fill="#626E75" d="m109 121-1 5 4 1h-5l-2-5c2-1 2-1 4-1Z"/></svg>